M48
;GenerationSoftware,Autodesk,EAGLE,9.5.0*%
;CreationDate,2020-10-28T13:58:25Z*%
FMAT,2
ICI,OFF
METRIC,TZ,000.000
T3C0.813
T2C1.000
T1C1.016
%
G90
M71
T1
X16002Y7620
X16002Y2540
X27432Y7874
X27432Y2794
X32004Y16256
X34544Y16256
X37084Y16256
X25400Y16256
X20320Y18796
X20320Y13716
X55626Y4572
X53086Y4572
X50546Y4572
X48006Y4572
X45466Y4572
T2
X12192Y14478
X12192Y17018
X38608Y5080
X38608Y2540
T3
X45466Y9144
X48006Y9144
X60706Y9144
X60706Y16764
X50546Y9144
X53086Y9144
X58166Y9144
X55626Y9144
X58166Y16764
X55626Y16764
X45466Y16764
X28194Y11684
X38354Y11684
X50546Y16764
X48006Y16764
X53086Y16764
M30