G04 EAGLE Gerber RS-274X export*
G75*
%MOMM*%
%FSLAX34Y34*%
%LPD*%
%INBottom Copper*%
%IPPOS*%
%AMOC8*
5,1,8,0,0,1.08239X$1,22.5*%
G01*
%ADD10C,1.524000*%
%ADD11C,1.676400*%
%ADD12C,1.408000*%
%ADD13P,2.089446X8X112.500000*%
%ADD14C,1.930400*%
%ADD15C,1.016000*%
%ADD16C,0.756400*%
%ADD17C,1.500000*%
%ADD18C,2.540000*%
%ADD19R,2.000000X2.000000*%

G36*
X851330Y64523D02*
X851330Y64523D01*
X851489Y64521D01*
X851832Y64543D01*
X852177Y64557D01*
X852335Y64576D01*
X852494Y64586D01*
X852835Y64635D01*
X853178Y64676D01*
X853334Y64708D01*
X853491Y64731D01*
X853827Y64807D01*
X854166Y64875D01*
X854319Y64919D01*
X854474Y64954D01*
X854803Y65057D01*
X855135Y65151D01*
X855284Y65207D01*
X855436Y65255D01*
X855755Y65383D01*
X856079Y65504D01*
X856223Y65571D01*
X856371Y65630D01*
X856680Y65784D01*
X856992Y65930D01*
X857131Y66008D01*
X857273Y66079D01*
X857569Y66257D01*
X857869Y66427D01*
X858001Y66516D01*
X858137Y66598D01*
X858418Y66799D01*
X858703Y66992D01*
X858828Y67092D01*
X858957Y67184D01*
X859221Y67406D01*
X859490Y67622D01*
X859606Y67731D01*
X859728Y67833D01*
X860150Y68236D01*
X866484Y74570D01*
X866592Y74687D01*
X866706Y74798D01*
X866933Y75057D01*
X867168Y75310D01*
X867266Y75435D01*
X867371Y75555D01*
X867578Y75832D01*
X867790Y76103D01*
X867878Y76235D01*
X867974Y76363D01*
X868158Y76655D01*
X868349Y76942D01*
X868426Y77081D01*
X868511Y77215D01*
X868671Y77521D01*
X868838Y77822D01*
X868904Y77967D01*
X868978Y78108D01*
X869114Y78425D01*
X869257Y78739D01*
X869311Y78889D01*
X869374Y79035D01*
X869484Y79362D01*
X869601Y79686D01*
X869644Y79839D01*
X869694Y79990D01*
X869778Y80326D01*
X869870Y80657D01*
X869900Y80813D01*
X869938Y80968D01*
X869995Y81309D01*
X870060Y81647D01*
X870078Y81805D01*
X870104Y81962D01*
X870133Y82305D01*
X870171Y82649D01*
X870176Y82808D01*
X870190Y82966D01*
X870203Y83550D01*
X870203Y101298D01*
X870203Y101307D01*
X870203Y101316D01*
X870183Y101804D01*
X870163Y102305D01*
X870162Y102315D01*
X870162Y102323D01*
X870105Y102794D01*
X870044Y103306D01*
X870042Y103314D01*
X870041Y103323D01*
X869942Y103811D01*
X869845Y104294D01*
X869843Y104302D01*
X869841Y104311D01*
X869708Y104775D01*
X869569Y105263D01*
X869565Y105271D01*
X869563Y105280D01*
X869390Y105741D01*
X869216Y106207D01*
X869212Y106215D01*
X869209Y106223D01*
X868998Y106675D01*
X868790Y107120D01*
X868786Y107128D01*
X868782Y107136D01*
X868502Y107648D01*
X866705Y110761D01*
X865631Y114767D01*
X865631Y118913D01*
X866705Y122919D01*
X867965Y125101D01*
X868179Y125509D01*
X868395Y125914D01*
X868413Y125954D01*
X868433Y125993D01*
X868615Y126417D01*
X868798Y126837D01*
X868813Y126879D01*
X868830Y126920D01*
X868977Y127356D01*
X869127Y127790D01*
X869138Y127833D01*
X869152Y127874D01*
X869264Y128320D01*
X869379Y128766D01*
X869387Y128810D01*
X869397Y128852D01*
X869473Y129303D01*
X869522Y129585D01*
X869891Y129629D01*
X870296Y129671D01*
X870390Y129689D01*
X870485Y129700D01*
X870885Y129781D01*
X871286Y129855D01*
X871379Y129880D01*
X871473Y129899D01*
X871866Y130011D01*
X872260Y130117D01*
X872350Y130149D01*
X872442Y130175D01*
X872826Y130318D01*
X873209Y130455D01*
X873296Y130494D01*
X873387Y130528D01*
X873757Y130700D01*
X874129Y130867D01*
X874244Y130928D01*
X874300Y130954D01*
X874380Y130999D01*
X874645Y131139D01*
X874646Y131139D01*
X874910Y131300D01*
X875177Y131451D01*
X875339Y131561D01*
X875507Y131663D01*
X875756Y131844D01*
X876011Y132016D01*
X876164Y132139D01*
X876323Y132254D01*
X876557Y132453D01*
X876798Y132646D01*
X876941Y132780D01*
X877090Y132907D01*
X877308Y133125D01*
X877419Y133229D01*
X877617Y133159D01*
X877720Y133132D01*
X877820Y133098D01*
X878208Y133001D01*
X878591Y132899D01*
X878695Y132880D01*
X878798Y132854D01*
X879191Y132788D01*
X879582Y132717D01*
X879688Y132706D01*
X879792Y132688D01*
X880189Y132654D01*
X880585Y132614D01*
X880690Y132611D01*
X880796Y132602D01*
X881380Y132589D01*
X881486Y132593D01*
X881592Y132591D01*
X881989Y132613D01*
X882387Y132629D01*
X882493Y132641D01*
X882598Y132647D01*
X882993Y132701D01*
X883388Y132748D01*
X883492Y132769D01*
X883597Y132784D01*
X883985Y132869D01*
X884376Y132947D01*
X884478Y132976D01*
X884581Y132999D01*
X884961Y133114D01*
X885345Y133223D01*
X885345Y133224D01*
X885393Y133179D01*
X885530Y133038D01*
X885761Y132835D01*
X885986Y132625D01*
X886140Y132503D01*
X886287Y132373D01*
X886534Y132189D01*
X886775Y131997D01*
X886937Y131888D01*
X887094Y131770D01*
X887355Y131606D01*
X887611Y131434D01*
X887869Y131283D01*
X887947Y131233D01*
X887948Y131233D01*
X888002Y131205D01*
X888114Y131139D01*
X888115Y131139D01*
X888480Y130954D01*
X888840Y130766D01*
X888929Y130728D01*
X889015Y130685D01*
X889392Y130530D01*
X889767Y130370D01*
X889858Y130340D01*
X889947Y130303D01*
X890335Y130180D01*
X890723Y130050D01*
X890816Y130026D01*
X890907Y129997D01*
X891303Y129905D01*
X891701Y129806D01*
X891795Y129790D01*
X891889Y129768D01*
X892292Y129707D01*
X892695Y129640D01*
X892790Y129632D01*
X892885Y129618D01*
X893293Y129589D01*
X893699Y129554D01*
X893828Y129551D01*
X893890Y129547D01*
X893984Y129547D01*
X894282Y129541D01*
X900260Y129541D01*
X900290Y129525D01*
X900639Y129334D01*
X900736Y129291D01*
X900830Y129242D01*
X901197Y129085D01*
X901560Y128923D01*
X901659Y128888D01*
X901757Y128846D01*
X902135Y128719D01*
X902509Y128587D01*
X902612Y128560D01*
X902713Y128526D01*
X903100Y128429D01*
X903483Y128327D01*
X903587Y128308D01*
X903690Y128282D01*
X904084Y128216D01*
X904474Y128145D01*
X904580Y128134D01*
X904684Y128116D01*
X905081Y128082D01*
X905477Y128042D01*
X905583Y128039D01*
X905689Y128030D01*
X906272Y128017D01*
X919818Y128017D01*
X920252Y128034D01*
X920684Y128046D01*
X920754Y128054D01*
X920825Y128057D01*
X921256Y128108D01*
X921685Y128155D01*
X921755Y128168D01*
X921825Y128176D01*
X922251Y128262D01*
X922676Y128342D01*
X922744Y128361D01*
X922813Y128375D01*
X923230Y128494D01*
X923648Y128608D01*
X923714Y128632D01*
X923782Y128651D01*
X924188Y128803D01*
X924596Y128950D01*
X924660Y128979D01*
X924727Y129004D01*
X925119Y129187D01*
X925514Y129366D01*
X925576Y129400D01*
X925640Y129430D01*
X926016Y129643D01*
X926396Y129853D01*
X926455Y129892D01*
X926516Y129927D01*
X926875Y130170D01*
X927236Y130409D01*
X927292Y130452D01*
X927351Y130492D01*
X927689Y130763D01*
X928030Y131030D01*
X928082Y131077D01*
X928138Y131122D01*
X928453Y131418D01*
X928772Y131711D01*
X928821Y131763D01*
X928872Y131812D01*
X929117Y132081D01*
X935070Y132081D01*
X935197Y132086D01*
X935318Y132083D01*
X935580Y132099D01*
X935851Y132105D01*
X935964Y132116D01*
X936077Y132121D01*
X936202Y132136D01*
X936324Y132143D01*
X936585Y132179D01*
X936854Y132206D01*
X936965Y132227D01*
X937078Y132240D01*
X937200Y132265D01*
X937322Y132282D01*
X937581Y132339D01*
X937845Y132387D01*
X937996Y132425D01*
X938065Y132439D01*
X938154Y132464D01*
X938228Y132483D01*
X938306Y132500D01*
X938341Y132511D01*
X938411Y132528D01*
X938412Y132528D01*
X938722Y132626D01*
X939035Y132715D01*
X939150Y132758D01*
X939269Y132795D01*
X939320Y132815D01*
X939373Y132832D01*
X939676Y132955D01*
X939979Y133068D01*
X940090Y133119D01*
X940206Y133166D01*
X940256Y133190D01*
X940307Y133211D01*
X940602Y133358D01*
X940892Y133494D01*
X940997Y133553D01*
X941111Y133609D01*
X941159Y133638D01*
X941208Y133662D01*
X941492Y133834D01*
X941768Y133991D01*
X941868Y134059D01*
X941978Y134123D01*
X942023Y134155D01*
X942070Y134184D01*
X942341Y134378D01*
X942603Y134556D01*
X942696Y134631D01*
X942801Y134705D01*
X942843Y134740D01*
X942888Y134772D01*
X943144Y134989D01*
X943390Y135186D01*
X943477Y135267D01*
X943576Y135349D01*
X943615Y135388D01*
X943657Y135423D01*
X943896Y135661D01*
X944124Y135875D01*
X944204Y135963D01*
X944297Y136053D01*
X944333Y136095D01*
X944372Y136134D01*
X944593Y136391D01*
X944802Y136621D01*
X944874Y136714D01*
X944959Y136812D01*
X944992Y136857D01*
X945028Y136899D01*
X945229Y137174D01*
X945418Y137419D01*
X945482Y137516D01*
X945560Y137622D01*
X945589Y137668D01*
X945622Y137713D01*
X945801Y138004D01*
X945969Y138262D01*
X946025Y138364D01*
X946095Y138476D01*
X946120Y138525D01*
X946149Y138572D01*
X946305Y138878D01*
X946452Y139147D01*
X946498Y139252D01*
X946560Y139370D01*
X946581Y139421D01*
X946606Y139470D01*
X946738Y139789D01*
X946862Y140065D01*
X946863Y140068D01*
X946901Y140175D01*
X946953Y140298D01*
X946970Y140350D01*
X946991Y140401D01*
X947097Y140730D01*
X947199Y141018D01*
X947229Y141128D01*
X947271Y141254D01*
X947284Y141307D01*
X947301Y141360D01*
X947381Y141697D01*
X947459Y141991D01*
X947480Y142103D01*
X947512Y142233D01*
X947521Y142287D01*
X947533Y142341D01*
X947586Y142683D01*
X947641Y142982D01*
X947653Y143096D01*
X947675Y143227D01*
X947679Y143282D01*
X947688Y143336D01*
X947713Y143682D01*
X947744Y143985D01*
X947747Y144099D01*
X947758Y144231D01*
X947758Y144286D01*
X947762Y144341D01*
X947761Y144688D01*
X947768Y144992D01*
X947761Y145106D01*
X947762Y145239D01*
X947757Y145294D01*
X947757Y145349D01*
X947728Y145693D01*
X947711Y145998D01*
X947695Y146112D01*
X947685Y146244D01*
X947677Y146299D01*
X947672Y146353D01*
X947616Y146693D01*
X947574Y146997D01*
X947550Y147109D01*
X947529Y147240D01*
X947517Y147293D01*
X947508Y147348D01*
X947425Y147682D01*
X947359Y147981D01*
X947326Y148091D01*
X947295Y148220D01*
X947278Y148272D01*
X947265Y148326D01*
X947156Y148651D01*
X947067Y148946D01*
X947025Y149053D01*
X946984Y149178D01*
X946963Y149229D01*
X946945Y149281D01*
X946811Y149597D01*
X946699Y149884D01*
X946648Y149988D01*
X946598Y150109D01*
X946573Y150158D01*
X946551Y150209D01*
X946393Y150511D01*
X946257Y150790D01*
X946198Y150890D01*
X946139Y151006D01*
X946110Y151053D01*
X946084Y151102D01*
X945904Y151390D01*
X945746Y151658D01*
X945678Y151754D01*
X945610Y151864D01*
X945578Y151909D01*
X945548Y151955D01*
X945346Y152227D01*
X945167Y152483D01*
X945092Y152573D01*
X945015Y152678D01*
X944980Y152719D01*
X944947Y152764D01*
X944724Y153018D01*
X944524Y153259D01*
X944442Y153344D01*
X944358Y153441D01*
X944319Y153480D01*
X944282Y153522D01*
X944041Y153756D01*
X943822Y153982D01*
X943733Y154060D01*
X943642Y154150D01*
X943600Y154186D01*
X943560Y154224D01*
X943303Y154438D01*
X943065Y154647D01*
X942969Y154718D01*
X942872Y154801D01*
X942827Y154833D01*
X942785Y154868D01*
X942512Y155060D01*
X942257Y155250D01*
X942156Y155314D01*
X942053Y155388D01*
X942006Y155416D01*
X941961Y155448D01*
X941674Y155617D01*
X941404Y155787D01*
X941298Y155843D01*
X941190Y155908D01*
X941140Y155932D01*
X941093Y155960D01*
X940796Y156106D01*
X940512Y156254D01*
X940400Y156302D01*
X940288Y156358D01*
X940237Y156379D01*
X940187Y156403D01*
X939881Y156523D01*
X939585Y156650D01*
X939469Y156689D01*
X939354Y156735D01*
X939301Y156752D01*
X939250Y156772D01*
X938937Y156867D01*
X938629Y156970D01*
X938510Y157000D01*
X938392Y157037D01*
X938322Y157055D01*
X938286Y157066D01*
X938208Y157083D01*
X937825Y157177D01*
X937738Y157193D01*
X937652Y157214D01*
X937475Y157244D01*
X937302Y157282D01*
X937067Y157314D01*
X936833Y157356D01*
X936745Y157365D01*
X936658Y157380D01*
X936479Y157395D01*
X936303Y157419D01*
X936069Y157433D01*
X935831Y157457D01*
X935742Y157458D01*
X935654Y157466D01*
X935386Y157472D01*
X935297Y157477D01*
X935229Y157476D01*
X935070Y157479D01*
X927387Y157479D01*
X927144Y157657D01*
X926775Y157930D01*
X926738Y157953D01*
X926702Y157980D01*
X926308Y158221D01*
X925920Y158463D01*
X925881Y158484D01*
X925843Y158507D01*
X925433Y158716D01*
X925025Y158927D01*
X924973Y158950D01*
X924945Y158965D01*
X924878Y158992D01*
X924491Y159163D01*
X920769Y160705D01*
X910005Y171469D01*
X908303Y175577D01*
X908303Y225743D01*
X910005Y229851D01*
X920769Y240615D01*
X924491Y242157D01*
X924909Y242350D01*
X925327Y242539D01*
X925366Y242561D01*
X925406Y242579D01*
X925807Y242804D01*
X926209Y243027D01*
X926247Y243051D01*
X926285Y243073D01*
X926667Y243329D01*
X927050Y243583D01*
X927085Y243610D01*
X927122Y243634D01*
X927382Y243841D01*
X935070Y243841D01*
X935325Y243851D01*
X935581Y243851D01*
X935829Y243871D01*
X936077Y243881D01*
X936331Y243911D01*
X936586Y243931D01*
X936831Y243971D01*
X937078Y244000D01*
X937328Y244051D01*
X937581Y244091D01*
X937995Y244185D01*
X938065Y244199D01*
X938066Y244199D01*
X938067Y244199D01*
X938095Y244207D01*
X938150Y244220D01*
X938151Y244220D01*
X938593Y244349D01*
X939036Y244476D01*
X939077Y244491D01*
X939118Y244503D01*
X939547Y244666D01*
X939980Y244828D01*
X940020Y244846D01*
X940060Y244862D01*
X940476Y245059D01*
X940893Y245254D01*
X940931Y245275D01*
X940970Y245294D01*
X941369Y245524D01*
X941770Y245751D01*
X941806Y245776D01*
X941844Y245797D01*
X942223Y246058D01*
X942604Y246316D01*
X942638Y246344D01*
X942674Y246368D01*
X943032Y246658D01*
X943215Y246805D01*
X943442Y246657D01*
X943536Y246606D01*
X943625Y246549D01*
X943978Y246365D01*
X944327Y246174D01*
X944424Y246131D01*
X944518Y246082D01*
X944885Y245925D01*
X945247Y245763D01*
X945347Y245728D01*
X945445Y245686D01*
X945823Y245559D01*
X946197Y245427D01*
X946300Y245400D01*
X946400Y245366D01*
X946788Y245269D01*
X947171Y245167D01*
X947275Y245148D01*
X947378Y245122D01*
X947771Y245056D01*
X948162Y244985D01*
X948268Y244974D01*
X948372Y244956D01*
X948769Y244922D01*
X949165Y244882D01*
X949270Y244879D01*
X949376Y244870D01*
X949960Y244857D01*
X950066Y244861D01*
X950172Y244859D01*
X950569Y244881D01*
X950967Y244897D01*
X951073Y244909D01*
X951178Y244915D01*
X951573Y244969D01*
X951968Y245016D01*
X952072Y245037D01*
X952177Y245052D01*
X952565Y245137D01*
X952956Y245215D01*
X953058Y245244D01*
X953161Y245267D01*
X953541Y245382D01*
X953925Y245491D01*
X954024Y245529D01*
X954126Y245559D01*
X954496Y245705D01*
X954869Y245844D01*
X954965Y245889D01*
X955064Y245927D01*
X955422Y246102D01*
X955782Y246270D01*
X955874Y246322D01*
X955970Y246369D01*
X956314Y246571D01*
X956659Y246767D01*
X956746Y246827D01*
X956838Y246880D01*
X957163Y247109D01*
X957493Y247332D01*
X957576Y247399D01*
X957663Y247459D01*
X957969Y247713D01*
X958280Y247962D01*
X958358Y248035D01*
X958439Y248102D01*
X958724Y248379D01*
X959015Y248652D01*
X959086Y248730D01*
X959162Y248804D01*
X959425Y249103D01*
X959692Y249398D01*
X959757Y249481D01*
X959827Y249561D01*
X960066Y249881D01*
X960308Y250195D01*
X960366Y250284D01*
X960430Y250369D01*
X960642Y250706D01*
X960859Y251039D01*
X960910Y251132D01*
X960967Y251222D01*
X961151Y251574D01*
X961342Y251923D01*
X961385Y252020D01*
X961434Y252114D01*
X961591Y252481D01*
X961753Y252844D01*
X961788Y252943D01*
X961830Y253041D01*
X961957Y253419D01*
X962089Y253793D01*
X962117Y253896D01*
X962150Y253997D01*
X962247Y254384D01*
X962349Y254767D01*
X962368Y254871D01*
X962394Y254974D01*
X962460Y255368D01*
X962531Y255758D01*
X962542Y255864D01*
X962560Y255968D01*
X962594Y256365D01*
X962634Y256761D01*
X962637Y256867D01*
X962646Y256973D01*
X962659Y257556D01*
X962659Y265340D01*
X963237Y265006D01*
X964294Y264196D01*
X965236Y263254D01*
X966046Y262197D01*
X966142Y262032D01*
X966251Y261859D01*
X966351Y261682D01*
X966519Y261434D01*
X966680Y261180D01*
X966802Y261016D01*
X966916Y260848D01*
X967104Y260614D01*
X967284Y260373D01*
X967419Y260220D01*
X967546Y260061D01*
X967751Y259842D01*
X967950Y259617D01*
X968096Y259475D01*
X968236Y259327D01*
X968458Y259125D01*
X968674Y258915D01*
X968831Y258786D01*
X968982Y258649D01*
X969219Y258465D01*
X969451Y258274D01*
X969618Y258157D01*
X969779Y258033D01*
X970030Y257868D01*
X970277Y257696D01*
X970452Y257593D01*
X970623Y257482D01*
X970886Y257338D01*
X971146Y257186D01*
X971329Y257097D01*
X971507Y256999D01*
X971781Y256877D01*
X972052Y256746D01*
X972242Y256671D01*
X972428Y256588D01*
X972711Y256488D01*
X972991Y256379D01*
X973186Y256320D01*
X973377Y256252D01*
X973668Y256174D01*
X973955Y256088D01*
X974154Y256044D01*
X974351Y255992D01*
X974647Y255937D01*
X974940Y255874D01*
X975142Y255846D01*
X975342Y255810D01*
X975641Y255779D01*
X975939Y255739D01*
X976142Y255727D01*
X976345Y255707D01*
X976645Y255700D01*
X976945Y255683D01*
X977149Y255688D01*
X977352Y255684D01*
X977652Y255700D01*
X977953Y255708D01*
X978155Y255729D01*
X978358Y255740D01*
X978656Y255781D01*
X978955Y255812D01*
X979155Y255849D01*
X979357Y255877D01*
X979650Y255941D01*
X979946Y255996D01*
X980142Y256048D01*
X980341Y256092D01*
X980629Y256179D01*
X980919Y256257D01*
X981111Y256325D01*
X981306Y256384D01*
X981586Y256494D01*
X981868Y256595D01*
X982054Y256678D01*
X982244Y256752D01*
X982514Y256884D01*
X982788Y257007D01*
X982967Y257105D01*
X983150Y257194D01*
X983409Y257346D01*
X983672Y257491D01*
X983842Y257602D01*
X984018Y257705D01*
X984264Y257878D01*
X984515Y258043D01*
X984676Y258167D01*
X984843Y258284D01*
X985074Y258476D01*
X985312Y258660D01*
X985463Y258798D01*
X985619Y258927D01*
X985834Y259136D01*
X986057Y259339D01*
X986196Y259487D01*
X986342Y259629D01*
X986541Y259855D01*
X986746Y260074D01*
X986872Y260233D01*
X987007Y260386D01*
X987187Y260627D01*
X987374Y260862D01*
X987488Y261031D01*
X987610Y261194D01*
X987770Y261448D01*
X987938Y261697D01*
X988038Y261874D01*
X988147Y262047D01*
X988286Y262313D01*
X988434Y262574D01*
X988520Y262759D01*
X988614Y262939D01*
X988732Y263216D01*
X988859Y263488D01*
X988930Y263679D01*
X989010Y263866D01*
X989105Y264151D01*
X989210Y264433D01*
X989265Y264628D01*
X989330Y264822D01*
X989403Y265113D01*
X989485Y265402D01*
X989525Y265601D01*
X989574Y265799D01*
X989624Y266096D01*
X989682Y266390D01*
X989706Y266593D01*
X989740Y266793D01*
X989765Y267093D01*
X989801Y267391D01*
X989808Y267595D01*
X989826Y267798D01*
X989839Y268381D01*
X989839Y581660D01*
X989835Y581766D01*
X989837Y581872D01*
X989815Y582269D01*
X989799Y582667D01*
X989787Y582772D01*
X989781Y582878D01*
X989727Y583273D01*
X989680Y583668D01*
X989659Y583772D01*
X989644Y583877D01*
X989559Y584265D01*
X989481Y584656D01*
X989452Y584758D01*
X989429Y584861D01*
X989314Y585241D01*
X989205Y585625D01*
X989167Y585724D01*
X989137Y585826D01*
X988991Y586196D01*
X988852Y586569D01*
X988807Y586665D01*
X988769Y586764D01*
X988594Y587122D01*
X988426Y587482D01*
X988374Y587574D01*
X988327Y587670D01*
X988125Y588013D01*
X987929Y588359D01*
X987869Y588446D01*
X987816Y588538D01*
X987587Y588864D01*
X987364Y589193D01*
X987297Y589276D01*
X987237Y589363D01*
X986983Y589668D01*
X986734Y589980D01*
X986661Y590058D01*
X986594Y590139D01*
X986317Y590424D01*
X986044Y590714D01*
X985966Y590786D01*
X985892Y590862D01*
X985593Y591125D01*
X985298Y591392D01*
X985215Y591457D01*
X985135Y591527D01*
X984815Y591765D01*
X984501Y592008D01*
X984412Y592066D01*
X984327Y592130D01*
X983990Y592342D01*
X983657Y592559D01*
X983564Y592610D01*
X983474Y592667D01*
X983122Y592851D01*
X982773Y593042D01*
X982676Y593085D01*
X982582Y593134D01*
X982215Y593291D01*
X981852Y593453D01*
X981753Y593488D01*
X981655Y593530D01*
X981277Y593657D01*
X980903Y593789D01*
X980800Y593816D01*
X980699Y593850D01*
X980312Y593947D01*
X979929Y594049D01*
X979825Y594068D01*
X979722Y594094D01*
X979328Y594160D01*
X978938Y594231D01*
X978832Y594242D01*
X978728Y594260D01*
X978331Y594294D01*
X977935Y594334D01*
X977829Y594337D01*
X977723Y594346D01*
X977140Y594359D01*
X181356Y594359D01*
X181250Y594355D01*
X181144Y594357D01*
X180747Y594335D01*
X180349Y594319D01*
X180244Y594307D01*
X180138Y594301D01*
X179743Y594247D01*
X179348Y594200D01*
X179244Y594179D01*
X179139Y594164D01*
X178751Y594079D01*
X178360Y594001D01*
X178258Y593972D01*
X178155Y593949D01*
X177775Y593834D01*
X177391Y593725D01*
X177292Y593687D01*
X177190Y593657D01*
X176820Y593511D01*
X176447Y593372D01*
X176351Y593327D01*
X176252Y593289D01*
X175894Y593114D01*
X175534Y592946D01*
X175442Y592894D01*
X175346Y592847D01*
X175003Y592645D01*
X174657Y592449D01*
X174570Y592389D01*
X174478Y592335D01*
X174152Y592107D01*
X173823Y591884D01*
X173740Y591817D01*
X173653Y591757D01*
X173348Y591503D01*
X173036Y591254D01*
X172958Y591181D01*
X172877Y591114D01*
X172592Y590837D01*
X172302Y590564D01*
X172230Y590486D01*
X172154Y590412D01*
X171891Y590113D01*
X171624Y589818D01*
X171559Y589734D01*
X171489Y589655D01*
X171251Y589335D01*
X171008Y589021D01*
X170950Y588932D01*
X170886Y588847D01*
X170674Y588510D01*
X170457Y588177D01*
X170406Y588084D01*
X170349Y587994D01*
X170165Y587642D01*
X169974Y587293D01*
X169931Y587196D01*
X169882Y587102D01*
X169725Y586735D01*
X169563Y586372D01*
X169528Y586273D01*
X169486Y586175D01*
X169359Y585797D01*
X169227Y585423D01*
X169200Y585320D01*
X169166Y585219D01*
X169069Y584832D01*
X168967Y584449D01*
X168948Y584345D01*
X168922Y584242D01*
X168856Y583848D01*
X168785Y583458D01*
X168774Y583352D01*
X168756Y583248D01*
X168722Y582851D01*
X168682Y582455D01*
X168679Y582349D01*
X168670Y582243D01*
X168657Y581660D01*
X168657Y246726D01*
X168663Y246567D01*
X168661Y246408D01*
X168683Y246064D01*
X168697Y245719D01*
X168716Y245561D01*
X168726Y245402D01*
X168775Y245061D01*
X168816Y244719D01*
X168848Y244562D01*
X168871Y244405D01*
X168947Y244069D01*
X169015Y243731D01*
X169059Y243577D01*
X169094Y243422D01*
X169197Y243093D01*
X169291Y242761D01*
X169347Y242612D01*
X169395Y242460D01*
X169523Y242141D01*
X169644Y241817D01*
X169711Y241673D01*
X169770Y241525D01*
X169924Y241216D01*
X170070Y240904D01*
X170148Y240766D01*
X170219Y240623D01*
X170397Y240327D01*
X170567Y240028D01*
X170656Y239896D01*
X170738Y239759D01*
X170939Y239478D01*
X171132Y239193D01*
X171232Y239069D01*
X171324Y238939D01*
X171546Y238676D01*
X171762Y238406D01*
X171871Y238290D01*
X171973Y238168D01*
X172376Y237746D01*
X183951Y226172D01*
X186426Y221885D01*
X187707Y217105D01*
X187707Y216900D01*
X187711Y216796D01*
X187709Y216696D01*
X187712Y216641D01*
X187711Y216582D01*
X187733Y216238D01*
X187747Y215893D01*
X187760Y215780D01*
X187765Y215689D01*
X187772Y215644D01*
X187776Y215576D01*
X187825Y215235D01*
X187866Y214892D01*
X187891Y214771D01*
X187902Y214691D01*
X187910Y214655D01*
X187921Y214579D01*
X187997Y214243D01*
X188065Y213904D01*
X188102Y213776D01*
X188117Y213706D01*
X188125Y213680D01*
X188144Y213596D01*
X188247Y213267D01*
X188341Y212935D01*
X188391Y212801D01*
X188409Y212742D01*
X188417Y212724D01*
X188445Y212634D01*
X188573Y212315D01*
X188694Y211991D01*
X188758Y211852D01*
X188777Y211804D01*
X188782Y211794D01*
X188820Y211699D01*
X188974Y211390D01*
X189120Y211078D01*
X189198Y210940D01*
X189208Y210920D01*
X189219Y210898D01*
X189220Y210895D01*
X189269Y210797D01*
X189447Y210501D01*
X189617Y210201D01*
X189706Y210069D01*
X189788Y209933D01*
X189989Y209653D01*
X190182Y209367D01*
X190282Y209242D01*
X190374Y209113D01*
X190596Y208850D01*
X190812Y208580D01*
X190921Y208464D01*
X191023Y208342D01*
X191426Y207920D01*
X201570Y197776D01*
X201687Y197668D01*
X201798Y197554D01*
X202057Y197326D01*
X202310Y197093D01*
X202435Y196994D01*
X202555Y196889D01*
X202832Y196682D01*
X203103Y196470D01*
X203235Y196382D01*
X203363Y196286D01*
X203655Y196102D01*
X203942Y195911D01*
X204081Y195834D01*
X204215Y195749D01*
X204521Y195589D01*
X204822Y195422D01*
X204967Y195356D01*
X205108Y195282D01*
X205426Y195146D01*
X205739Y195003D01*
X205889Y194949D01*
X206035Y194886D01*
X206362Y194776D01*
X206686Y194659D01*
X206839Y194616D01*
X206990Y194566D01*
X207326Y194482D01*
X207657Y194390D01*
X207814Y194360D01*
X207968Y194322D01*
X208308Y194265D01*
X208647Y194200D01*
X208805Y194182D01*
X208962Y194156D01*
X209305Y194127D01*
X209649Y194089D01*
X209808Y194084D01*
X209966Y194070D01*
X210550Y194057D01*
X315738Y194057D01*
X315791Y194059D01*
X315844Y194057D01*
X316294Y194079D01*
X316745Y194097D01*
X316798Y194103D01*
X316851Y194106D01*
X317296Y194163D01*
X317746Y194216D01*
X317798Y194227D01*
X317851Y194234D01*
X318290Y194326D01*
X318734Y194415D01*
X318785Y194430D01*
X318837Y194441D01*
X319267Y194567D01*
X319703Y194691D01*
X319753Y194710D01*
X319804Y194725D01*
X320223Y194885D01*
X320647Y195044D01*
X320695Y195066D01*
X320745Y195085D01*
X321151Y195279D01*
X321560Y195470D01*
X321606Y195496D01*
X321654Y195519D01*
X322045Y195745D01*
X322437Y195967D01*
X322481Y195997D01*
X322527Y196023D01*
X322897Y196279D01*
X323271Y196532D01*
X323313Y196565D01*
X323356Y196595D01*
X323705Y196879D01*
X324058Y197162D01*
X324097Y197198D01*
X324138Y197232D01*
X324464Y197542D01*
X324793Y197852D01*
X324828Y197891D01*
X324867Y197928D01*
X325167Y198264D01*
X325470Y198598D01*
X325503Y198640D01*
X325538Y198679D01*
X325811Y199038D01*
X326087Y199395D01*
X326116Y199439D01*
X326148Y199482D01*
X326391Y199861D01*
X326638Y200239D01*
X326663Y200285D01*
X326692Y200330D01*
X326904Y200727D01*
X327120Y201123D01*
X327142Y201172D01*
X327167Y201219D01*
X327347Y201632D01*
X327531Y202044D01*
X327549Y202094D01*
X327570Y202142D01*
X327717Y202570D01*
X327867Y202993D01*
X327881Y203045D01*
X327898Y203095D01*
X328012Y203533D01*
X328128Y203967D01*
X328137Y204019D01*
X328150Y204071D01*
X328228Y204516D01*
X328310Y204958D01*
X328315Y205011D01*
X328324Y205063D01*
X328367Y205514D01*
X328413Y205961D01*
X328414Y206013D01*
X328419Y206067D01*
X328425Y206518D01*
X328436Y206968D01*
X328433Y207021D01*
X328434Y207074D01*
X328404Y207523D01*
X328379Y207974D01*
X328372Y208027D01*
X328368Y208080D01*
X328304Y208525D01*
X328243Y208973D01*
X328231Y209025D01*
X328224Y209077D01*
X328124Y209517D01*
X328027Y209957D01*
X328012Y210008D01*
X328000Y210060D01*
X327865Y210491D01*
X327735Y210922D01*
X327716Y210971D01*
X327700Y211022D01*
X327531Y211441D01*
X327367Y211860D01*
X327344Y211907D01*
X327324Y211957D01*
X327123Y212361D01*
X326926Y212766D01*
X326899Y212811D01*
X326875Y212859D01*
X326643Y213245D01*
X326414Y213634D01*
X326383Y213677D01*
X326356Y213723D01*
X326094Y214089D01*
X325835Y214459D01*
X325801Y214499D01*
X325770Y214543D01*
X325478Y214889D01*
X325192Y215235D01*
X325155Y215273D01*
X325121Y215314D01*
X324718Y215736D01*
X312851Y227603D01*
X311149Y231711D01*
X311149Y253190D01*
X311149Y253199D01*
X311149Y253208D01*
X311129Y253700D01*
X311109Y254197D01*
X311108Y254206D01*
X311108Y254215D01*
X311050Y254695D01*
X310990Y255198D01*
X310988Y255207D01*
X310987Y255216D01*
X310890Y255695D01*
X310791Y256186D01*
X310788Y256195D01*
X310787Y256203D01*
X310653Y256669D01*
X310515Y257155D01*
X310511Y257163D01*
X310509Y257172D01*
X310337Y257630D01*
X310162Y258099D01*
X310158Y258108D01*
X310155Y258116D01*
X309947Y258560D01*
X309736Y259012D01*
X309732Y259020D01*
X309728Y259028D01*
X309448Y259540D01*
X309035Y260255D01*
X308942Y260452D01*
X308881Y260559D01*
X308826Y260669D01*
X308630Y260996D01*
X308441Y261327D01*
X308372Y261428D01*
X308309Y261534D01*
X308087Y261845D01*
X307873Y262159D01*
X307796Y262254D01*
X307724Y262355D01*
X307479Y262647D01*
X307240Y262943D01*
X307155Y263032D01*
X307076Y263127D01*
X306809Y263398D01*
X306547Y263675D01*
X306456Y263757D01*
X306369Y263845D01*
X306082Y264094D01*
X305798Y264349D01*
X305700Y264424D01*
X305608Y264504D01*
X305301Y264730D01*
X304998Y264962D01*
X304895Y265029D01*
X304796Y265102D01*
X304472Y265303D01*
X304152Y265510D01*
X304044Y265568D01*
X303940Y265633D01*
X303601Y265808D01*
X303265Y265989D01*
X303153Y266038D01*
X303044Y266094D01*
X302692Y266242D01*
X302344Y266396D01*
X302228Y266436D01*
X302114Y266484D01*
X301752Y266602D01*
X301392Y266728D01*
X301274Y266759D01*
X301157Y266798D01*
X300786Y266887D01*
X300418Y266984D01*
X300297Y267006D01*
X300177Y267035D01*
X299801Y267095D01*
X299426Y267162D01*
X299303Y267174D01*
X299182Y267194D01*
X298803Y267224D01*
X298423Y267261D01*
X298300Y267263D01*
X298178Y267273D01*
X297796Y267273D01*
X297415Y267280D01*
X297293Y267273D01*
X297170Y267272D01*
X296789Y267242D01*
X296409Y267219D01*
X296288Y267202D01*
X296165Y267192D01*
X295789Y267132D01*
X295411Y267078D01*
X295291Y267052D01*
X295170Y267032D01*
X294801Y266942D01*
X294428Y266859D01*
X294310Y266823D01*
X294191Y266794D01*
X293829Y266675D01*
X293465Y266563D01*
X293351Y266517D01*
X293234Y266479D01*
X292882Y266331D01*
X292528Y266191D01*
X292418Y266136D01*
X292305Y266089D01*
X291967Y265914D01*
X291624Y265746D01*
X291518Y265683D01*
X291409Y265626D01*
X291086Y265425D01*
X290758Y265230D01*
X290658Y265159D01*
X290553Y265094D01*
X290247Y264868D01*
X289936Y264648D01*
X289841Y264569D01*
X289813Y264548D01*
X289813Y280035D01*
X290078Y279820D01*
X290179Y279751D01*
X290276Y279675D01*
X290595Y279465D01*
X290909Y279249D01*
X291015Y279188D01*
X291118Y279120D01*
X291451Y278937D01*
X291782Y278746D01*
X291893Y278693D01*
X292000Y278634D01*
X292347Y278478D01*
X292692Y278314D01*
X292807Y278270D01*
X292919Y278220D01*
X293278Y278091D01*
X293634Y277955D01*
X293751Y277921D01*
X293867Y277879D01*
X294235Y277779D01*
X294601Y277672D01*
X294721Y277647D01*
X294840Y277615D01*
X295214Y277545D01*
X295588Y277467D01*
X295709Y277451D01*
X295830Y277429D01*
X296210Y277388D01*
X296587Y277340D01*
X296710Y277335D01*
X296832Y277322D01*
X297213Y277311D01*
X297594Y277294D01*
X297717Y277298D01*
X297840Y277294D01*
X298220Y277314D01*
X298601Y277327D01*
X298723Y277340D01*
X298846Y277347D01*
X299224Y277397D01*
X299603Y277440D01*
X299723Y277463D01*
X299845Y277479D01*
X300217Y277559D01*
X300592Y277632D01*
X300710Y277664D01*
X300830Y277690D01*
X301196Y277799D01*
X301563Y277901D01*
X301678Y277943D01*
X301796Y277979D01*
X302151Y278116D01*
X302509Y278247D01*
X302621Y278298D01*
X302736Y278343D01*
X303078Y278508D01*
X303425Y278667D01*
X303533Y278727D01*
X303643Y278780D01*
X303973Y278973D01*
X304305Y279158D01*
X304407Y279226D01*
X304514Y279288D01*
X304826Y279506D01*
X305144Y279718D01*
X305240Y279794D01*
X305341Y279864D01*
X305635Y280105D01*
X305935Y280342D01*
X306025Y280426D01*
X306120Y280503D01*
X306394Y280767D01*
X306674Y281027D01*
X306757Y281117D01*
X306846Y281202D01*
X307098Y281488D01*
X307357Y281768D01*
X307432Y281865D01*
X307514Y281957D01*
X307743Y282261D01*
X307978Y282561D01*
X308046Y282664D01*
X308120Y282762D01*
X308325Y283084D01*
X308535Y283401D01*
X308595Y283509D01*
X308660Y283612D01*
X308839Y283949D01*
X309024Y284283D01*
X309063Y284369D01*
X311350Y288330D01*
X313904Y290884D01*
X317126Y292744D01*
X317410Y292833D01*
X317598Y292908D01*
X317791Y292975D01*
X318066Y293096D01*
X318345Y293207D01*
X318527Y293298D01*
X318714Y293379D01*
X318978Y293521D01*
X319248Y293655D01*
X319423Y293760D01*
X319602Y293855D01*
X319854Y294018D01*
X320113Y294173D01*
X320279Y294291D01*
X320449Y294401D01*
X320688Y294583D01*
X320933Y294757D01*
X321089Y294888D01*
X321251Y295011D01*
X321475Y295212D01*
X321705Y295405D01*
X321850Y295548D01*
X322002Y295684D01*
X322209Y295901D01*
X322326Y296016D01*
X322386Y295957D01*
X322524Y295808D01*
X322745Y295604D01*
X322960Y295393D01*
X323116Y295263D01*
X323265Y295125D01*
X323502Y294940D01*
X323732Y294747D01*
X323898Y294629D01*
X324058Y294503D01*
X324309Y294337D01*
X324554Y294163D01*
X324729Y294059D01*
X324898Y293946D01*
X325161Y293800D01*
X325419Y293646D01*
X325602Y293556D01*
X325780Y293458D01*
X326054Y293333D01*
X326323Y293200D01*
X326512Y293125D01*
X326697Y293040D01*
X326980Y292938D01*
X327259Y292827D01*
X327453Y292767D01*
X327546Y292733D01*
X330748Y290884D01*
X333302Y288330D01*
X335108Y285202D01*
X336043Y281714D01*
X336043Y262862D01*
X335099Y259342D01*
X334962Y259080D01*
X334735Y258648D01*
X334732Y258640D01*
X334728Y258632D01*
X334525Y258157D01*
X334339Y257722D01*
X334336Y257714D01*
X334332Y257705D01*
X334171Y257225D01*
X334017Y256767D01*
X334015Y256759D01*
X334012Y256750D01*
X333886Y256246D01*
X333772Y255789D01*
X333770Y255781D01*
X333768Y255772D01*
X333686Y255280D01*
X333605Y254796D01*
X333604Y254787D01*
X333602Y254778D01*
X333560Y254279D01*
X333517Y253792D01*
X333517Y253783D01*
X333516Y253774D01*
X333503Y253190D01*
X333503Y243824D01*
X333509Y243665D01*
X333507Y243506D01*
X333529Y243162D01*
X333543Y242817D01*
X333562Y242659D01*
X333572Y242500D01*
X333621Y242159D01*
X333662Y241816D01*
X333694Y241660D01*
X333717Y241503D01*
X333793Y241167D01*
X333861Y240828D01*
X333905Y240675D01*
X333940Y240520D01*
X334043Y240191D01*
X334137Y239859D01*
X334193Y239710D01*
X334241Y239558D01*
X334369Y239238D01*
X334490Y238915D01*
X334557Y238771D01*
X334616Y238623D01*
X334770Y238314D01*
X334916Y238002D01*
X334994Y237864D01*
X335065Y237721D01*
X335243Y237425D01*
X335413Y237125D01*
X335502Y236994D01*
X335584Y236857D01*
X335785Y236576D01*
X335978Y236291D01*
X336078Y236167D01*
X336170Y236037D01*
X336392Y235773D01*
X336608Y235504D01*
X336717Y235388D01*
X336819Y235266D01*
X337222Y234844D01*
X348890Y223176D01*
X349007Y223068D01*
X349118Y222954D01*
X349377Y222726D01*
X349630Y222493D01*
X349755Y222394D01*
X349875Y222289D01*
X350152Y222082D01*
X350423Y221870D01*
X350555Y221782D01*
X350683Y221686D01*
X350974Y221503D01*
X351262Y221311D01*
X351401Y221234D01*
X351535Y221149D01*
X351841Y220989D01*
X352142Y220822D01*
X352287Y220756D01*
X352428Y220682D01*
X352745Y220546D01*
X353059Y220403D01*
X353209Y220349D01*
X353355Y220286D01*
X353682Y220177D01*
X354006Y220059D01*
X354159Y220016D01*
X354310Y219966D01*
X354646Y219882D01*
X354977Y219790D01*
X355134Y219760D01*
X355288Y219722D01*
X355628Y219665D01*
X355967Y219600D01*
X356125Y219582D01*
X356282Y219556D01*
X356625Y219527D01*
X356969Y219489D01*
X357128Y219484D01*
X357286Y219470D01*
X357870Y219457D01*
X397002Y219457D01*
X397108Y219461D01*
X397214Y219459D01*
X397611Y219481D01*
X398009Y219497D01*
X398114Y219509D01*
X398220Y219515D01*
X398615Y219569D01*
X399010Y219616D01*
X399114Y219637D01*
X399219Y219652D01*
X399607Y219737D01*
X399998Y219815D01*
X400100Y219844D01*
X400203Y219867D01*
X400583Y219982D01*
X400967Y220091D01*
X401066Y220129D01*
X401168Y220159D01*
X401538Y220305D01*
X401911Y220444D01*
X402007Y220489D01*
X402106Y220527D01*
X402464Y220702D01*
X402824Y220870D01*
X402916Y220922D01*
X403012Y220969D01*
X403355Y221171D01*
X403701Y221367D01*
X403788Y221427D01*
X403880Y221480D01*
X404206Y221709D01*
X404535Y221932D01*
X404618Y221999D01*
X404705Y222059D01*
X405010Y222313D01*
X405322Y222562D01*
X405400Y222635D01*
X405481Y222702D01*
X405766Y222979D01*
X406056Y223252D01*
X406128Y223330D01*
X406204Y223404D01*
X406467Y223703D01*
X406734Y223998D01*
X406799Y224081D01*
X406869Y224161D01*
X407107Y224481D01*
X407350Y224795D01*
X407408Y224884D01*
X407472Y224969D01*
X407684Y225306D01*
X407901Y225639D01*
X407952Y225732D01*
X408009Y225822D01*
X408193Y226174D01*
X408384Y226523D01*
X408427Y226620D01*
X408476Y226714D01*
X408633Y227081D01*
X408795Y227444D01*
X408830Y227543D01*
X408872Y227641D01*
X408999Y228019D01*
X409131Y228393D01*
X409158Y228496D01*
X409192Y228597D01*
X409289Y228984D01*
X409391Y229367D01*
X409410Y229471D01*
X409436Y229574D01*
X409502Y229968D01*
X409573Y230358D01*
X409584Y230464D01*
X409602Y230568D01*
X409636Y230965D01*
X409676Y231361D01*
X409679Y231467D01*
X409688Y231573D01*
X409701Y232156D01*
X409701Y254128D01*
X410688Y257811D01*
X412628Y261170D01*
X412640Y261184D01*
X412955Y261521D01*
X412983Y261555D01*
X413013Y261587D01*
X413298Y261950D01*
X413584Y262308D01*
X413608Y262345D01*
X413636Y262380D01*
X413891Y262764D01*
X414148Y263144D01*
X414169Y263182D01*
X414194Y263219D01*
X414418Y263621D01*
X414644Y264021D01*
X414662Y264061D01*
X414684Y264099D01*
X414875Y264518D01*
X415069Y264935D01*
X415084Y264976D01*
X415102Y265016D01*
X415259Y265448D01*
X415420Y265879D01*
X415432Y265922D01*
X415447Y265963D01*
X415569Y266406D01*
X415695Y266849D01*
X415703Y266892D01*
X415715Y266934D01*
X415802Y267385D01*
X415892Y267837D01*
X415897Y267881D01*
X415905Y267924D01*
X415956Y268381D01*
X416010Y268838D01*
X416012Y268882D01*
X416017Y268926D01*
X416031Y269385D01*
X416049Y269845D01*
X416047Y269889D01*
X416048Y269933D01*
X416026Y270391D01*
X416007Y270852D01*
X416002Y270895D01*
X416000Y270939D01*
X415942Y271396D01*
X415886Y271852D01*
X415878Y271895D01*
X415872Y271939D01*
X415778Y272386D01*
X415686Y272840D01*
X415674Y272882D01*
X415665Y272925D01*
X415536Y273365D01*
X415408Y273808D01*
X415393Y273850D01*
X415381Y273892D01*
X415216Y274322D01*
X415055Y274752D01*
X415036Y274792D01*
X415020Y274833D01*
X414822Y275248D01*
X414627Y275665D01*
X414600Y275715D01*
X414587Y275743D01*
X414550Y275806D01*
X414347Y276177D01*
X414050Y276692D01*
X413123Y280150D01*
X413123Y283730D01*
X414069Y287260D01*
X414079Y287280D01*
X414094Y287308D01*
X414183Y287471D01*
X414201Y287511D01*
X414311Y287720D01*
X414314Y287728D01*
X414318Y287736D01*
X414515Y288197D01*
X414707Y288646D01*
X414710Y288654D01*
X414714Y288663D01*
X414871Y289132D01*
X415029Y289601D01*
X415031Y289610D01*
X415034Y289618D01*
X415153Y290093D01*
X415274Y290579D01*
X415276Y290587D01*
X415278Y290596D01*
X415360Y291086D01*
X415441Y291572D01*
X415442Y291581D01*
X415444Y291590D01*
X415486Y292080D01*
X415529Y292576D01*
X415529Y292585D01*
X415530Y292594D01*
X415543Y293178D01*
X415543Y360950D01*
X415537Y361109D01*
X415539Y361268D01*
X415517Y361612D01*
X415503Y361957D01*
X415484Y362115D01*
X415474Y362274D01*
X415425Y362615D01*
X415384Y362958D01*
X415352Y363114D01*
X415329Y363271D01*
X415253Y363607D01*
X415185Y363946D01*
X415141Y364099D01*
X415106Y364254D01*
X415003Y364583D01*
X414909Y364915D01*
X414853Y365064D01*
X414805Y365216D01*
X414677Y365536D01*
X414556Y365859D01*
X414489Y366003D01*
X414430Y366151D01*
X414276Y366460D01*
X414130Y366772D01*
X414052Y366910D01*
X413981Y367053D01*
X413803Y367349D01*
X413633Y367649D01*
X413544Y367780D01*
X413462Y367917D01*
X413261Y368198D01*
X413068Y368483D01*
X412968Y368607D01*
X412876Y368737D01*
X412654Y369000D01*
X412438Y369270D01*
X412329Y369386D01*
X412227Y369508D01*
X411824Y369930D01*
X400410Y381344D01*
X400293Y381452D01*
X400182Y381566D01*
X399923Y381794D01*
X399670Y382027D01*
X399545Y382126D01*
X399425Y382231D01*
X399148Y382438D01*
X398877Y382650D01*
X398745Y382738D01*
X398617Y382834D01*
X398326Y383017D01*
X398038Y383209D01*
X397899Y383286D01*
X397765Y383371D01*
X397459Y383531D01*
X397158Y383698D01*
X397013Y383764D01*
X396872Y383838D01*
X396555Y383974D01*
X396241Y384117D01*
X396091Y384171D01*
X395945Y384234D01*
X395618Y384343D01*
X395294Y384461D01*
X395141Y384504D01*
X394990Y384554D01*
X394654Y384638D01*
X394323Y384730D01*
X394166Y384760D01*
X394012Y384798D01*
X393672Y384855D01*
X393333Y384920D01*
X393175Y384938D01*
X393018Y384964D01*
X392675Y384993D01*
X392331Y385031D01*
X392172Y385036D01*
X392014Y385050D01*
X391430Y385063D01*
X239077Y385063D01*
X234969Y386765D01*
X216585Y405149D01*
X214883Y409257D01*
X214883Y422382D01*
X214883Y422391D01*
X214883Y422401D01*
X214863Y422893D01*
X214843Y423389D01*
X214842Y423399D01*
X214842Y423407D01*
X214783Y423891D01*
X214724Y424390D01*
X214722Y424399D01*
X214721Y424408D01*
X214623Y424891D01*
X214525Y425378D01*
X214522Y425387D01*
X214521Y425396D01*
X214384Y425871D01*
X214249Y426347D01*
X214245Y426356D01*
X214243Y426364D01*
X214071Y426822D01*
X213942Y427168D01*
X212923Y430971D01*
X212923Y448509D01*
X213819Y451851D01*
X215586Y454913D01*
X219729Y459055D01*
X223837Y460757D01*
X228283Y460757D01*
X234251Y458285D01*
X234314Y458256D01*
X234733Y458061D01*
X234772Y458047D01*
X234810Y458029D01*
X235243Y457872D01*
X235678Y457710D01*
X235718Y457699D01*
X235757Y457684D01*
X236202Y457561D01*
X236647Y457435D01*
X236688Y457427D01*
X236728Y457416D01*
X237182Y457328D01*
X237636Y457238D01*
X237677Y457233D01*
X237718Y457225D01*
X238176Y457174D01*
X238636Y457120D01*
X238678Y457118D01*
X238720Y457113D01*
X239179Y457099D01*
X239643Y457081D01*
X239685Y457083D01*
X239727Y457081D01*
X240188Y457103D01*
X240650Y457122D01*
X240692Y457127D01*
X240733Y457129D01*
X241192Y457188D01*
X241651Y457243D01*
X241692Y457252D01*
X241733Y457257D01*
X242183Y457351D01*
X242638Y457443D01*
X242679Y457455D01*
X242719Y457464D01*
X243161Y457593D01*
X243607Y457721D01*
X243646Y457736D01*
X243686Y457748D01*
X244119Y457913D01*
X244551Y458075D01*
X244588Y458092D01*
X244628Y458107D01*
X245046Y458307D01*
X245463Y458502D01*
X245511Y458528D01*
X245537Y458541D01*
X245598Y458576D01*
X245975Y458782D01*
X246390Y459022D01*
X249731Y459917D01*
X252984Y459917D01*
X253090Y459921D01*
X253196Y459919D01*
X253593Y459941D01*
X253991Y459957D01*
X254096Y459969D01*
X254202Y459975D01*
X254597Y460029D01*
X254992Y460076D01*
X255096Y460097D01*
X255201Y460112D01*
X255589Y460197D01*
X255980Y460275D01*
X256082Y460304D01*
X256185Y460327D01*
X256565Y460442D01*
X256949Y460551D01*
X257048Y460589D01*
X257150Y460619D01*
X257520Y460765D01*
X257893Y460904D01*
X257989Y460949D01*
X258088Y460987D01*
X258446Y461162D01*
X258806Y461330D01*
X258898Y461382D01*
X258994Y461429D01*
X259337Y461631D01*
X259683Y461827D01*
X259770Y461887D01*
X259862Y461940D01*
X260188Y462169D01*
X260517Y462392D01*
X260600Y462459D01*
X260687Y462519D01*
X260992Y462773D01*
X261304Y463022D01*
X261382Y463095D01*
X261463Y463162D01*
X261748Y463439D01*
X262038Y463712D01*
X262110Y463790D01*
X262186Y463864D01*
X262449Y464163D01*
X262716Y464458D01*
X262781Y464541D01*
X262851Y464621D01*
X263089Y464941D01*
X263332Y465255D01*
X263390Y465344D01*
X263454Y465429D01*
X263666Y465766D01*
X263883Y466099D01*
X263934Y466192D01*
X263991Y466282D01*
X264175Y466634D01*
X264366Y466983D01*
X264409Y467080D01*
X264458Y467174D01*
X264615Y467541D01*
X264777Y467904D01*
X264812Y468003D01*
X264854Y468101D01*
X264981Y468479D01*
X265113Y468853D01*
X265140Y468956D01*
X265174Y469057D01*
X265271Y469444D01*
X265373Y469827D01*
X265392Y469931D01*
X265418Y470034D01*
X265484Y470428D01*
X265555Y470818D01*
X265566Y470924D01*
X265584Y471028D01*
X265618Y471425D01*
X265658Y471821D01*
X265661Y471927D01*
X265670Y472033D01*
X265683Y472616D01*
X265683Y487363D01*
X267385Y491471D01*
X278149Y502235D01*
X282257Y503937D01*
X444183Y503937D01*
X448291Y502235D01*
X484455Y466071D01*
X486157Y461963D01*
X486157Y308236D01*
X486161Y308130D01*
X486159Y308024D01*
X486181Y307627D01*
X486197Y307229D01*
X486209Y307124D01*
X486215Y307018D01*
X486269Y306623D01*
X486316Y306228D01*
X486337Y306124D01*
X486352Y306019D01*
X486437Y305631D01*
X486515Y305240D01*
X486544Y305138D01*
X486567Y305035D01*
X486682Y304655D01*
X486791Y304271D01*
X486829Y304172D01*
X486859Y304070D01*
X487005Y303700D01*
X487144Y303327D01*
X487189Y303231D01*
X487227Y303132D01*
X487402Y302774D01*
X487570Y302414D01*
X487622Y302322D01*
X487669Y302226D01*
X487871Y301883D01*
X488067Y301537D01*
X488127Y301450D01*
X488180Y301358D01*
X488409Y301032D01*
X488632Y300703D01*
X488699Y300620D01*
X488759Y300533D01*
X489013Y300228D01*
X489262Y299916D01*
X489335Y299838D01*
X489402Y299757D01*
X489679Y299472D01*
X489952Y299182D01*
X490030Y299110D01*
X490104Y299034D01*
X490403Y298771D01*
X490698Y298504D01*
X490781Y298439D01*
X490861Y298369D01*
X491181Y298131D01*
X491495Y297888D01*
X491584Y297830D01*
X491669Y297766D01*
X492006Y297554D01*
X492339Y297337D01*
X492432Y297286D01*
X492522Y297229D01*
X492874Y297045D01*
X493223Y296854D01*
X493320Y296811D01*
X493414Y296762D01*
X493781Y296605D01*
X494144Y296443D01*
X494243Y296408D01*
X494341Y296366D01*
X494719Y296239D01*
X495093Y296107D01*
X495196Y296080D01*
X495297Y296046D01*
X495684Y295949D01*
X496067Y295847D01*
X496171Y295828D01*
X496274Y295802D01*
X496668Y295736D01*
X497058Y295665D01*
X497164Y295654D01*
X497268Y295636D01*
X497665Y295602D01*
X498061Y295562D01*
X498167Y295559D01*
X498273Y295550D01*
X498856Y295537D01*
X499630Y295537D01*
X503160Y294591D01*
X503182Y294579D01*
X503620Y294349D01*
X503628Y294346D01*
X503636Y294342D01*
X504097Y294145D01*
X504546Y293953D01*
X504555Y293950D01*
X504563Y293946D01*
X505036Y293788D01*
X505501Y293631D01*
X505510Y293629D01*
X505518Y293626D01*
X506008Y293504D01*
X506479Y293386D01*
X506487Y293384D01*
X506496Y293382D01*
X506992Y293299D01*
X507472Y293219D01*
X507481Y293218D01*
X507490Y293216D01*
X507988Y293174D01*
X508476Y293131D01*
X508485Y293131D01*
X508494Y293130D01*
X509078Y293117D01*
X524764Y293117D01*
X524870Y293121D01*
X524976Y293119D01*
X525373Y293141D01*
X525771Y293157D01*
X525876Y293169D01*
X525982Y293175D01*
X526377Y293229D01*
X526772Y293276D01*
X526876Y293297D01*
X526981Y293312D01*
X527369Y293397D01*
X527760Y293475D01*
X527862Y293504D01*
X527965Y293527D01*
X528345Y293642D01*
X528729Y293751D01*
X528828Y293789D01*
X528930Y293819D01*
X529300Y293965D01*
X529673Y294104D01*
X529769Y294149D01*
X529868Y294187D01*
X530226Y294362D01*
X530586Y294530D01*
X530678Y294582D01*
X530774Y294629D01*
X531117Y294831D01*
X531463Y295027D01*
X531550Y295087D01*
X531642Y295140D01*
X531968Y295369D01*
X532297Y295592D01*
X532380Y295659D01*
X532467Y295719D01*
X532772Y295973D01*
X533084Y296222D01*
X533162Y296295D01*
X533243Y296362D01*
X533528Y296639D01*
X533818Y296912D01*
X533890Y296990D01*
X533966Y297064D01*
X534229Y297363D01*
X534496Y297658D01*
X534561Y297741D01*
X534631Y297821D01*
X534869Y298141D01*
X535112Y298455D01*
X535170Y298544D01*
X535234Y298629D01*
X535446Y298966D01*
X535663Y299299D01*
X535714Y299392D01*
X535771Y299482D01*
X535955Y299834D01*
X536146Y300183D01*
X536189Y300280D01*
X536238Y300374D01*
X536395Y300741D01*
X536557Y301104D01*
X536592Y301203D01*
X536634Y301301D01*
X536761Y301679D01*
X536893Y302053D01*
X536920Y302156D01*
X536954Y302257D01*
X537051Y302644D01*
X537153Y303027D01*
X537172Y303131D01*
X537198Y303234D01*
X537264Y303627D01*
X537335Y304018D01*
X537346Y304124D01*
X537364Y304228D01*
X537398Y304625D01*
X537438Y305021D01*
X537441Y305127D01*
X537450Y305233D01*
X537463Y305816D01*
X537463Y324386D01*
X538398Y327874D01*
X540204Y331002D01*
X542758Y333556D01*
X545886Y335362D01*
X549374Y336297D01*
X552986Y336297D01*
X556474Y335362D01*
X557530Y334752D01*
X557804Y334608D01*
X558074Y334456D01*
X558250Y334374D01*
X558422Y334284D01*
X558707Y334162D01*
X558988Y334031D01*
X559170Y333963D01*
X559349Y333887D01*
X559642Y333788D01*
X559932Y333680D01*
X560120Y333627D01*
X560304Y333565D01*
X560604Y333490D01*
X560902Y333405D01*
X561092Y333367D01*
X561281Y333320D01*
X561586Y333268D01*
X561890Y333208D01*
X562083Y333185D01*
X562275Y333153D01*
X562583Y333126D01*
X562891Y333090D01*
X563085Y333082D01*
X563279Y333065D01*
X563588Y333063D01*
X563898Y333051D01*
X564092Y333059D01*
X564287Y333057D01*
X564595Y333080D01*
X564905Y333092D01*
X565098Y333116D01*
X565292Y333130D01*
X565598Y333176D01*
X565905Y333213D01*
X566095Y333252D01*
X566288Y333281D01*
X566589Y333352D01*
X566893Y333413D01*
X567080Y333467D01*
X567269Y333511D01*
X567564Y333606D01*
X567861Y333691D01*
X568043Y333759D01*
X568229Y333819D01*
X568515Y333936D01*
X568805Y334045D01*
X568981Y334127D01*
X569161Y334201D01*
X569437Y334341D01*
X569718Y334472D01*
X569977Y334614D01*
X570060Y334656D01*
X570114Y334689D01*
X570230Y334752D01*
X571286Y335362D01*
X574774Y336297D01*
X578386Y336297D01*
X581874Y335362D01*
X582930Y334752D01*
X583204Y334608D01*
X583474Y334456D01*
X583650Y334374D01*
X583822Y334284D01*
X584107Y334162D01*
X584388Y334031D01*
X584570Y333963D01*
X584749Y333887D01*
X585042Y333788D01*
X585332Y333680D01*
X585520Y333627D01*
X585704Y333565D01*
X586004Y333490D01*
X586302Y333405D01*
X586492Y333367D01*
X586681Y333320D01*
X586986Y333268D01*
X587290Y333208D01*
X587483Y333185D01*
X587675Y333153D01*
X587983Y333126D01*
X588291Y333090D01*
X588485Y333082D01*
X588679Y333065D01*
X588988Y333063D01*
X589298Y333051D01*
X589492Y333059D01*
X589687Y333057D01*
X589995Y333080D01*
X590305Y333092D01*
X590498Y333116D01*
X590692Y333130D01*
X590998Y333176D01*
X591305Y333213D01*
X591495Y333252D01*
X591688Y333281D01*
X591989Y333352D01*
X592293Y333413D01*
X592480Y333467D01*
X592669Y333511D01*
X592964Y333606D01*
X593261Y333691D01*
X593443Y333759D01*
X593629Y333819D01*
X593915Y333936D01*
X594205Y334045D01*
X594381Y334127D01*
X594561Y334201D01*
X594837Y334341D01*
X595118Y334472D01*
X595377Y334614D01*
X595460Y334656D01*
X595514Y334689D01*
X595630Y334752D01*
X596686Y335362D01*
X600174Y336297D01*
X603786Y336297D01*
X607274Y335362D01*
X608330Y334752D01*
X608604Y334608D01*
X608874Y334456D01*
X609050Y334374D01*
X609222Y334284D01*
X609507Y334162D01*
X609788Y334031D01*
X609970Y333963D01*
X610149Y333887D01*
X610442Y333788D01*
X610732Y333680D01*
X610920Y333627D01*
X611104Y333565D01*
X611404Y333490D01*
X611702Y333405D01*
X611892Y333367D01*
X612081Y333320D01*
X612386Y333268D01*
X612690Y333208D01*
X612883Y333185D01*
X613075Y333153D01*
X613383Y333126D01*
X613691Y333090D01*
X613885Y333082D01*
X614079Y333065D01*
X614388Y333063D01*
X614698Y333051D01*
X614892Y333059D01*
X615087Y333057D01*
X615395Y333080D01*
X615705Y333092D01*
X615898Y333116D01*
X616092Y333130D01*
X616398Y333176D01*
X616705Y333213D01*
X616895Y333252D01*
X617088Y333281D01*
X617389Y333352D01*
X617693Y333413D01*
X617880Y333467D01*
X618069Y333511D01*
X618364Y333606D01*
X618661Y333691D01*
X618843Y333759D01*
X619029Y333819D01*
X619315Y333936D01*
X619605Y334045D01*
X619781Y334127D01*
X619961Y334201D01*
X620237Y334341D01*
X620518Y334472D01*
X620777Y334614D01*
X620860Y334656D01*
X620914Y334689D01*
X621030Y334752D01*
X622086Y335362D01*
X625574Y336297D01*
X629186Y336297D01*
X632674Y335362D01*
X636455Y333180D01*
X636508Y333139D01*
X636821Y332940D01*
X637130Y332735D01*
X637246Y332670D01*
X637359Y332598D01*
X637686Y332425D01*
X638010Y332245D01*
X638132Y332189D01*
X638250Y332127D01*
X638590Y331981D01*
X638927Y331826D01*
X639052Y331781D01*
X639175Y331728D01*
X639526Y331609D01*
X639874Y331482D01*
X640003Y331446D01*
X640081Y331420D01*
X640081Y329850D01*
X640085Y329731D01*
X640083Y329612D01*
X640093Y329433D01*
X640094Y329258D01*
X640112Y329054D01*
X640121Y328843D01*
X640135Y328725D01*
X640142Y328606D01*
X640166Y328429D01*
X640181Y328254D01*
X640215Y328050D01*
X640240Y327842D01*
X640264Y327726D01*
X640280Y327608D01*
X640332Y327351D01*
X640347Y327260D01*
X640365Y327191D01*
X640396Y327036D01*
X640397Y327035D01*
X640421Y326945D01*
X640439Y326855D01*
X640520Y326570D01*
X640592Y326283D01*
X640629Y326174D01*
X640659Y326062D01*
X640690Y325974D01*
X640715Y325885D01*
X640818Y325611D01*
X640913Y325328D01*
X640959Y325221D01*
X640997Y325113D01*
X641036Y325027D01*
X641068Y324941D01*
X641191Y324677D01*
X641309Y324401D01*
X641363Y324299D01*
X641410Y324193D01*
X641456Y324109D01*
X641494Y324028D01*
X641637Y323776D01*
X641777Y323508D01*
X641839Y323411D01*
X641894Y323310D01*
X641947Y323229D01*
X641991Y323152D01*
X642153Y322913D01*
X642314Y322656D01*
X642384Y322563D01*
X642447Y322467D01*
X642506Y322391D01*
X642556Y322317D01*
X642735Y322093D01*
X642918Y321849D01*
X642994Y321762D01*
X643065Y321671D01*
X643131Y321599D01*
X643186Y321530D01*
X643381Y321322D01*
X643583Y321092D01*
X643666Y321011D01*
X643744Y320926D01*
X643816Y320859D01*
X643875Y320796D01*
X644085Y320605D01*
X644307Y320390D01*
X644396Y320317D01*
X644480Y320238D01*
X644557Y320176D01*
X644621Y320118D01*
X644845Y319945D01*
X645083Y319748D01*
X645178Y319682D01*
X645268Y319610D01*
X645351Y319554D01*
X645419Y319502D01*
X645654Y319348D01*
X645908Y319170D01*
X646008Y319111D01*
X646104Y319047D01*
X646191Y318997D01*
X646262Y318951D01*
X646509Y318817D01*
X646777Y318659D01*
X646881Y318608D01*
X646981Y318551D01*
X647073Y318509D01*
X647147Y318468D01*
X647402Y318355D01*
X647683Y318218D01*
X647791Y318176D01*
X647895Y318127D01*
X647991Y318092D01*
X648067Y318058D01*
X648068Y318057D01*
X648330Y317965D01*
X648621Y317850D01*
X648732Y317817D01*
X648840Y317777D01*
X648938Y317749D01*
X649018Y317721D01*
X649286Y317649D01*
X649586Y317558D01*
X649699Y317534D01*
X649810Y317502D01*
X649910Y317482D01*
X649991Y317461D01*
X650264Y317411D01*
X650571Y317344D01*
X650685Y317328D01*
X650798Y317306D01*
X650900Y317294D01*
X650982Y317279D01*
X651258Y317250D01*
X651569Y317208D01*
X651685Y317202D01*
X651799Y317188D01*
X651901Y317184D01*
X651985Y317176D01*
X652263Y317169D01*
X652575Y317152D01*
X652691Y317154D01*
X652806Y317150D01*
X652908Y317154D01*
X652992Y317152D01*
X653270Y317168D01*
X653583Y317176D01*
X653698Y317187D01*
X653813Y317192D01*
X653914Y317204D01*
X653998Y317209D01*
X654275Y317247D01*
X654585Y317279D01*
X654699Y317300D01*
X654813Y317314D01*
X654913Y317334D01*
X654997Y317346D01*
X655270Y317405D01*
X655576Y317462D01*
X655688Y317492D01*
X655801Y317515D01*
X655898Y317543D01*
X655981Y317561D01*
X656250Y317642D01*
X656550Y317723D01*
X656658Y317761D01*
X656769Y317793D01*
X656864Y317828D01*
X656946Y317853D01*
X657208Y317956D01*
X657499Y318060D01*
X657604Y318107D01*
X657713Y318147D01*
X657804Y318190D01*
X657884Y318221D01*
X658137Y318345D01*
X658419Y318471D01*
X658521Y318526D01*
X658625Y318575D01*
X658712Y318625D01*
X658790Y318663D01*
X659034Y318807D01*
X659304Y318954D01*
X659400Y319017D01*
X659501Y319074D01*
X659583Y319130D01*
X659658Y319174D01*
X659890Y319337D01*
X660147Y319505D01*
X660239Y319576D01*
X660334Y319641D01*
X660411Y319703D01*
X660483Y319753D01*
X660702Y319935D01*
X660944Y320122D01*
X661030Y320200D01*
X661120Y320272D01*
X661191Y320340D01*
X661259Y320396D01*
X661464Y320595D01*
X661690Y320800D01*
X661769Y320884D01*
X661853Y320964D01*
X661918Y321036D01*
X661982Y321098D01*
X662172Y321314D01*
X662379Y321535D01*
X662451Y321625D01*
X662529Y321711D01*
X662588Y321788D01*
X662647Y321855D01*
X662820Y322087D01*
X663008Y322322D01*
X663073Y322418D01*
X663143Y322510D01*
X663196Y322590D01*
X663250Y322663D01*
X663404Y322908D01*
X663573Y323157D01*
X663630Y323258D01*
X663693Y323354D01*
X663738Y323439D01*
X663787Y323516D01*
X663922Y323773D01*
X664070Y324034D01*
X664118Y324139D01*
X664173Y324240D01*
X664212Y324327D01*
X664254Y324408D01*
X664369Y324678D01*
X664495Y324948D01*
X664535Y325056D01*
X664582Y325161D01*
X664613Y325250D01*
X664650Y325335D01*
X664743Y325614D01*
X664847Y325892D01*
X664893Y326044D01*
X664917Y326112D01*
X664940Y326200D01*
X664941Y326204D01*
X664970Y326291D01*
X664984Y326344D01*
X665016Y326450D01*
X665016Y326451D01*
X665091Y326770D01*
X665175Y327086D01*
X665191Y327177D01*
X665214Y327268D01*
X665228Y327351D01*
X665247Y327432D01*
X665297Y327757D01*
X665355Y328077D01*
X665364Y328169D01*
X665380Y328262D01*
X665387Y328345D01*
X665400Y328428D01*
X665424Y328758D01*
X665456Y329080D01*
X665458Y329172D01*
X665466Y329266D01*
X665469Y329378D01*
X665473Y329433D01*
X665472Y329525D01*
X665479Y329850D01*
X665479Y331428D01*
X665836Y331531D01*
X665961Y331578D01*
X666088Y331618D01*
X666430Y331756D01*
X666778Y331887D01*
X666899Y331944D01*
X667023Y331994D01*
X667354Y332158D01*
X667690Y332317D01*
X667806Y332383D01*
X667925Y332443D01*
X668243Y332634D01*
X668564Y332818D01*
X668674Y332893D01*
X668789Y332962D01*
X669043Y333144D01*
X672886Y335362D01*
X676374Y336297D01*
X679986Y336297D01*
X683474Y335362D01*
X684530Y334752D01*
X684804Y334608D01*
X685074Y334456D01*
X685250Y334374D01*
X685422Y334284D01*
X685707Y334162D01*
X685988Y334031D01*
X686170Y333963D01*
X686349Y333887D01*
X686642Y333788D01*
X686932Y333680D01*
X687120Y333627D01*
X687304Y333565D01*
X687604Y333490D01*
X687902Y333405D01*
X688092Y333367D01*
X688281Y333320D01*
X688586Y333268D01*
X688890Y333208D01*
X689083Y333185D01*
X689275Y333153D01*
X689583Y333126D01*
X689891Y333090D01*
X690085Y333082D01*
X690279Y333065D01*
X690588Y333063D01*
X690898Y333051D01*
X691092Y333059D01*
X691287Y333057D01*
X691595Y333080D01*
X691905Y333092D01*
X692098Y333116D01*
X692292Y333130D01*
X692598Y333176D01*
X692905Y333213D01*
X693095Y333252D01*
X693288Y333281D01*
X693589Y333352D01*
X693893Y333413D01*
X694080Y333467D01*
X694269Y333511D01*
X694564Y333606D01*
X694861Y333691D01*
X695043Y333759D01*
X695229Y333819D01*
X695515Y333936D01*
X695805Y334045D01*
X695981Y334127D01*
X696161Y334201D01*
X696437Y334341D01*
X696718Y334472D01*
X696977Y334614D01*
X697060Y334656D01*
X697114Y334689D01*
X697230Y334752D01*
X698286Y335362D01*
X701774Y336297D01*
X705104Y336297D01*
X705210Y336301D01*
X705316Y336299D01*
X705713Y336321D01*
X706111Y336337D01*
X706216Y336349D01*
X706322Y336355D01*
X706717Y336409D01*
X707112Y336456D01*
X707216Y336477D01*
X707321Y336492D01*
X707709Y336577D01*
X708100Y336655D01*
X708202Y336684D01*
X708305Y336707D01*
X708685Y336822D01*
X709069Y336931D01*
X709168Y336969D01*
X709270Y336999D01*
X709640Y337145D01*
X710013Y337284D01*
X710109Y337329D01*
X710208Y337367D01*
X710566Y337542D01*
X710926Y337710D01*
X711018Y337762D01*
X711114Y337809D01*
X711457Y338011D01*
X711803Y338207D01*
X711890Y338267D01*
X711982Y338320D01*
X712308Y338549D01*
X712637Y338772D01*
X712720Y338839D01*
X712807Y338899D01*
X713112Y339153D01*
X713424Y339402D01*
X713502Y339475D01*
X713583Y339542D01*
X713868Y339819D01*
X714158Y340092D01*
X714230Y340170D01*
X714306Y340244D01*
X714569Y340543D01*
X714836Y340838D01*
X714901Y340921D01*
X714971Y341001D01*
X715209Y341321D01*
X715452Y341635D01*
X715510Y341724D01*
X715574Y341809D01*
X715786Y342146D01*
X716003Y342479D01*
X716054Y342572D01*
X716111Y342662D01*
X716295Y343014D01*
X716486Y343363D01*
X716529Y343460D01*
X716578Y343554D01*
X716735Y343921D01*
X716897Y344284D01*
X716932Y344383D01*
X716974Y344481D01*
X717101Y344859D01*
X717233Y345233D01*
X717260Y345336D01*
X717294Y345437D01*
X717391Y345824D01*
X717493Y346207D01*
X717512Y346311D01*
X717538Y346414D01*
X717604Y346808D01*
X717675Y347198D01*
X717686Y347304D01*
X717704Y347408D01*
X717705Y347426D01*
X719505Y351771D01*
X748049Y380315D01*
X752157Y382017D01*
X837883Y382017D01*
X841991Y380315D01*
X873075Y349231D01*
X874777Y345123D01*
X874777Y201993D01*
X873075Y197885D01*
X834371Y159181D01*
X830263Y157479D01*
X728762Y157479D01*
X728506Y157469D01*
X728249Y157469D01*
X728002Y157449D01*
X727755Y157439D01*
X727500Y157409D01*
X727245Y157388D01*
X727001Y157349D01*
X726754Y157320D01*
X726502Y157269D01*
X726250Y157228D01*
X726009Y157170D01*
X725766Y157121D01*
X725519Y157050D01*
X725271Y156990D01*
X725036Y156913D01*
X724797Y156845D01*
X724557Y156755D01*
X724313Y156675D01*
X724085Y156579D01*
X723853Y156492D01*
X723621Y156384D01*
X723384Y156284D01*
X723164Y156171D01*
X722940Y156066D01*
X722717Y155940D01*
X722489Y155822D01*
X722279Y155691D01*
X722063Y155569D01*
X721851Y155425D01*
X721633Y155290D01*
X721434Y155143D01*
X721229Y155004D01*
X721029Y154844D01*
X720822Y154691D01*
X720635Y154529D01*
X720442Y154374D01*
X720255Y154198D01*
X720061Y154031D01*
X719888Y153854D01*
X719707Y153684D01*
X719535Y153495D01*
X719355Y153312D01*
X719196Y153122D01*
X719030Y152938D01*
X718873Y152735D01*
X718708Y152539D01*
X718565Y152337D01*
X718414Y152141D01*
X718273Y151926D01*
X718125Y151717D01*
X717998Y151505D01*
X717863Y151297D01*
X717740Y151072D01*
X717608Y150852D01*
X717499Y150630D01*
X717380Y150413D01*
X717276Y150179D01*
X717162Y149949D01*
X717070Y149718D01*
X716969Y149492D01*
X716884Y149251D01*
X716789Y149013D01*
X716715Y148775D01*
X716633Y148543D01*
X716567Y148295D01*
X716491Y148050D01*
X716436Y147808D01*
X716373Y147569D01*
X716326Y147317D01*
X716270Y147067D01*
X716235Y146821D01*
X716190Y146578D01*
X716164Y146323D01*
X716128Y146069D01*
X716113Y145821D01*
X716088Y145575D01*
X716082Y145319D01*
X716066Y145063D01*
X716070Y144815D01*
X716064Y144568D01*
X716079Y144312D01*
X716083Y144055D01*
X716107Y143809D01*
X716121Y143562D01*
X716156Y143307D01*
X716181Y143052D01*
X716224Y142809D01*
X716258Y142563D01*
X716312Y142313D01*
X716357Y142060D01*
X716457Y141649D01*
X716473Y141579D01*
X716482Y141549D01*
X716495Y141493D01*
X717177Y138950D01*
X717177Y135370D01*
X715817Y130297D01*
X715778Y130123D01*
X715689Y129789D01*
X715674Y129707D01*
X715653Y129626D01*
X715615Y129400D01*
X715595Y129314D01*
X715573Y129160D01*
X715507Y128798D01*
X715498Y128715D01*
X715484Y128632D01*
X715462Y128387D01*
X715452Y128316D01*
X715444Y128184D01*
X715404Y127795D01*
X715402Y127712D01*
X715394Y127629D01*
X715392Y127367D01*
X715388Y127311D01*
X715390Y127199D01*
X715381Y126788D01*
X715385Y126705D01*
X715384Y126621D01*
X715404Y126345D01*
X715404Y126303D01*
X715413Y126217D01*
X715414Y126201D01*
X715437Y125782D01*
X715449Y125699D01*
X715455Y125616D01*
X715498Y125327D01*
X715500Y125300D01*
X715510Y125244D01*
X715517Y125201D01*
X715574Y124783D01*
X715592Y124701D01*
X715604Y124619D01*
X715673Y124322D01*
X715676Y124308D01*
X715683Y124279D01*
X715699Y124210D01*
X715789Y123799D01*
X715813Y123719D01*
X715832Y123637D01*
X715928Y123335D01*
X715929Y123332D01*
X715931Y123327D01*
X715959Y123237D01*
X716081Y122834D01*
X716112Y122756D01*
X716137Y122677D01*
X716296Y122288D01*
X716450Y121896D01*
X716486Y121821D01*
X716518Y121744D01*
X716707Y121367D01*
X716891Y120990D01*
X716933Y120918D01*
X716971Y120844D01*
X717189Y120485D01*
X717403Y120122D01*
X717451Y120054D01*
X717494Y119982D01*
X717740Y119641D01*
X717982Y119297D01*
X718035Y119233D01*
X718084Y119165D01*
X718357Y118844D01*
X718624Y118521D01*
X718682Y118461D01*
X718736Y118397D01*
X719033Y118100D01*
X719326Y117798D01*
X719389Y117743D01*
X719448Y117684D01*
X719767Y117411D01*
X720083Y117133D01*
X720150Y117083D01*
X720214Y117029D01*
X720553Y116782D01*
X720891Y116530D01*
X720962Y116486D01*
X721029Y116437D01*
X721387Y116218D01*
X721744Y115993D01*
X721818Y115955D01*
X721889Y115911D01*
X722264Y115721D01*
X722636Y115526D01*
X722713Y115493D01*
X722788Y115455D01*
X723177Y115295D01*
X723563Y115130D01*
X723642Y115104D01*
X723720Y115072D01*
X724120Y114944D01*
X724519Y114810D01*
X724600Y114789D01*
X724679Y114764D01*
X725088Y114668D01*
X725496Y114566D01*
X725579Y114552D01*
X725660Y114533D01*
X726076Y114469D01*
X726491Y114400D01*
X726574Y114393D01*
X726656Y114381D01*
X727075Y114350D01*
X727495Y114314D01*
X727607Y114312D01*
X727661Y114308D01*
X727753Y114308D01*
X728078Y114301D01*
X730886Y114301D01*
X734569Y113314D01*
X739070Y110715D01*
X739185Y110655D01*
X739297Y110587D01*
X739632Y110420D01*
X739962Y110246D01*
X740081Y110195D01*
X740198Y110137D01*
X740545Y109997D01*
X740888Y109850D01*
X741012Y109808D01*
X741132Y109759D01*
X741489Y109647D01*
X741698Y109577D01*
X741700Y109536D01*
X741715Y109103D01*
X741719Y109066D01*
X741721Y109029D01*
X741726Y108983D01*
X741728Y108940D01*
X741780Y108529D01*
X741829Y108101D01*
X741836Y108065D01*
X741840Y108029D01*
X741849Y107983D01*
X741855Y107940D01*
X741940Y107530D01*
X742022Y107112D01*
X742034Y107066D01*
X742039Y107041D01*
X742051Y106997D01*
X742060Y106953D01*
X742086Y106866D01*
X742169Y106548D01*
X742169Y106547D01*
X742247Y106311D01*
X742315Y106072D01*
X742331Y106030D01*
X742344Y105986D01*
X742419Y105790D01*
X742484Y105590D01*
X742581Y105359D01*
X742668Y105128D01*
X742686Y105088D01*
X742703Y105045D01*
X742793Y104854D01*
X742874Y104660D01*
X742990Y104437D01*
X743094Y104214D01*
X743115Y104177D01*
X743135Y104134D01*
X743240Y103952D01*
X743337Y103765D01*
X743470Y103550D01*
X743591Y103338D01*
X743615Y103303D01*
X743638Y103261D01*
X743758Y103088D01*
X743869Y102909D01*
X744020Y102705D01*
X744156Y102503D01*
X744182Y102471D01*
X744209Y102431D01*
X744342Y102267D01*
X744467Y102098D01*
X744634Y101905D01*
X744786Y101716D01*
X744814Y101686D01*
X744844Y101648D01*
X744990Y101496D01*
X745128Y101337D01*
X745311Y101157D01*
X745475Y100982D01*
X745505Y100955D01*
X745540Y100919D01*
X745696Y100778D01*
X745846Y100631D01*
X746044Y100465D01*
X746221Y100304D01*
X746253Y100280D01*
X746290Y100246D01*
X746458Y100119D01*
X746619Y99984D01*
X746830Y99834D01*
X747019Y99688D01*
X747051Y99667D01*
X747092Y99636D01*
X747269Y99522D01*
X747441Y99400D01*
X747663Y99267D01*
X747862Y99137D01*
X747896Y99118D01*
X747939Y99091D01*
X748125Y98991D01*
X748306Y98883D01*
X748540Y98768D01*
X748747Y98655D01*
X748782Y98639D01*
X748828Y98615D01*
X749020Y98530D01*
X749209Y98437D01*
X749453Y98340D01*
X749667Y98244D01*
X749668Y98244D01*
X749703Y98231D01*
X749751Y98210D01*
X749949Y98141D01*
X750145Y98063D01*
X750396Y97986D01*
X750618Y97907D01*
X750653Y97898D01*
X750703Y97880D01*
X750907Y97827D01*
X751108Y97765D01*
X751364Y97708D01*
X751591Y97647D01*
X751628Y97640D01*
X751678Y97627D01*
X751885Y97591D01*
X752091Y97544D01*
X752351Y97507D01*
X752582Y97465D01*
X752619Y97461D01*
X752671Y97452D01*
X752880Y97432D01*
X753089Y97402D01*
X753351Y97386D01*
X753585Y97362D01*
X753622Y97361D01*
X753674Y97356D01*
X753884Y97353D01*
X754094Y97340D01*
X754357Y97344D01*
X754592Y97339D01*
X754630Y97341D01*
X754681Y97340D01*
X754891Y97353D01*
X755102Y97357D01*
X755363Y97382D01*
X755598Y97395D01*
X755636Y97401D01*
X755687Y97404D01*
X755895Y97434D01*
X756105Y97454D01*
X756363Y97500D01*
X756597Y97532D01*
X756634Y97540D01*
X756685Y97547D01*
X756890Y97594D01*
X757097Y97630D01*
X757350Y97697D01*
X757581Y97747D01*
X757618Y97758D01*
X757668Y97769D01*
X757868Y97832D01*
X758072Y97885D01*
X758319Y97971D01*
X758546Y98040D01*
X758581Y98054D01*
X758630Y98069D01*
X758825Y98147D01*
X759024Y98216D01*
X759262Y98321D01*
X759484Y98408D01*
X759518Y98424D01*
X759565Y98443D01*
X759754Y98537D01*
X759947Y98621D01*
X760175Y98744D01*
X760390Y98849D01*
X760424Y98869D01*
X760468Y98891D01*
X760649Y98999D01*
X760834Y99099D01*
X761052Y99239D01*
X761258Y99361D01*
X761290Y99383D01*
X761333Y99409D01*
X761504Y99531D01*
X761681Y99645D01*
X761886Y99802D01*
X762083Y99940D01*
X762113Y99965D01*
X762154Y99994D01*
X762314Y100129D01*
X762482Y100257D01*
X762674Y100429D01*
X762859Y100582D01*
X762888Y100610D01*
X762925Y100642D01*
X763075Y100789D01*
X763232Y100930D01*
X763408Y101116D01*
X763582Y101284D01*
X763609Y101315D01*
X763643Y101349D01*
X763781Y101508D01*
X763926Y101660D01*
X764086Y101859D01*
X764247Y102041D01*
X764272Y102075D01*
X764303Y102111D01*
X764427Y102280D01*
X764560Y102444D01*
X764704Y102653D01*
X764850Y102849D01*
X764872Y102885D01*
X764900Y102922D01*
X765011Y103101D01*
X765130Y103275D01*
X765256Y103495D01*
X765387Y103702D01*
X765406Y103739D01*
X765431Y103779D01*
X765527Y103966D01*
X765632Y104148D01*
X765740Y104376D01*
X765854Y104594D01*
X765871Y104634D01*
X765892Y104675D01*
X765974Y104869D01*
X766064Y105059D01*
X766153Y105294D01*
X766250Y105521D01*
X766264Y105563D01*
X766281Y105604D01*
X766347Y105804D01*
X766421Y106001D01*
X766491Y106241D01*
X766570Y106477D01*
X766581Y106520D01*
X766595Y106562D01*
X766678Y106881D01*
X766703Y106969D01*
X766714Y107022D01*
X766742Y107127D01*
X766742Y107128D01*
X766774Y107292D01*
X766814Y107455D01*
X766856Y107707D01*
X766908Y107956D01*
X766918Y108036D01*
X766934Y108117D01*
X766952Y108283D01*
X766980Y108449D01*
X767002Y108704D01*
X767033Y108955D01*
X767037Y109036D01*
X767046Y109118D01*
X767052Y109286D01*
X767066Y109453D01*
X767069Y109574D01*
X767074Y109575D01*
X767197Y109618D01*
X767322Y109654D01*
X767671Y109785D01*
X768025Y109909D01*
X768144Y109962D01*
X768265Y110008D01*
X768603Y110166D01*
X768946Y110318D01*
X769060Y110380D01*
X769178Y110435D01*
X769690Y110715D01*
X774191Y113314D01*
X777874Y114301D01*
X781686Y114301D01*
X785369Y113314D01*
X788670Y111408D01*
X791366Y108712D01*
X793272Y105411D01*
X794259Y101728D01*
X794259Y81152D01*
X794085Y80503D01*
X794028Y80252D01*
X793962Y80005D01*
X793917Y79762D01*
X793863Y79520D01*
X793826Y79266D01*
X793780Y79014D01*
X793755Y78768D01*
X793719Y78522D01*
X793703Y78266D01*
X793677Y78011D01*
X793671Y77764D01*
X793656Y77517D01*
X793660Y77260D01*
X793654Y77004D01*
X793668Y76757D01*
X793672Y76509D01*
X793696Y76254D01*
X793711Y75998D01*
X793744Y75752D01*
X793768Y75506D01*
X793812Y75254D01*
X793847Y74999D01*
X793900Y74757D01*
X793943Y74513D01*
X794007Y74265D01*
X794062Y74015D01*
X794134Y73778D01*
X794196Y73538D01*
X794280Y73296D01*
X794355Y73050D01*
X794445Y72820D01*
X794526Y72586D01*
X794629Y72351D01*
X794723Y72112D01*
X794831Y71890D01*
X794931Y71663D01*
X795052Y71437D01*
X795164Y71206D01*
X795290Y70993D01*
X795407Y70775D01*
X795546Y70559D01*
X795676Y70338D01*
X795818Y70136D01*
X795952Y69927D01*
X796108Y69723D01*
X796255Y69513D01*
X796412Y69323D01*
X796563Y69126D01*
X796734Y68934D01*
X796897Y68737D01*
X797070Y68560D01*
X797235Y68375D01*
X797421Y68198D01*
X797599Y68014D01*
X797786Y67851D01*
X797965Y67680D01*
X798164Y67518D01*
X798357Y67349D01*
X798555Y67201D01*
X798747Y67045D01*
X798959Y66900D01*
X799164Y66746D01*
X799374Y66614D01*
X799578Y66474D01*
X799800Y66346D01*
X800017Y66209D01*
X800236Y66094D01*
X800451Y65971D01*
X800682Y65861D01*
X800910Y65742D01*
X801138Y65645D01*
X801361Y65538D01*
X801601Y65447D01*
X801837Y65346D01*
X802072Y65267D01*
X802303Y65179D01*
X802548Y65107D01*
X802792Y65026D01*
X803033Y64966D01*
X803270Y64896D01*
X803521Y64844D01*
X803770Y64782D01*
X804014Y64741D01*
X804256Y64691D01*
X804511Y64658D01*
X804764Y64616D01*
X805010Y64595D01*
X805256Y64564D01*
X805512Y64552D01*
X805768Y64530D01*
X806190Y64520D01*
X806263Y64517D01*
X806294Y64518D01*
X806351Y64517D01*
X851170Y64517D01*
X851330Y64523D01*
G37*
G36*
X802746Y604525D02*
X802746Y604525D01*
X802852Y604523D01*
X803249Y604545D01*
X803647Y604561D01*
X803752Y604573D01*
X803858Y604579D01*
X804253Y604633D01*
X804648Y604680D01*
X804752Y604701D01*
X804857Y604716D01*
X805245Y604801D01*
X805636Y604879D01*
X805738Y604908D01*
X805841Y604931D01*
X806221Y605046D01*
X806605Y605155D01*
X806704Y605193D01*
X806806Y605223D01*
X807176Y605369D01*
X807549Y605508D01*
X807645Y605553D01*
X807744Y605591D01*
X808102Y605766D01*
X808462Y605934D01*
X808554Y605986D01*
X808650Y606033D01*
X808993Y606235D01*
X809339Y606431D01*
X809426Y606491D01*
X809518Y606545D01*
X809844Y606773D01*
X810173Y606996D01*
X810256Y607063D01*
X810343Y607123D01*
X810648Y607377D01*
X810960Y607626D01*
X811038Y607699D01*
X811119Y607766D01*
X811404Y608043D01*
X811694Y608316D01*
X811766Y608394D01*
X811842Y608468D01*
X812105Y608767D01*
X812372Y609062D01*
X812437Y609146D01*
X812507Y609225D01*
X812745Y609545D01*
X812988Y609859D01*
X813046Y609948D01*
X813110Y610033D01*
X813322Y610370D01*
X813539Y610703D01*
X813590Y610796D01*
X813647Y610886D01*
X813831Y611238D01*
X814022Y611587D01*
X814065Y611684D01*
X814114Y611778D01*
X814271Y612145D01*
X814433Y612508D01*
X814468Y612607D01*
X814510Y612705D01*
X814637Y613083D01*
X814769Y613457D01*
X814796Y613560D01*
X814830Y613661D01*
X814927Y614048D01*
X815029Y614431D01*
X815048Y614535D01*
X815074Y614638D01*
X815140Y615032D01*
X815211Y615422D01*
X815222Y615528D01*
X815240Y615632D01*
X815274Y616029D01*
X815314Y616425D01*
X815317Y616531D01*
X815326Y616637D01*
X815339Y617220D01*
X815339Y777140D01*
X815335Y777246D01*
X815337Y777352D01*
X815315Y777749D01*
X815299Y778147D01*
X815287Y778252D01*
X815281Y778358D01*
X815227Y778753D01*
X815180Y779148D01*
X815159Y779252D01*
X815144Y779357D01*
X815059Y779745D01*
X814981Y780136D01*
X814952Y780238D01*
X814929Y780341D01*
X814814Y780721D01*
X814705Y781105D01*
X814667Y781204D01*
X814637Y781306D01*
X814491Y781676D01*
X814352Y782049D01*
X814307Y782145D01*
X814269Y782244D01*
X814094Y782602D01*
X813926Y782962D01*
X813874Y783054D01*
X813827Y783150D01*
X813625Y783493D01*
X813429Y783839D01*
X813369Y783926D01*
X813316Y784018D01*
X813087Y784344D01*
X812864Y784673D01*
X812797Y784756D01*
X812737Y784843D01*
X812483Y785148D01*
X812234Y785460D01*
X812161Y785538D01*
X812094Y785619D01*
X811817Y785904D01*
X811544Y786194D01*
X811466Y786266D01*
X811392Y786342D01*
X811093Y786605D01*
X810798Y786872D01*
X810715Y786937D01*
X810635Y787007D01*
X810315Y787245D01*
X810001Y787488D01*
X809912Y787546D01*
X809827Y787610D01*
X809490Y787822D01*
X809157Y788039D01*
X809064Y788090D01*
X808974Y788147D01*
X808622Y788331D01*
X808273Y788522D01*
X808176Y788565D01*
X808082Y788614D01*
X807715Y788771D01*
X807352Y788933D01*
X807253Y788968D01*
X807155Y789010D01*
X806777Y789137D01*
X806403Y789269D01*
X806300Y789296D01*
X806199Y789330D01*
X805812Y789427D01*
X805429Y789529D01*
X805325Y789548D01*
X805222Y789574D01*
X804828Y789640D01*
X804438Y789711D01*
X804332Y789722D01*
X804228Y789740D01*
X803831Y789774D01*
X803435Y789814D01*
X803329Y789817D01*
X803223Y789826D01*
X802640Y789839D01*
X22860Y789839D01*
X22754Y789835D01*
X22648Y789837D01*
X22251Y789815D01*
X21853Y789799D01*
X21748Y789787D01*
X21642Y789781D01*
X21247Y789727D01*
X20852Y789680D01*
X20748Y789659D01*
X20643Y789644D01*
X20255Y789559D01*
X19864Y789481D01*
X19762Y789452D01*
X19659Y789429D01*
X19279Y789314D01*
X18895Y789205D01*
X18796Y789167D01*
X18694Y789137D01*
X18324Y788991D01*
X17951Y788852D01*
X17855Y788807D01*
X17756Y788769D01*
X17398Y788594D01*
X17038Y788426D01*
X16946Y788374D01*
X16850Y788327D01*
X16507Y788125D01*
X16161Y787929D01*
X16074Y787869D01*
X15982Y787816D01*
X15656Y787587D01*
X15327Y787364D01*
X15244Y787297D01*
X15157Y787237D01*
X14852Y786983D01*
X14540Y786734D01*
X14462Y786661D01*
X14381Y786594D01*
X14096Y786317D01*
X13806Y786044D01*
X13734Y785966D01*
X13658Y785892D01*
X13395Y785593D01*
X13128Y785298D01*
X13063Y785215D01*
X12993Y785135D01*
X12755Y784815D01*
X12512Y784501D01*
X12454Y784412D01*
X12390Y784327D01*
X12178Y783990D01*
X11961Y783657D01*
X11910Y783564D01*
X11853Y783474D01*
X11669Y783122D01*
X11478Y782773D01*
X11435Y782676D01*
X11386Y782582D01*
X11229Y782215D01*
X11067Y781852D01*
X11032Y781753D01*
X10990Y781655D01*
X10863Y781277D01*
X10731Y780903D01*
X10704Y780800D01*
X10670Y780699D01*
X10573Y780312D01*
X10471Y779929D01*
X10452Y779825D01*
X10426Y779722D01*
X10360Y779328D01*
X10289Y778938D01*
X10278Y778832D01*
X10260Y778728D01*
X10226Y778331D01*
X10186Y777935D01*
X10183Y777829D01*
X10174Y777723D01*
X10161Y777140D01*
X10161Y758282D01*
X10163Y758229D01*
X10161Y758175D01*
X10183Y757726D01*
X10201Y757275D01*
X10207Y757222D01*
X10210Y757168D01*
X10267Y756723D01*
X10320Y756274D01*
X10331Y756222D01*
X10338Y756169D01*
X10430Y755730D01*
X10519Y755286D01*
X10534Y755235D01*
X10545Y755183D01*
X10671Y754753D01*
X10795Y754317D01*
X10814Y754267D01*
X10829Y754216D01*
X10990Y753796D01*
X11148Y753373D01*
X11170Y753325D01*
X11190Y753275D01*
X11384Y752867D01*
X11574Y752460D01*
X11600Y752414D01*
X11623Y752365D01*
X11850Y751974D01*
X12071Y751583D01*
X12101Y751539D01*
X12128Y751493D01*
X12383Y751122D01*
X12636Y750749D01*
X12670Y750707D01*
X12700Y750663D01*
X12984Y750314D01*
X13266Y749962D01*
X13302Y749923D01*
X13336Y749882D01*
X13648Y749555D01*
X13956Y749228D01*
X13995Y749192D01*
X14032Y749153D01*
X14368Y748853D01*
X14702Y748550D01*
X14744Y748517D01*
X14784Y748482D01*
X15142Y748210D01*
X15499Y747934D01*
X15544Y747904D01*
X15586Y747872D01*
X15965Y747630D01*
X16343Y747383D01*
X16390Y747357D01*
X16435Y747328D01*
X16831Y747116D01*
X17227Y746900D01*
X17276Y746878D01*
X17324Y746853D01*
X17738Y746672D01*
X18148Y746489D01*
X18198Y746472D01*
X18247Y746450D01*
X18675Y746303D01*
X19097Y746153D01*
X19149Y746139D01*
X19200Y746122D01*
X19637Y746009D01*
X20071Y745893D01*
X20123Y745883D01*
X20176Y745870D01*
X20621Y745792D01*
X21062Y745711D01*
X21115Y745705D01*
X21168Y745696D01*
X21617Y745654D01*
X22065Y745608D01*
X22118Y745606D01*
X22172Y745601D01*
X22623Y745595D01*
X23072Y745585D01*
X23125Y745588D01*
X23179Y745587D01*
X23630Y745616D01*
X24078Y745641D01*
X24131Y745649D01*
X24185Y745652D01*
X24630Y745717D01*
X25077Y745778D01*
X25129Y745789D01*
X25182Y745797D01*
X25622Y745897D01*
X26061Y745993D01*
X26112Y746008D01*
X26165Y746020D01*
X26596Y746155D01*
X27026Y746285D01*
X27075Y746305D01*
X27127Y746321D01*
X27545Y746489D01*
X27964Y746653D01*
X28012Y746677D01*
X28062Y746697D01*
X28464Y746897D01*
X28870Y747095D01*
X28916Y747122D01*
X28964Y747146D01*
X29348Y747377D01*
X29738Y747607D01*
X29782Y747637D01*
X29828Y747665D01*
X30195Y747927D01*
X30563Y748185D01*
X30604Y748220D01*
X30648Y748251D01*
X30994Y748542D01*
X31339Y748828D01*
X31377Y748865D01*
X31418Y748900D01*
X31840Y749303D01*
X32037Y749499D01*
X36718Y754181D01*
X41005Y756656D01*
X45785Y757937D01*
X378395Y757937D01*
X383175Y756656D01*
X387462Y754181D01*
X411736Y729906D01*
X411853Y729798D01*
X411964Y729684D01*
X412224Y729456D01*
X412477Y729223D01*
X412602Y729124D01*
X412721Y729019D01*
X412998Y728812D01*
X413269Y728600D01*
X413401Y728512D01*
X413529Y728416D01*
X413821Y728233D01*
X414108Y728041D01*
X414247Y727964D01*
X414382Y727879D01*
X414687Y727719D01*
X414989Y727552D01*
X415133Y727486D01*
X415274Y727412D01*
X415592Y727276D01*
X415905Y727133D01*
X416055Y727079D01*
X416201Y727016D01*
X416529Y726907D01*
X416852Y726789D01*
X417005Y726746D01*
X417157Y726696D01*
X417492Y726612D01*
X417824Y726520D01*
X417980Y726490D01*
X418134Y726452D01*
X418475Y726395D01*
X418813Y726330D01*
X418972Y726312D01*
X419129Y726286D01*
X419472Y726257D01*
X419815Y726219D01*
X419974Y726214D01*
X420133Y726200D01*
X420716Y726187D01*
X562799Y726187D01*
X567579Y724906D01*
X571865Y722431D01*
X578614Y715682D01*
X578731Y715574D01*
X578842Y715460D01*
X579101Y715232D01*
X579355Y714999D01*
X579480Y714900D01*
X579599Y714795D01*
X579876Y714588D01*
X580147Y714376D01*
X580279Y714288D01*
X580407Y714192D01*
X580699Y714008D01*
X580986Y713818D01*
X581125Y713740D01*
X581260Y713655D01*
X581565Y713496D01*
X581867Y713328D01*
X582011Y713262D01*
X582152Y713188D01*
X582470Y713052D01*
X582783Y712909D01*
X582933Y712855D01*
X583079Y712792D01*
X583406Y712683D01*
X583730Y712565D01*
X583884Y712522D01*
X584035Y712472D01*
X584370Y712388D01*
X584702Y712296D01*
X584858Y712266D01*
X585012Y712228D01*
X585352Y712171D01*
X585691Y712106D01*
X585850Y712088D01*
X586007Y712062D01*
X586350Y712033D01*
X586693Y711995D01*
X586852Y711990D01*
X587011Y711976D01*
X587594Y711963D01*
X612854Y711963D01*
X612863Y711963D01*
X612872Y711963D01*
X613364Y711983D01*
X613861Y712003D01*
X613870Y712004D01*
X613879Y712004D01*
X614362Y712063D01*
X614862Y712122D01*
X614871Y712124D01*
X614880Y712125D01*
X615362Y712223D01*
X615850Y712321D01*
X615859Y712324D01*
X615867Y712325D01*
X616344Y712462D01*
X616819Y712597D01*
X616827Y712601D01*
X616836Y712603D01*
X617294Y712775D01*
X617763Y712950D01*
X617772Y712954D01*
X617780Y712957D01*
X618224Y713165D01*
X618676Y713376D01*
X618684Y713380D01*
X618692Y713384D01*
X619020Y713563D01*
X622526Y714503D01*
X641378Y714503D01*
X644866Y713568D01*
X647994Y711762D01*
X650548Y709208D01*
X652354Y706080D01*
X653289Y702592D01*
X653289Y698980D01*
X652354Y695492D01*
X650548Y692364D01*
X647994Y689810D01*
X643985Y687495D01*
X643785Y687401D01*
X643680Y687341D01*
X643572Y687287D01*
X643243Y687090D01*
X642911Y686900D01*
X642811Y686831D01*
X642707Y686769D01*
X642395Y686547D01*
X642079Y686331D01*
X641985Y686255D01*
X641886Y686185D01*
X641592Y685938D01*
X641294Y685698D01*
X641207Y685615D01*
X641114Y685537D01*
X640841Y685268D01*
X640563Y685005D01*
X640482Y684915D01*
X640396Y684830D01*
X640145Y684541D01*
X639889Y684256D01*
X639815Y684160D01*
X639736Y684068D01*
X639509Y683760D01*
X639276Y683456D01*
X639210Y683354D01*
X639139Y683257D01*
X638937Y682932D01*
X638729Y682610D01*
X638671Y682503D01*
X638607Y682401D01*
X638432Y682060D01*
X638250Y681723D01*
X638201Y681612D01*
X638146Y681505D01*
X637998Y681152D01*
X637843Y680801D01*
X637803Y680686D01*
X637757Y680575D01*
X637637Y680211D01*
X637511Y679849D01*
X637480Y679733D01*
X637443Y679618D01*
X637352Y679245D01*
X637255Y678875D01*
X637234Y678756D01*
X637205Y678638D01*
X637145Y678261D01*
X637077Y677883D01*
X637065Y677762D01*
X637046Y677643D01*
X637016Y677261D01*
X636979Y676880D01*
X636977Y676759D01*
X636967Y676638D01*
X636967Y676255D01*
X636960Y675872D01*
X636967Y675752D01*
X636967Y675631D01*
X636998Y675248D01*
X637021Y674866D01*
X637038Y674747D01*
X637048Y674626D01*
X637109Y674248D01*
X637162Y673869D01*
X637188Y673751D01*
X637208Y673631D01*
X637298Y673259D01*
X637382Y672885D01*
X637417Y672769D01*
X637446Y672652D01*
X637566Y672288D01*
X637678Y671922D01*
X637723Y671810D01*
X637761Y671695D01*
X637909Y671341D01*
X638051Y670985D01*
X638104Y670877D01*
X638151Y670766D01*
X638327Y670424D01*
X638496Y670081D01*
X638558Y669977D01*
X638613Y669870D01*
X638815Y669545D01*
X639011Y669216D01*
X639081Y669117D01*
X639145Y669014D01*
X639372Y668706D01*
X639594Y668393D01*
X639671Y668301D01*
X639691Y668273D01*
X624205Y668273D01*
X624420Y668539D01*
X624489Y668638D01*
X624563Y668734D01*
X624774Y669054D01*
X624991Y669369D01*
X625051Y669474D01*
X625118Y669575D01*
X625303Y669910D01*
X625494Y670243D01*
X625546Y670352D01*
X625604Y670458D01*
X625762Y670807D01*
X625926Y671153D01*
X625969Y671266D01*
X626019Y671376D01*
X626149Y671736D01*
X626285Y672095D01*
X626319Y672211D01*
X626360Y672324D01*
X626460Y672694D01*
X626568Y673062D01*
X626593Y673180D01*
X626624Y673297D01*
X626695Y673673D01*
X626773Y674048D01*
X626788Y674169D01*
X626811Y674287D01*
X626852Y674667D01*
X626900Y675048D01*
X626905Y675169D01*
X626918Y675289D01*
X626929Y675671D01*
X626946Y676055D01*
X626942Y676176D01*
X626946Y676297D01*
X626926Y676679D01*
X626913Y677062D01*
X626900Y677182D01*
X626893Y677303D01*
X626843Y677682D01*
X626800Y678063D01*
X626777Y678182D01*
X626761Y678302D01*
X626681Y678676D01*
X626608Y679053D01*
X626576Y679169D01*
X626551Y679287D01*
X626441Y679654D01*
X626338Y680024D01*
X626297Y680137D01*
X626262Y680253D01*
X626124Y680610D01*
X625992Y680970D01*
X625942Y681080D01*
X625898Y681193D01*
X625732Y681538D01*
X625573Y681886D01*
X625514Y681992D01*
X625461Y682101D01*
X625268Y682432D01*
X625081Y682766D01*
X625014Y682867D01*
X624953Y682971D01*
X624735Y683285D01*
X624522Y683604D01*
X624447Y683699D01*
X624378Y683798D01*
X624135Y684095D01*
X623898Y684395D01*
X623815Y684484D01*
X623739Y684578D01*
X623473Y684854D01*
X623213Y685135D01*
X623124Y685217D01*
X623040Y685304D01*
X622753Y685557D01*
X622471Y685817D01*
X622376Y685892D01*
X622286Y685972D01*
X621980Y686203D01*
X621678Y686439D01*
X621577Y686506D01*
X621481Y686578D01*
X621158Y686783D01*
X620838Y686996D01*
X620732Y687054D01*
X620630Y687119D01*
X620291Y687299D01*
X619957Y687484D01*
X619871Y687523D01*
X619204Y687908D01*
X619196Y687912D01*
X619189Y687917D01*
X618744Y688150D01*
X618312Y688377D01*
X618304Y688380D01*
X618296Y688384D01*
X617830Y688583D01*
X617386Y688773D01*
X617378Y688776D01*
X617369Y688780D01*
X616889Y688941D01*
X616431Y689095D01*
X616423Y689097D01*
X616414Y689100D01*
X615919Y689224D01*
X615453Y689340D01*
X615445Y689342D01*
X615436Y689344D01*
X614944Y689426D01*
X614460Y689507D01*
X614451Y689508D01*
X614442Y689510D01*
X613945Y689552D01*
X613456Y689595D01*
X613447Y689595D01*
X613438Y689596D01*
X612854Y689609D01*
X587594Y689609D01*
X587435Y689603D01*
X587276Y689605D01*
X586932Y689583D01*
X586587Y689569D01*
X586429Y689550D01*
X586270Y689540D01*
X585929Y689491D01*
X585586Y689450D01*
X585431Y689418D01*
X585273Y689395D01*
X584936Y689319D01*
X584599Y689251D01*
X584445Y689207D01*
X584290Y689172D01*
X583961Y689069D01*
X583629Y688975D01*
X583480Y688919D01*
X583328Y688871D01*
X583009Y688743D01*
X582685Y688622D01*
X582541Y688555D01*
X582393Y688495D01*
X582084Y688342D01*
X581772Y688196D01*
X581634Y688118D01*
X581491Y688047D01*
X581195Y687869D01*
X580896Y687699D01*
X580764Y687610D01*
X580627Y687528D01*
X580347Y687327D01*
X580061Y687134D01*
X579937Y687034D01*
X579807Y686942D01*
X579544Y686720D01*
X579274Y686504D01*
X579158Y686395D01*
X579036Y686293D01*
X578614Y685890D01*
X578129Y685405D01*
X578083Y685371D01*
X578009Y685308D01*
X577931Y685250D01*
X577626Y684981D01*
X577316Y684717D01*
X577248Y684648D01*
X577175Y684584D01*
X576892Y684292D01*
X576604Y684003D01*
X576541Y683930D01*
X576474Y683860D01*
X576215Y683546D01*
X575951Y683236D01*
X575894Y683158D01*
X575832Y683083D01*
X575598Y682749D01*
X575360Y682419D01*
X575310Y682337D01*
X575255Y682257D01*
X575048Y681905D01*
X574837Y681559D01*
X574793Y681472D01*
X574744Y681389D01*
X574566Y681021D01*
X574383Y680659D01*
X574346Y680569D01*
X574304Y680482D01*
X574156Y680103D01*
X574002Y679726D01*
X573972Y679633D01*
X573937Y679543D01*
X573819Y679154D01*
X573696Y678766D01*
X573674Y678672D01*
X573646Y678579D01*
X573559Y678181D01*
X573467Y677784D01*
X573453Y677689D01*
X573432Y677594D01*
X573377Y677190D01*
X573317Y676788D01*
X573310Y676691D01*
X573297Y676595D01*
X573274Y676188D01*
X573246Y675783D01*
X573247Y675686D01*
X573241Y675589D01*
X573251Y675181D01*
X573255Y674775D01*
X573264Y674678D01*
X573266Y674582D01*
X573308Y674176D01*
X573344Y673771D01*
X573360Y673676D01*
X573370Y673579D01*
X573444Y673178D01*
X573512Y672778D01*
X573536Y672684D01*
X573554Y672588D01*
X573659Y672196D01*
X573759Y671800D01*
X573790Y671708D01*
X573815Y671615D01*
X573951Y671232D01*
X574082Y670846D01*
X574120Y670757D01*
X574153Y670666D01*
X574319Y670294D01*
X574480Y669920D01*
X574525Y669835D01*
X574565Y669746D01*
X574761Y669388D01*
X574950Y669029D01*
X575002Y668947D01*
X575049Y668862D01*
X575272Y668522D01*
X575429Y668273D01*
X558427Y668273D01*
X558496Y668368D01*
X558546Y668451D01*
X558602Y668531D01*
X558808Y668881D01*
X559020Y669229D01*
X559063Y669316D01*
X559112Y669399D01*
X559290Y669766D01*
X559473Y670129D01*
X559510Y670219D01*
X559552Y670306D01*
X559701Y670686D01*
X559854Y671062D01*
X559884Y671154D01*
X559919Y671245D01*
X560037Y671634D01*
X560160Y672022D01*
X560182Y672117D01*
X560210Y672209D01*
X560297Y672607D01*
X560389Y673004D01*
X560404Y673099D01*
X560424Y673194D01*
X560479Y673598D01*
X560539Y674000D01*
X560546Y674097D01*
X560559Y674193D01*
X560582Y674599D01*
X560610Y675005D01*
X560609Y675102D01*
X560615Y675199D01*
X560605Y675606D01*
X560601Y676013D01*
X560592Y676109D01*
X560590Y676206D01*
X560548Y676611D01*
X560512Y677017D01*
X560496Y677112D01*
X560486Y677209D01*
X560412Y677609D01*
X560344Y678010D01*
X560320Y678104D01*
X560302Y678200D01*
X560197Y678593D01*
X560097Y678988D01*
X560066Y679079D01*
X560041Y679173D01*
X559904Y679556D01*
X559774Y679942D01*
X559735Y680031D01*
X559703Y680122D01*
X559537Y680493D01*
X559376Y680868D01*
X559330Y680953D01*
X559291Y681042D01*
X559095Y681399D01*
X558905Y681759D01*
X558854Y681841D01*
X558807Y681926D01*
X558584Y682267D01*
X558366Y682610D01*
X558308Y682688D01*
X558255Y682769D01*
X558005Y683091D01*
X557761Y683416D01*
X557697Y683489D01*
X557638Y683565D01*
X557364Y683866D01*
X557094Y684172D01*
X557024Y684239D01*
X556959Y684311D01*
X556662Y684589D01*
X556369Y684872D01*
X556294Y684933D01*
X556223Y684999D01*
X555905Y685254D01*
X555591Y685512D01*
X555512Y685567D01*
X555436Y685628D01*
X555386Y685661D01*
X555273Y685761D01*
X554996Y685968D01*
X554725Y686180D01*
X554593Y686268D01*
X554465Y686364D01*
X554173Y686547D01*
X553886Y686739D01*
X553747Y686816D01*
X553612Y686901D01*
X553307Y687061D01*
X553005Y687228D01*
X552861Y687294D01*
X552720Y687368D01*
X552402Y687504D01*
X552089Y687647D01*
X551939Y687701D01*
X551793Y687764D01*
X551465Y687873D01*
X551142Y687991D01*
X550989Y688034D01*
X550837Y688084D01*
X550502Y688168D01*
X550170Y688260D01*
X550014Y688290D01*
X549860Y688328D01*
X549519Y688385D01*
X549181Y688450D01*
X549022Y688468D01*
X548865Y688494D01*
X548522Y688523D01*
X548179Y688561D01*
X548020Y688566D01*
X547861Y688580D01*
X547278Y688593D01*
X405195Y688593D01*
X400415Y689874D01*
X396128Y692349D01*
X391447Y697031D01*
X374165Y714313D01*
X373886Y714571D01*
X373611Y714834D01*
X373515Y714912D01*
X373424Y714996D01*
X373126Y715231D01*
X372831Y715472D01*
X372730Y715543D01*
X372632Y715619D01*
X372316Y715830D01*
X372003Y716047D01*
X371896Y716109D01*
X371793Y716177D01*
X371461Y716362D01*
X371132Y716554D01*
X371021Y716607D01*
X370913Y716667D01*
X370566Y716825D01*
X370224Y716990D01*
X370108Y717034D01*
X369996Y717086D01*
X369638Y717216D01*
X369284Y717353D01*
X369165Y717388D01*
X369049Y717430D01*
X368682Y717532D01*
X368318Y717640D01*
X368197Y717665D01*
X368077Y717698D01*
X367703Y717770D01*
X367332Y717849D01*
X367210Y717865D01*
X367088Y717889D01*
X366710Y717931D01*
X366333Y717980D01*
X366209Y717987D01*
X366086Y718000D01*
X365707Y718012D01*
X365326Y718031D01*
X365203Y718028D01*
X365079Y718032D01*
X364699Y718014D01*
X364319Y718003D01*
X364196Y717989D01*
X364072Y717983D01*
X363695Y717935D01*
X363317Y717894D01*
X363196Y717871D01*
X363073Y717855D01*
X362700Y717777D01*
X362327Y717706D01*
X362208Y717674D01*
X362087Y717648D01*
X361722Y717541D01*
X361355Y717441D01*
X361239Y717399D01*
X361120Y717364D01*
X360764Y717228D01*
X360407Y717099D01*
X360294Y717048D01*
X360179Y717004D01*
X359835Y716840D01*
X359489Y716683D01*
X359381Y716623D01*
X359269Y716570D01*
X358940Y716380D01*
X358607Y716196D01*
X358504Y716127D01*
X358397Y716066D01*
X358338Y716025D01*
X314198Y716025D01*
X314117Y716123D01*
X314068Y716174D01*
X314022Y716228D01*
X313716Y716536D01*
X313415Y716846D01*
X313362Y716893D01*
X313312Y716943D01*
X312984Y717225D01*
X312658Y717511D01*
X312601Y717553D01*
X312547Y717599D01*
X312199Y717854D01*
X311850Y718114D01*
X311790Y718152D01*
X311733Y718193D01*
X311364Y718420D01*
X310998Y718651D01*
X310935Y718683D01*
X310875Y718721D01*
X310489Y718917D01*
X310105Y719118D01*
X310040Y719146D01*
X309977Y719178D01*
X309578Y719343D01*
X309178Y719514D01*
X309111Y719536D01*
X309045Y719563D01*
X308634Y719696D01*
X308223Y719834D01*
X308154Y719851D01*
X308087Y719873D01*
X307665Y719973D01*
X307245Y720078D01*
X307175Y720090D01*
X307106Y720106D01*
X306678Y720173D01*
X306251Y720244D01*
X306180Y720250D01*
X306110Y720261D01*
X305678Y720293D01*
X305247Y720330D01*
X305153Y720332D01*
X305105Y720336D01*
X305017Y720335D01*
X304663Y720343D01*
X299857Y720343D01*
X299423Y720326D01*
X298991Y720314D01*
X298921Y720306D01*
X298850Y720303D01*
X298418Y720252D01*
X297989Y720205D01*
X297920Y720192D01*
X297849Y720184D01*
X297425Y720098D01*
X296999Y720018D01*
X296931Y719999D01*
X296861Y719985D01*
X296445Y719866D01*
X296027Y719752D01*
X295960Y719728D01*
X295892Y719709D01*
X295486Y719557D01*
X295079Y719410D01*
X295014Y719381D01*
X294948Y719356D01*
X294556Y719173D01*
X294161Y718994D01*
X294099Y718960D01*
X294035Y718930D01*
X293658Y718716D01*
X293279Y718507D01*
X293220Y718468D01*
X293158Y718433D01*
X292800Y718190D01*
X292438Y717951D01*
X292382Y717907D01*
X292324Y717868D01*
X291986Y717598D01*
X291644Y717330D01*
X291592Y717283D01*
X291537Y717238D01*
X291221Y716942D01*
X290902Y716649D01*
X290854Y716597D01*
X290802Y716548D01*
X290511Y716228D01*
X290323Y716025D01*
X249174Y716025D01*
X249093Y716123D01*
X249044Y716174D01*
X248998Y716228D01*
X248692Y716536D01*
X248391Y716846D01*
X248338Y716893D01*
X248288Y716943D01*
X247960Y717225D01*
X247634Y717511D01*
X247577Y717553D01*
X247523Y717599D01*
X247175Y717854D01*
X246826Y718114D01*
X246766Y718152D01*
X246709Y718193D01*
X246340Y718420D01*
X245974Y718651D01*
X245911Y718683D01*
X245851Y718721D01*
X245465Y718917D01*
X245081Y719118D01*
X245016Y719146D01*
X244953Y719178D01*
X244554Y719343D01*
X244154Y719514D01*
X244087Y719536D01*
X244021Y719563D01*
X243610Y719696D01*
X243199Y719834D01*
X243130Y719851D01*
X243063Y719873D01*
X242641Y719973D01*
X242221Y720078D01*
X242151Y720090D01*
X242082Y720106D01*
X241654Y720173D01*
X241227Y720244D01*
X241156Y720250D01*
X241086Y720261D01*
X240654Y720293D01*
X240223Y720330D01*
X240129Y720332D01*
X240081Y720336D01*
X239993Y720335D01*
X239639Y720343D01*
X61306Y720343D01*
X61147Y720337D01*
X60988Y720339D01*
X60644Y720317D01*
X60299Y720303D01*
X60141Y720284D01*
X59982Y720274D01*
X59641Y720225D01*
X59299Y720184D01*
X59142Y720152D01*
X58985Y720129D01*
X58649Y720053D01*
X58311Y719985D01*
X58157Y719941D01*
X58002Y719906D01*
X57673Y719803D01*
X57341Y719709D01*
X57192Y719653D01*
X57040Y719605D01*
X56721Y719477D01*
X56397Y719356D01*
X56253Y719289D01*
X56105Y719230D01*
X55796Y719076D01*
X55484Y718930D01*
X55346Y718852D01*
X55203Y718781D01*
X54907Y718603D01*
X54608Y718433D01*
X54476Y718344D01*
X54339Y718262D01*
X54058Y718061D01*
X53773Y717868D01*
X53649Y717768D01*
X53519Y717676D01*
X53256Y717454D01*
X52986Y717238D01*
X52870Y717129D01*
X52748Y717027D01*
X52326Y716624D01*
X45376Y709674D01*
X45268Y709557D01*
X45154Y709446D01*
X44926Y709186D01*
X44693Y708933D01*
X44594Y708808D01*
X44489Y708689D01*
X44282Y708412D01*
X44070Y708141D01*
X43982Y708009D01*
X43886Y707881D01*
X43703Y707589D01*
X43511Y707302D01*
X43434Y707163D01*
X43349Y707028D01*
X43189Y706723D01*
X43022Y706421D01*
X42956Y706277D01*
X42882Y706136D01*
X42746Y705818D01*
X42603Y705505D01*
X42549Y705355D01*
X42486Y705209D01*
X42377Y704881D01*
X42259Y704558D01*
X42216Y704405D01*
X42166Y704253D01*
X42082Y703918D01*
X41990Y703586D01*
X41960Y703430D01*
X41922Y703276D01*
X41865Y702935D01*
X41800Y702597D01*
X41782Y702438D01*
X41756Y702281D01*
X41727Y701938D01*
X41689Y701595D01*
X41684Y701436D01*
X41670Y701277D01*
X41657Y700694D01*
X41657Y696025D01*
X40750Y692643D01*
X40694Y692392D01*
X40628Y692145D01*
X40583Y691902D01*
X40528Y691660D01*
X40492Y691406D01*
X40446Y691154D01*
X40420Y690908D01*
X40385Y690662D01*
X40369Y690406D01*
X40343Y690151D01*
X40337Y689904D01*
X40321Y689657D01*
X40325Y689400D01*
X40319Y689144D01*
X40333Y688897D01*
X40337Y688649D01*
X40362Y688394D01*
X40376Y688138D01*
X40410Y687892D01*
X40433Y687646D01*
X40478Y687393D01*
X40513Y687139D01*
X40565Y686898D01*
X40609Y686653D01*
X40673Y686405D01*
X40728Y686155D01*
X40800Y685918D01*
X40862Y685678D01*
X40946Y685436D01*
X41020Y685190D01*
X41111Y684960D01*
X41192Y684726D01*
X41295Y684491D01*
X41388Y684252D01*
X41497Y684030D01*
X41596Y683803D01*
X41717Y683577D01*
X41830Y683346D01*
X41956Y683133D01*
X42072Y682915D01*
X42211Y682699D01*
X42341Y682478D01*
X42484Y682275D01*
X42618Y682067D01*
X42773Y681863D01*
X42920Y681653D01*
X43078Y681463D01*
X43228Y681266D01*
X43400Y681074D01*
X43563Y680877D01*
X43735Y680700D01*
X43901Y680515D01*
X44086Y680338D01*
X44265Y680154D01*
X44451Y679991D01*
X44630Y679820D01*
X44829Y679658D01*
X45022Y679489D01*
X45221Y679341D01*
X45413Y679185D01*
X45624Y679040D01*
X45830Y678886D01*
X46040Y678754D01*
X46243Y678614D01*
X46465Y678486D01*
X46683Y678349D01*
X46902Y678235D01*
X47116Y678111D01*
X47348Y678001D01*
X47575Y677882D01*
X47803Y677784D01*
X48027Y677678D01*
X48266Y677587D01*
X48502Y677486D01*
X48737Y677408D01*
X48968Y677319D01*
X49214Y677247D01*
X49458Y677166D01*
X49698Y677106D01*
X49935Y677036D01*
X50186Y676984D01*
X50435Y676922D01*
X50680Y676881D01*
X50922Y676831D01*
X51176Y676799D01*
X51429Y676756D01*
X51676Y676735D01*
X51922Y676704D01*
X52178Y676692D01*
X52433Y676670D01*
X52856Y676660D01*
X52928Y676657D01*
X52959Y676658D01*
X53017Y676657D01*
X244033Y676657D01*
X244263Y676666D01*
X244493Y676665D01*
X244766Y676686D01*
X245040Y676697D01*
X245269Y676724D01*
X245498Y676741D01*
X245768Y676784D01*
X246041Y676816D01*
X246266Y676862D01*
X246493Y676897D01*
X246760Y676961D01*
X247029Y677015D01*
X247250Y677078D01*
X247474Y677132D01*
X247734Y677216D01*
X247998Y677291D01*
X248214Y677372D01*
X248432Y677443D01*
X248685Y677548D01*
X248942Y677644D01*
X249150Y677741D01*
X249363Y677829D01*
X249607Y677954D01*
X249855Y678070D01*
X250055Y678183D01*
X250260Y678288D01*
X250493Y678432D01*
X250732Y678567D01*
X250922Y678696D01*
X251118Y678817D01*
X251339Y678978D01*
X251566Y679132D01*
X251746Y679276D01*
X251931Y679412D01*
X252139Y679590D01*
X252353Y679762D01*
X252521Y679919D01*
X252695Y680069D01*
X252888Y680264D01*
X253088Y680452D01*
X253242Y680622D01*
X253404Y680785D01*
X253581Y680995D01*
X253765Y681198D01*
X253906Y681380D01*
X254054Y681555D01*
X254214Y681778D01*
X254381Y681995D01*
X254507Y682187D01*
X254641Y682374D01*
X254783Y682609D01*
X254933Y682839D01*
X255043Y683041D01*
X255161Y683238D01*
X255284Y683483D01*
X255415Y683723D01*
X255509Y683933D01*
X255611Y684139D01*
X255714Y684393D01*
X255826Y684644D01*
X255902Y684860D01*
X255989Y685074D01*
X256071Y685336D01*
X256162Y685593D01*
X256222Y685816D01*
X256291Y686035D01*
X256352Y686302D01*
X256422Y686567D01*
X256464Y686793D01*
X256515Y687017D01*
X256555Y687289D01*
X256605Y687558D01*
X256628Y687787D01*
X256661Y688015D01*
X256680Y688288D01*
X256708Y688561D01*
X256713Y688790D01*
X256728Y689020D01*
X256724Y689294D01*
X256731Y689568D01*
X256718Y689798D01*
X256715Y690028D01*
X256689Y690300D01*
X256674Y690574D01*
X256667Y690627D01*
X278047Y690627D01*
X277833Y690332D01*
X277783Y690249D01*
X277727Y690169D01*
X277521Y689818D01*
X277310Y689471D01*
X277266Y689384D01*
X277217Y689300D01*
X277039Y688934D01*
X276856Y688571D01*
X276819Y688481D01*
X276777Y688394D01*
X276628Y688014D01*
X276475Y687638D01*
X276445Y687546D01*
X276410Y687455D01*
X276292Y687065D01*
X276169Y686678D01*
X276147Y686583D01*
X276119Y686490D01*
X276032Y686092D01*
X275940Y685696D01*
X275926Y685601D01*
X275905Y685506D01*
X275850Y685101D01*
X275790Y684700D01*
X275783Y684603D01*
X275770Y684507D01*
X275747Y684100D01*
X275719Y683695D01*
X275720Y683597D01*
X275714Y683501D01*
X275724Y683095D01*
X275728Y682687D01*
X275737Y682590D01*
X275739Y682493D01*
X275781Y682089D01*
X275817Y681683D01*
X275833Y681587D01*
X275843Y681491D01*
X275917Y681091D01*
X275985Y680690D01*
X276009Y680595D01*
X276027Y680500D01*
X276132Y680108D01*
X276232Y679713D01*
X276263Y679620D01*
X276288Y679527D01*
X276425Y679144D01*
X276555Y678758D01*
X276594Y678669D01*
X276626Y678577D01*
X276793Y678205D01*
X276953Y677832D01*
X276998Y677747D01*
X277038Y677658D01*
X277234Y677299D01*
X277423Y676941D01*
X277475Y676859D01*
X277522Y676774D01*
X277745Y676433D01*
X277963Y676090D01*
X278021Y676012D01*
X278074Y675931D01*
X278324Y675608D01*
X278568Y675284D01*
X278632Y675211D01*
X278691Y675134D01*
X278966Y674832D01*
X279235Y674528D01*
X279305Y674461D01*
X279370Y674389D01*
X279667Y674111D01*
X279960Y673828D01*
X280035Y673766D01*
X280106Y673700D01*
X280423Y673447D01*
X280738Y673188D01*
X280774Y673163D01*
X280926Y673010D01*
X281043Y672902D01*
X281154Y672788D01*
X281414Y672560D01*
X281667Y672327D01*
X281792Y672228D01*
X281911Y672123D01*
X282188Y671916D01*
X282459Y671704D01*
X282591Y671616D01*
X282719Y671520D01*
X283011Y671337D01*
X283298Y671145D01*
X283437Y671068D01*
X283572Y670983D01*
X283877Y670823D01*
X284179Y670656D01*
X284323Y670590D01*
X284464Y670516D01*
X284782Y670380D01*
X285095Y670237D01*
X285245Y670183D01*
X285391Y670120D01*
X285719Y670011D01*
X286042Y669893D01*
X286195Y669850D01*
X286347Y669800D01*
X286682Y669716D01*
X287014Y669624D01*
X287170Y669594D01*
X287324Y669556D01*
X287665Y669499D01*
X288003Y669434D01*
X288162Y669416D01*
X288319Y669390D01*
X288662Y669361D01*
X289005Y669323D01*
X289164Y669318D01*
X289323Y669304D01*
X289906Y669291D01*
X315674Y669291D01*
X315683Y669291D01*
X315692Y669291D01*
X316184Y669311D01*
X316681Y669331D01*
X316690Y669332D01*
X316699Y669332D01*
X317182Y669391D01*
X317682Y669450D01*
X317691Y669452D01*
X317700Y669453D01*
X318182Y669551D01*
X318670Y669649D01*
X318679Y669652D01*
X318687Y669653D01*
X319164Y669790D01*
X319639Y669925D01*
X319647Y669929D01*
X319656Y669931D01*
X320114Y670103D01*
X320583Y670278D01*
X320592Y670282D01*
X320600Y670285D01*
X321043Y670492D01*
X321496Y670704D01*
X321504Y670708D01*
X321512Y670712D01*
X322024Y670992D01*
X322739Y671405D01*
X322936Y671498D01*
X323043Y671559D01*
X323153Y671614D01*
X323480Y671810D01*
X323811Y671999D01*
X323912Y672068D01*
X324018Y672131D01*
X324329Y672353D01*
X324643Y672567D01*
X324738Y672644D01*
X324839Y672716D01*
X325131Y672961D01*
X325427Y673200D01*
X325516Y673285D01*
X325611Y673364D01*
X325882Y673631D01*
X326159Y673893D01*
X326241Y673984D01*
X326329Y674071D01*
X326578Y674358D01*
X326833Y674642D01*
X326908Y674740D01*
X326988Y674832D01*
X327214Y675139D01*
X327446Y675442D01*
X327513Y675545D01*
X327586Y675644D01*
X327787Y675968D01*
X327994Y676288D01*
X328052Y676396D01*
X328117Y676500D01*
X328292Y676839D01*
X328473Y677175D01*
X328522Y677287D01*
X328578Y677396D01*
X328726Y677748D01*
X328880Y678096D01*
X328920Y678212D01*
X328968Y678326D01*
X329086Y678688D01*
X329212Y679048D01*
X329243Y679166D01*
X329282Y679283D01*
X329371Y679654D01*
X329468Y680022D01*
X329490Y680143D01*
X329519Y680263D01*
X329579Y680639D01*
X329646Y681014D01*
X329658Y681137D01*
X329678Y681258D01*
X329708Y681637D01*
X329745Y682017D01*
X329747Y682140D01*
X329757Y682262D01*
X329757Y682643D01*
X329764Y683025D01*
X329757Y683147D01*
X329756Y683270D01*
X329726Y683651D01*
X329703Y684031D01*
X329686Y684152D01*
X329676Y684275D01*
X329616Y684651D01*
X329562Y685029D01*
X329536Y685149D01*
X329516Y685270D01*
X329426Y685639D01*
X329343Y686012D01*
X329307Y686130D01*
X329278Y686249D01*
X329159Y686611D01*
X329047Y686975D01*
X329001Y687089D01*
X328963Y687206D01*
X328815Y687558D01*
X328675Y687912D01*
X328620Y688022D01*
X328573Y688135D01*
X328398Y688473D01*
X328230Y688816D01*
X328167Y688922D01*
X328110Y689031D01*
X327909Y689354D01*
X327714Y689682D01*
X327643Y689782D01*
X327578Y689887D01*
X327352Y690193D01*
X327132Y690504D01*
X327053Y690599D01*
X327033Y690627D01*
X342519Y690627D01*
X342304Y690362D01*
X342235Y690261D01*
X342159Y690164D01*
X341949Y689845D01*
X341733Y689531D01*
X341672Y689425D01*
X341604Y689322D01*
X341421Y688988D01*
X341230Y688658D01*
X341177Y688547D01*
X341118Y688440D01*
X340962Y688093D01*
X340798Y687748D01*
X340754Y687633D01*
X340704Y687521D01*
X340575Y687162D01*
X340439Y686806D01*
X340405Y686689D01*
X340363Y686573D01*
X340263Y686205D01*
X340156Y685839D01*
X340131Y685719D01*
X340099Y685600D01*
X340029Y685226D01*
X339951Y684852D01*
X339935Y684731D01*
X339913Y684610D01*
X339872Y684230D01*
X339824Y683853D01*
X339819Y683730D01*
X339806Y683608D01*
X339795Y683227D01*
X339778Y682846D01*
X339782Y682723D01*
X339778Y682600D01*
X339798Y682220D01*
X339811Y681839D01*
X339824Y681717D01*
X339831Y681594D01*
X339881Y681216D01*
X339924Y680837D01*
X339947Y680716D01*
X339963Y680595D01*
X340043Y680223D01*
X340116Y679848D01*
X340148Y679730D01*
X340174Y679610D01*
X340283Y679244D01*
X340385Y678877D01*
X340427Y678762D01*
X340463Y678644D01*
X340601Y678288D01*
X340731Y677931D01*
X340782Y677819D01*
X340827Y677704D01*
X340992Y677362D01*
X341151Y677015D01*
X341211Y676907D01*
X341264Y676797D01*
X341457Y676467D01*
X341642Y676135D01*
X341710Y676033D01*
X341772Y675926D01*
X341990Y675614D01*
X342202Y675296D01*
X342278Y675200D01*
X342348Y675099D01*
X342589Y674805D01*
X342826Y674505D01*
X342910Y674415D01*
X342987Y674320D01*
X343251Y674046D01*
X343511Y673766D01*
X343601Y673683D01*
X343686Y673594D01*
X343972Y673342D01*
X344252Y673083D01*
X344349Y673008D01*
X344441Y672926D01*
X344745Y672697D01*
X345045Y672462D01*
X345148Y672394D01*
X345246Y672320D01*
X345568Y672115D01*
X345885Y671905D01*
X345993Y671845D01*
X346096Y671780D01*
X346433Y671601D01*
X346767Y671416D01*
X346853Y671377D01*
X350814Y669090D01*
X353368Y666536D01*
X355174Y663408D01*
X356109Y659920D01*
X356109Y656308D01*
X355174Y652820D01*
X353368Y649692D01*
X350814Y647138D01*
X347686Y645332D01*
X344198Y644397D01*
X325346Y644397D01*
X321826Y645341D01*
X321564Y645477D01*
X321132Y645705D01*
X321124Y645708D01*
X321116Y645712D01*
X320650Y645911D01*
X320206Y646101D01*
X320198Y646104D01*
X320189Y646108D01*
X319709Y646269D01*
X319251Y646423D01*
X319243Y646425D01*
X319234Y646428D01*
X318739Y646552D01*
X318273Y646668D01*
X318265Y646670D01*
X318256Y646672D01*
X317764Y646754D01*
X317280Y646835D01*
X317271Y646836D01*
X317262Y646838D01*
X316765Y646880D01*
X316276Y646923D01*
X316267Y646923D01*
X316258Y646924D01*
X315674Y646937D01*
X290414Y646937D01*
X290255Y646931D01*
X290096Y646933D01*
X289752Y646911D01*
X289407Y646897D01*
X289249Y646878D01*
X289090Y646868D01*
X288749Y646819D01*
X288407Y646778D01*
X288250Y646746D01*
X288093Y646723D01*
X287757Y646647D01*
X287419Y646579D01*
X287265Y646535D01*
X287110Y646500D01*
X286781Y646397D01*
X286449Y646303D01*
X286300Y646247D01*
X286148Y646199D01*
X285829Y646071D01*
X285505Y645950D01*
X285361Y645883D01*
X285213Y645824D01*
X284904Y645670D01*
X284592Y645524D01*
X284454Y645446D01*
X284311Y645375D01*
X284015Y645197D01*
X283716Y645027D01*
X283584Y644938D01*
X283447Y644856D01*
X283166Y644655D01*
X282881Y644462D01*
X282757Y644362D01*
X282627Y644270D01*
X282364Y644048D01*
X282094Y643832D01*
X281978Y643723D01*
X281856Y643621D01*
X281434Y643218D01*
X281036Y642819D01*
X276749Y640344D01*
X271969Y639063D01*
X22860Y639063D01*
X22754Y639059D01*
X22648Y639061D01*
X22251Y639039D01*
X21853Y639023D01*
X21748Y639011D01*
X21642Y639005D01*
X21247Y638951D01*
X20852Y638904D01*
X20748Y638883D01*
X20643Y638868D01*
X20255Y638783D01*
X19864Y638705D01*
X19762Y638676D01*
X19659Y638653D01*
X19279Y638538D01*
X18895Y638429D01*
X18796Y638391D01*
X18694Y638361D01*
X18324Y638215D01*
X17951Y638076D01*
X17855Y638031D01*
X17756Y637993D01*
X17398Y637818D01*
X17038Y637650D01*
X16946Y637598D01*
X16850Y637551D01*
X16507Y637349D01*
X16161Y637153D01*
X16074Y637093D01*
X15982Y637040D01*
X15656Y636811D01*
X15327Y636588D01*
X15244Y636521D01*
X15157Y636461D01*
X14852Y636207D01*
X14540Y635958D01*
X14462Y635885D01*
X14381Y635818D01*
X14096Y635541D01*
X13806Y635268D01*
X13734Y635190D01*
X13658Y635116D01*
X13395Y634817D01*
X13128Y634522D01*
X13063Y634439D01*
X12993Y634359D01*
X12755Y634039D01*
X12512Y633725D01*
X12454Y633636D01*
X12390Y633551D01*
X12178Y633214D01*
X11961Y632881D01*
X11910Y632788D01*
X11853Y632698D01*
X11669Y632346D01*
X11478Y631997D01*
X11435Y631900D01*
X11386Y631806D01*
X11229Y631438D01*
X11067Y631076D01*
X11032Y630977D01*
X10990Y630879D01*
X10863Y630501D01*
X10731Y630127D01*
X10704Y630024D01*
X10670Y629923D01*
X10573Y629536D01*
X10471Y629153D01*
X10452Y629049D01*
X10426Y628946D01*
X10360Y628552D01*
X10289Y628162D01*
X10278Y628056D01*
X10260Y627952D01*
X10226Y627555D01*
X10186Y627159D01*
X10183Y627053D01*
X10174Y626947D01*
X10161Y626364D01*
X10161Y617220D01*
X10165Y617114D01*
X10163Y617008D01*
X10185Y616611D01*
X10201Y616213D01*
X10213Y616108D01*
X10219Y616002D01*
X10273Y615607D01*
X10320Y615212D01*
X10341Y615108D01*
X10356Y615003D01*
X10441Y614615D01*
X10519Y614224D01*
X10548Y614122D01*
X10571Y614019D01*
X10686Y613639D01*
X10795Y613255D01*
X10833Y613156D01*
X10863Y613054D01*
X11009Y612684D01*
X11148Y612311D01*
X11193Y612215D01*
X11231Y612116D01*
X11406Y611758D01*
X11574Y611398D01*
X11626Y611306D01*
X11673Y611210D01*
X11875Y610867D01*
X12071Y610521D01*
X12131Y610434D01*
X12184Y610342D01*
X12413Y610016D01*
X12636Y609687D01*
X12703Y609604D01*
X12763Y609517D01*
X13017Y609212D01*
X13266Y608900D01*
X13339Y608822D01*
X13406Y608741D01*
X13683Y608456D01*
X13956Y608166D01*
X14034Y608094D01*
X14108Y608018D01*
X14407Y607756D01*
X14702Y607488D01*
X14785Y607423D01*
X14865Y607353D01*
X15185Y607115D01*
X15499Y606872D01*
X15588Y606814D01*
X15673Y606750D01*
X16010Y606538D01*
X16343Y606321D01*
X16436Y606270D01*
X16526Y606213D01*
X16878Y606029D01*
X17227Y605838D01*
X17324Y605795D01*
X17418Y605746D01*
X17785Y605589D01*
X18148Y605427D01*
X18247Y605392D01*
X18345Y605350D01*
X18723Y605224D01*
X19097Y605091D01*
X19200Y605064D01*
X19301Y605030D01*
X19688Y604933D01*
X20071Y604831D01*
X20175Y604812D01*
X20278Y604786D01*
X20672Y604720D01*
X21062Y604649D01*
X21168Y604638D01*
X21272Y604620D01*
X21669Y604586D01*
X22065Y604546D01*
X22171Y604543D01*
X22277Y604534D01*
X22860Y604521D01*
X802640Y604521D01*
X802746Y604525D01*
G37*
%LPC*%
G36*
X322267Y313643D02*
X322267Y313643D01*
X322128Y313792D01*
X321907Y313996D01*
X321693Y314206D01*
X321536Y314337D01*
X321387Y314475D01*
X321151Y314660D01*
X320920Y314853D01*
X320754Y314971D01*
X320594Y315097D01*
X320344Y315262D01*
X320098Y315437D01*
X319923Y315541D01*
X319754Y315654D01*
X319491Y315799D01*
X319233Y315953D01*
X319051Y316043D01*
X318873Y316142D01*
X318599Y316267D01*
X318330Y316400D01*
X318140Y316475D01*
X317955Y316559D01*
X317673Y316662D01*
X317393Y316773D01*
X317199Y316833D01*
X317106Y316867D01*
X313904Y318716D01*
X311350Y321270D01*
X309035Y325279D01*
X308942Y325476D01*
X308881Y325583D01*
X308826Y325693D01*
X308630Y326020D01*
X308441Y326351D01*
X308372Y326452D01*
X308309Y326558D01*
X308087Y326869D01*
X307873Y327183D01*
X307796Y327278D01*
X307724Y327379D01*
X307479Y327671D01*
X307240Y327967D01*
X307155Y328056D01*
X307076Y328151D01*
X306809Y328422D01*
X306547Y328699D01*
X306456Y328781D01*
X306369Y328869D01*
X306082Y329118D01*
X305798Y329373D01*
X305700Y329448D01*
X305608Y329528D01*
X305301Y329754D01*
X304998Y329986D01*
X304895Y330053D01*
X304796Y330126D01*
X304472Y330327D01*
X304152Y330534D01*
X304044Y330592D01*
X303940Y330657D01*
X303601Y330832D01*
X303265Y331013D01*
X303153Y331062D01*
X303044Y331118D01*
X302692Y331266D01*
X302344Y331420D01*
X302228Y331460D01*
X302114Y331508D01*
X301752Y331626D01*
X301392Y331752D01*
X301274Y331783D01*
X301157Y331822D01*
X300786Y331911D01*
X300418Y332008D01*
X300297Y332030D01*
X300177Y332059D01*
X299801Y332119D01*
X299426Y332186D01*
X299303Y332198D01*
X299182Y332218D01*
X298803Y332248D01*
X298423Y332285D01*
X298300Y332287D01*
X298178Y332297D01*
X297796Y332297D01*
X297415Y332304D01*
X297293Y332297D01*
X297170Y332296D01*
X296789Y332266D01*
X296409Y332243D01*
X296288Y332226D01*
X296165Y332216D01*
X295789Y332156D01*
X295411Y332102D01*
X295291Y332076D01*
X295170Y332056D01*
X294801Y331966D01*
X294428Y331883D01*
X294310Y331847D01*
X294191Y331818D01*
X293829Y331699D01*
X293465Y331587D01*
X293351Y331541D01*
X293234Y331503D01*
X292882Y331355D01*
X292528Y331215D01*
X292418Y331160D01*
X292305Y331113D01*
X291967Y330938D01*
X291624Y330770D01*
X291518Y330707D01*
X291409Y330650D01*
X291086Y330449D01*
X290758Y330254D01*
X290658Y330183D01*
X290553Y330118D01*
X290247Y329892D01*
X289936Y329672D01*
X289841Y329593D01*
X289813Y329572D01*
X289813Y345059D01*
X290075Y344846D01*
X290175Y344778D01*
X290270Y344703D01*
X290590Y344492D01*
X290906Y344275D01*
X291010Y344215D01*
X291111Y344148D01*
X291447Y343963D01*
X291779Y343772D01*
X291888Y343720D01*
X291994Y343662D01*
X292342Y343504D01*
X292689Y343339D01*
X292802Y343296D01*
X292912Y343246D01*
X293272Y343117D01*
X293631Y342980D01*
X293747Y342946D01*
X293860Y342905D01*
X294230Y342805D01*
X294598Y342697D01*
X294716Y342672D01*
X294833Y342641D01*
X295209Y342570D01*
X295584Y342491D01*
X295704Y342476D01*
X295823Y342454D01*
X296204Y342413D01*
X296584Y342365D01*
X296705Y342359D01*
X296825Y342346D01*
X297208Y342336D01*
X297591Y342318D01*
X297712Y342322D01*
X297832Y342318D01*
X298215Y342338D01*
X298598Y342350D01*
X298718Y342364D01*
X298839Y342370D01*
X299218Y342420D01*
X299599Y342463D01*
X299718Y342486D01*
X299838Y342502D01*
X300212Y342582D01*
X300589Y342655D01*
X300705Y342687D01*
X300823Y342712D01*
X301190Y342822D01*
X301560Y342924D01*
X301674Y342966D01*
X301789Y343000D01*
X302146Y343138D01*
X302506Y343270D01*
X302616Y343320D01*
X302729Y343364D01*
X303074Y343530D01*
X303422Y343690D01*
X303528Y343749D01*
X303637Y343801D01*
X303968Y343994D01*
X304303Y344181D01*
X304403Y344248D01*
X304508Y344309D01*
X304822Y344527D01*
X305141Y344740D01*
X305236Y344815D01*
X305335Y344884D01*
X305631Y345126D01*
X305932Y345364D01*
X306021Y345446D01*
X306114Y345523D01*
X306390Y345788D01*
X306672Y346048D01*
X306753Y346137D01*
X306841Y346221D01*
X307096Y346509D01*
X307354Y346790D01*
X307429Y346884D01*
X307509Y346975D01*
X307740Y347282D01*
X307976Y347583D01*
X308043Y347683D01*
X308116Y347780D01*
X308322Y348103D01*
X308533Y348422D01*
X308592Y348528D01*
X308657Y348630D01*
X308836Y348969D01*
X309022Y349304D01*
X309062Y349391D01*
X311350Y353354D01*
X313904Y355908D01*
X317032Y357714D01*
X320520Y358649D01*
X324132Y358649D01*
X327620Y357714D01*
X330748Y355908D01*
X333302Y353354D01*
X335108Y350226D01*
X336043Y346738D01*
X336043Y327886D01*
X335108Y324398D01*
X333302Y321270D01*
X330748Y318716D01*
X327526Y316856D01*
X327242Y316767D01*
X327053Y316692D01*
X326861Y316625D01*
X326586Y316505D01*
X326307Y316393D01*
X326124Y316302D01*
X325938Y316221D01*
X325673Y316079D01*
X325404Y315945D01*
X325229Y315841D01*
X325050Y315744D01*
X324797Y315582D01*
X324539Y315427D01*
X324373Y315309D01*
X324202Y315199D01*
X323963Y315017D01*
X323718Y314843D01*
X323562Y314712D01*
X323401Y314588D01*
X323177Y314388D01*
X322947Y314195D01*
X322802Y314052D01*
X322650Y313916D01*
X322442Y313698D01*
X322326Y313584D01*
X322267Y313643D01*
G37*
%LPD*%
D10*
X551180Y307340D02*
X551180Y322580D01*
X576580Y322580D02*
X576580Y307340D01*
X601980Y307340D02*
X601980Y322580D01*
X627380Y322580D02*
X627380Y307340D01*
X652780Y307340D02*
X652780Y322580D01*
X678180Y322580D02*
X678180Y307340D01*
X703580Y307340D02*
X703580Y322580D01*
X728980Y322580D02*
X728980Y307340D01*
X754380Y307340D02*
X754380Y322580D01*
D11*
X779780Y252222D02*
X779780Y235458D01*
X754380Y235458D02*
X754380Y252222D01*
X728980Y252222D02*
X728980Y235458D01*
X703580Y235458D02*
X703580Y252222D01*
X678180Y252222D02*
X678180Y235458D01*
X652780Y235458D02*
X652780Y252222D01*
X627380Y252222D02*
X627380Y235458D01*
X601980Y235458D02*
X601980Y252222D01*
X576580Y252222D02*
X576580Y235458D01*
X551180Y235458D02*
X551180Y252222D01*
X525780Y252222D02*
X525780Y235458D01*
X500380Y235458D02*
X500380Y252222D01*
X779780Y99822D02*
X779780Y83058D01*
X754380Y83058D02*
X754380Y99822D01*
X728980Y99822D02*
X728980Y83058D01*
X703580Y83058D02*
X703580Y99822D01*
X678180Y99822D02*
X678180Y83058D01*
X652780Y83058D02*
X652780Y99822D01*
X601980Y99822D02*
X601980Y83058D01*
X576580Y83058D02*
X576580Y99822D01*
X525780Y99822D02*
X525780Y83058D01*
X500380Y83058D02*
X500380Y99822D01*
X551180Y99822D02*
X551180Y83058D01*
X627380Y83058D02*
X627380Y99822D01*
X474980Y235458D02*
X474980Y252222D01*
X449580Y252222D02*
X449580Y235458D01*
X424180Y235458D02*
X424180Y252222D01*
X474980Y99822D02*
X474980Y83058D01*
X449580Y83058D02*
X449580Y99822D01*
X424180Y99822D02*
X424180Y83058D01*
D12*
X226060Y432700D02*
X226060Y446780D01*
X251460Y446780D02*
X251460Y432700D01*
X276860Y432700D02*
X276860Y446780D01*
X302260Y446780D02*
X302260Y432700D01*
X327660Y432700D02*
X327660Y446780D01*
D10*
X942340Y170180D02*
X957580Y170180D01*
X957580Y144780D02*
X942340Y144780D01*
X942340Y119380D02*
X957580Y119380D01*
D13*
X881380Y142240D03*
D14*
X881380Y116840D03*
D10*
X942340Y231140D02*
X957580Y231140D01*
X957580Y256540D02*
X942340Y256540D01*
X574548Y700786D02*
X559308Y700786D01*
X559308Y655574D02*
X574548Y655574D01*
X624332Y700786D02*
X639572Y700786D01*
X639572Y655574D02*
X624332Y655574D01*
X342392Y658114D02*
X327152Y658114D01*
X327152Y703326D02*
X342392Y703326D01*
X277368Y658114D02*
X262128Y658114D01*
X262128Y703326D02*
X277368Y703326D01*
X322326Y279908D02*
X322326Y264668D01*
X277114Y264668D02*
X277114Y279908D01*
X322326Y329692D02*
X322326Y344932D01*
X277114Y344932D02*
X277114Y329692D01*
D15*
X947420Y116840D02*
X949960Y119380D01*
X947420Y116840D02*
X881380Y116840D01*
X881380Y73660D01*
X861060Y53340D01*
D16*
X226060Y449580D03*
D15*
X627380Y314960D02*
X627380Y281940D01*
X797560Y281940D02*
X815340Y264160D01*
X815340Y231140D01*
X795020Y210820D02*
X703580Y210820D01*
D17*
X703580Y210820D03*
X703580Y137160D03*
D15*
X703580Y91440D01*
X795020Y210820D02*
X815340Y231140D01*
X703580Y91440D02*
X703580Y63500D01*
X713740Y53340D02*
X861060Y53340D01*
X713740Y53340D02*
X703580Y63500D01*
X226060Y411480D02*
X226060Y449580D01*
X241300Y396240D02*
X401320Y396240D01*
X426720Y370840D01*
X426720Y281940D01*
D17*
X426720Y281940D03*
X497840Y281940D03*
D15*
X627380Y281940D01*
X241300Y396240D02*
X226060Y411480D01*
X627380Y281940D02*
X797560Y281940D01*
X947420Y142240D02*
X949960Y144780D01*
X947420Y142240D02*
X881380Y142240D01*
X894080Y256540D02*
X949960Y256540D01*
X881380Y243840D02*
X881380Y142240D01*
X889000Y251460D02*
X894080Y256540D01*
X889000Y251460D02*
X881380Y243840D01*
X779780Y142240D02*
X754380Y116840D01*
X754380Y91440D01*
X779780Y142240D02*
X881380Y142240D01*
D16*
X251460Y447040D03*
D15*
X251460Y513080D01*
X650240Y513080D01*
X889000Y513080D01*
X889000Y251460D01*
X652780Y314960D02*
X652780Y510540D01*
X650240Y513080D01*
X277114Y272288D02*
X223012Y272288D01*
X200660Y294640D01*
X200660Y500380D01*
X213360Y513080D02*
X231140Y513080D01*
X251460Y513080D01*
X213360Y513080D02*
X200660Y500380D01*
X566928Y655574D02*
X631952Y655574D01*
X334772Y703326D02*
X269748Y703326D01*
X334772Y703326D02*
X360934Y703326D01*
X566674Y655320D02*
X566928Y655574D01*
X408940Y655320D02*
X360934Y703326D01*
X408940Y655320D02*
X566674Y655320D01*
X272717Y700357D02*
X269748Y703326D01*
X272717Y700357D02*
X273588Y700357D01*
D16*
X273588Y700357D03*
X231140Y513080D03*
D15*
X627380Y114300D02*
X627380Y91440D01*
X627380Y114300D02*
X681736Y168656D01*
X828040Y168656D02*
X863600Y204216D01*
X863600Y342900D01*
X835660Y370840D01*
X754380Y370840D01*
X728980Y345440D01*
X728980Y314960D01*
X681736Y168656D02*
X828040Y168656D01*
X601980Y116840D02*
X601980Y91440D01*
X812800Y187960D02*
X840740Y215900D01*
X840740Y325120D01*
X820420Y345440D01*
X762000Y345440D01*
X754380Y337820D02*
X754380Y314960D01*
X673100Y187960D02*
X601980Y116840D01*
X673100Y187960D02*
X812800Y187960D01*
X754380Y337820D02*
X762000Y345440D01*
X474980Y243840D02*
X474980Y459740D01*
X441960Y492760D02*
X284480Y492760D01*
X441960Y492760D02*
X474980Y459740D01*
D16*
X276860Y444500D03*
D15*
X276860Y485140D01*
X284480Y492760D01*
D16*
X302260Y447040D03*
D15*
X312420Y472440D02*
X429260Y472440D01*
X312420Y472440D02*
X302260Y462280D01*
X302260Y447040D01*
X429260Y472440D02*
X449580Y452120D01*
X449580Y243840D01*
X927100Y231140D02*
X949960Y231140D01*
X927100Y231140D02*
X919480Y223520D01*
X919480Y177800D01*
X927100Y170180D02*
X949960Y170180D01*
X927100Y170180D02*
X919480Y177800D01*
X627380Y177800D02*
X627380Y243840D01*
X627380Y177800D02*
X607060Y157480D01*
D18*
X101600Y233680D02*
X101600Y579120D01*
D15*
X177800Y157480D02*
X607060Y157480D01*
X177800Y157480D02*
X139700Y195580D01*
D19*
X101600Y579120D03*
X22860Y698500D03*
D15*
X566928Y700786D02*
X631952Y700786D01*
X566928Y700786D02*
X563626Y700786D01*
X561340Y698500D01*
X564642Y698500D01*
X566928Y700786D01*
X414274Y700786D01*
X407670Y707390D01*
X365760Y739140D02*
X360680Y739140D01*
D18*
X101600Y233680D02*
X139700Y195580D01*
X22860Y698500D02*
X22860Y713740D01*
X48260Y739140D01*
X360680Y739140D01*
X365760Y739140D02*
X375920Y739140D01*
X407670Y707390D01*
X560324Y707390D01*
X566928Y700786D01*
D15*
X601980Y243840D02*
X601980Y198120D01*
X586740Y182880D01*
X200660Y182880D01*
X168910Y214630D01*
D19*
X149860Y579120D03*
D15*
X149860Y233680D02*
X154940Y228600D01*
D19*
X22860Y657860D03*
D18*
X149860Y579120D02*
X149860Y233680D01*
X269494Y657860D02*
X22860Y657860D01*
D15*
X269494Y657860D02*
X269748Y658114D01*
X334772Y658114D01*
D18*
X154940Y228600D02*
X168910Y214630D01*
D15*
X322326Y233934D02*
X322326Y272288D01*
X347980Y208280D02*
X566420Y208280D01*
X576580Y218440D02*
X576580Y243840D01*
X576580Y218440D02*
X566420Y208280D01*
X347980Y208280D02*
X322326Y233934D01*
M02*
