M48
;GenerationSoftware,Autodesk,EAGLE,9.5.0*%
;CreationDate,2020-11-06T09:29:15Z*%
FMAT,2
ICI,OFF
METRIC,TZ,000.000
T5C0.350
T4C0.813
T3C0.900
T2C1.000
T1C1.016
%
G90
M71
T1
X65278Y31496
X57658Y31496
X60198Y31496
X62738Y31496
X94996Y17018
X94996Y25654
X94996Y23114
X94996Y11938
X94996Y14478
X63195Y70079
X67818Y31496
X70358Y31496
X72898Y31496
X75438Y31496
X55118Y31496
X56693Y70079
X56693Y65557
X63195Y65557
X33477Y65811
X33477Y70333
X26975Y65811
X26975Y70333
X32233Y27229
X27711Y27229
X32233Y33731
X27711Y33731
T2
X70358Y24384
X67818Y24384
X65278Y24384
X62738Y24384
X60198Y24384
X57658Y24384
X55118Y24384
X52578Y24384
X50038Y24384
X77978Y9144
X75438Y9144
X72898Y9144
X70358Y9144
X67818Y9144
X65278Y9144
X60198Y9144
X57658Y9144
X52578Y9144
X50038Y9144
X55118Y9144
X62738Y9144
X47498Y24384
X44958Y24384
X42418Y24384
X47498Y9144
X44958Y9144
X42418Y9144
X70358Y21082
X70358Y13716
X42672Y28194
X49784Y28194
X10160Y57912
X2286Y69850
X14986Y57912
X2286Y65786
X77978Y24384
X75438Y24384
X72898Y24384
T3
X22606Y43974
X25146Y43974
X27686Y43974
X30226Y43974
X32766Y43974
T4
X88138Y14224
X88138Y11684
T5
X25146Y44704
X22606Y44958
X30226Y44704
X27686Y44450
X23114Y51308
X27359Y70036
M30