G04 EAGLE Gerber RS-274X export*
G75*
%MOMM*%
%FSLAX34Y34*%
%LPD*%
%INBottom Copper*%
%IPPOS*%
%AMOC8*
5,1,8,0,0,1.08239X$1,22.5*%
G01*
%ADD10C,2.540000*%
%ADD11P,2.749271X8X292.500000*%
%ADD12C,1.524000*%
%ADD13C,1.320800*%
%ADD14C,1.508000*%
%ADD15P,2.364373X8X22.500000*%
%ADD16C,1.270000*%

G36*
X151969Y10173D02*
X151969Y10173D01*
X152043Y10175D01*
X152089Y10192D01*
X152138Y10200D01*
X152202Y10235D01*
X152271Y10261D01*
X152309Y10292D01*
X152353Y10315D01*
X152403Y10369D01*
X152460Y10416D01*
X152486Y10457D01*
X152520Y10493D01*
X152550Y10560D01*
X152589Y10623D01*
X152600Y10671D01*
X152620Y10716D01*
X152628Y10789D01*
X152644Y10860D01*
X152640Y10909D01*
X152644Y10959D01*
X152628Y11030D01*
X152621Y11103D01*
X152600Y11148D01*
X152589Y11196D01*
X152550Y11259D01*
X152520Y11326D01*
X152474Y11382D01*
X152461Y11404D01*
X152448Y11414D01*
X152427Y11440D01*
X144779Y19087D01*
X144779Y23901D01*
X159270Y23901D01*
X159294Y23905D01*
X159318Y23902D01*
X159414Y23925D01*
X159511Y23940D01*
X159532Y23952D01*
X159556Y23958D01*
X159639Y24009D01*
X159726Y24055D01*
X159743Y24073D01*
X159763Y24086D01*
X159826Y24162D01*
X159893Y24234D01*
X159903Y24256D01*
X159918Y24275D01*
X159953Y24366D01*
X159993Y24456D01*
X159996Y24480D01*
X160005Y24503D01*
X160019Y24650D01*
X160019Y25401D01*
X160021Y25401D01*
X160021Y24650D01*
X160025Y24626D01*
X160022Y24601D01*
X160045Y24506D01*
X160061Y24409D01*
X160072Y24388D01*
X160078Y24364D01*
X160129Y24280D01*
X160176Y24194D01*
X160193Y24177D01*
X160206Y24156D01*
X160282Y24094D01*
X160354Y24027D01*
X160376Y24017D01*
X160395Y24002D01*
X160487Y23967D01*
X160576Y23926D01*
X160600Y23924D01*
X160623Y23915D01*
X160770Y23901D01*
X175261Y23901D01*
X175261Y19087D01*
X167613Y11440D01*
X167571Y11380D01*
X167520Y11326D01*
X167500Y11282D01*
X167471Y11241D01*
X167450Y11171D01*
X167420Y11104D01*
X167415Y11055D01*
X167400Y11008D01*
X167403Y10935D01*
X167396Y10861D01*
X167407Y10813D01*
X167408Y10764D01*
X167434Y10695D01*
X167451Y10624D01*
X167477Y10582D01*
X167494Y10536D01*
X167541Y10479D01*
X167579Y10416D01*
X167618Y10385D01*
X167649Y10347D01*
X167711Y10308D01*
X167768Y10261D01*
X167814Y10244D01*
X167856Y10218D01*
X167928Y10201D01*
X167996Y10175D01*
X168069Y10168D01*
X168094Y10162D01*
X168110Y10164D01*
X168143Y10161D01*
X632460Y10161D01*
X632484Y10165D01*
X632509Y10162D01*
X632604Y10184D01*
X632701Y10200D01*
X632722Y10212D01*
X632746Y10218D01*
X632830Y10269D01*
X632916Y10315D01*
X632933Y10333D01*
X632954Y10346D01*
X633016Y10422D01*
X633083Y10493D01*
X633093Y10516D01*
X633109Y10535D01*
X633143Y10626D01*
X633184Y10716D01*
X633186Y10740D01*
X633195Y10763D01*
X633209Y10910D01*
X633209Y223520D01*
X633205Y223544D01*
X633208Y223569D01*
X633186Y223664D01*
X633170Y223761D01*
X633158Y223782D01*
X633152Y223806D01*
X633101Y223890D01*
X633055Y223976D01*
X633037Y223993D01*
X633024Y224014D01*
X632948Y224076D01*
X632877Y224143D01*
X632854Y224153D01*
X632835Y224169D01*
X632744Y224203D01*
X632654Y224244D01*
X632630Y224246D01*
X632607Y224255D01*
X632460Y224269D01*
X366642Y224269D01*
X366569Y224257D01*
X366496Y224255D01*
X366450Y224238D01*
X366401Y224230D01*
X366336Y224195D01*
X366268Y224169D01*
X366229Y224138D01*
X366186Y224115D01*
X366136Y224061D01*
X366079Y224014D01*
X366053Y223972D01*
X366019Y223937D01*
X365989Y223870D01*
X365950Y223807D01*
X365939Y223759D01*
X365918Y223714D01*
X365911Y223641D01*
X365894Y223570D01*
X365899Y223521D01*
X365894Y223471D01*
X365911Y223400D01*
X365918Y223327D01*
X365938Y223282D01*
X365949Y223234D01*
X365988Y223171D01*
X366018Y223104D01*
X366065Y223048D01*
X366078Y223026D01*
X366091Y223016D01*
X366112Y222990D01*
X381392Y207710D01*
X383287Y203136D01*
X383287Y176124D01*
X383299Y176051D01*
X383301Y175978D01*
X383322Y175907D01*
X383326Y175883D01*
X383334Y175868D01*
X383344Y175837D01*
X384557Y172908D01*
X384557Y152212D01*
X382469Y147170D01*
X378610Y143311D01*
X373568Y141223D01*
X368112Y141223D01*
X363070Y143311D01*
X359166Y147216D01*
X359106Y147259D01*
X359052Y147309D01*
X359008Y147329D01*
X358967Y147358D01*
X358897Y147379D01*
X358830Y147410D01*
X358781Y147415D01*
X358734Y147429D01*
X358661Y147426D01*
X358587Y147434D01*
X358539Y147423D01*
X358490Y147421D01*
X358421Y147395D01*
X358350Y147378D01*
X358308Y147352D01*
X358262Y147335D01*
X358205Y147289D01*
X358142Y147250D01*
X358111Y147212D01*
X358073Y147180D01*
X358034Y147118D01*
X357987Y147061D01*
X357970Y147015D01*
X357944Y146973D01*
X357927Y146902D01*
X357901Y146833D01*
X357894Y146760D01*
X357888Y146736D01*
X357890Y146719D01*
X357887Y146686D01*
X357887Y130036D01*
X357890Y130014D01*
X357888Y129992D01*
X357889Y129991D01*
X357888Y129987D01*
X357910Y129892D01*
X357926Y129795D01*
X357938Y129774D01*
X357944Y129750D01*
X357995Y129666D01*
X358041Y129580D01*
X358059Y129563D01*
X358072Y129542D01*
X358148Y129480D01*
X358219Y129413D01*
X358242Y129403D01*
X358261Y129387D01*
X358352Y129353D01*
X358442Y129312D01*
X358466Y129310D01*
X358489Y129301D01*
X358636Y129287D01*
X370514Y129287D01*
X370652Y129309D01*
X370755Y129326D01*
X370869Y129387D01*
X370970Y129441D01*
X371043Y129519D01*
X371137Y129619D01*
X371137Y129620D01*
X371207Y129749D01*
X372988Y134050D01*
X396810Y157872D01*
X401384Y159767D01*
X441210Y159767D01*
X441234Y159771D01*
X441259Y159768D01*
X441354Y159790D01*
X441451Y159806D01*
X441472Y159818D01*
X441496Y159824D01*
X441580Y159875D01*
X441666Y159921D01*
X441683Y159939D01*
X441704Y159952D01*
X441766Y160028D01*
X441833Y160099D01*
X441843Y160122D01*
X441859Y160141D01*
X441893Y160232D01*
X441934Y160322D01*
X441936Y160346D01*
X441945Y160369D01*
X441959Y160516D01*
X441959Y176770D01*
X443893Y181438D01*
X447466Y185011D01*
X452134Y186945D01*
X457186Y186945D01*
X461854Y185011D01*
X465427Y181438D01*
X466668Y178443D01*
X466707Y178381D01*
X466737Y178314D01*
X466771Y178278D01*
X466797Y178236D01*
X466853Y178189D01*
X466904Y178136D01*
X466947Y178113D01*
X466985Y178081D01*
X467054Y178055D01*
X467119Y178021D01*
X467167Y178013D01*
X467214Y177995D01*
X467287Y177993D01*
X467359Y177981D01*
X467408Y177989D01*
X467457Y177987D01*
X467528Y178008D01*
X467600Y178020D01*
X467644Y178044D01*
X467691Y178058D01*
X467751Y178101D01*
X467816Y178135D01*
X467849Y178171D01*
X467889Y178200D01*
X467932Y178259D01*
X467983Y178313D01*
X468017Y178378D01*
X468032Y178398D01*
X468037Y178414D01*
X468052Y178443D01*
X469293Y181438D01*
X472866Y185011D01*
X477534Y186945D01*
X482586Y186945D01*
X487254Y185011D01*
X490827Y181438D01*
X492068Y178443D01*
X492107Y178381D01*
X492137Y178314D01*
X492171Y178278D01*
X492197Y178236D01*
X492253Y178189D01*
X492304Y178136D01*
X492347Y178113D01*
X492385Y178081D01*
X492454Y178055D01*
X492519Y178021D01*
X492567Y178013D01*
X492614Y177995D01*
X492687Y177993D01*
X492759Y177981D01*
X492808Y177989D01*
X492857Y177987D01*
X492928Y178008D01*
X493000Y178020D01*
X493044Y178044D01*
X493091Y178058D01*
X493151Y178101D01*
X493216Y178135D01*
X493249Y178171D01*
X493289Y178200D01*
X493332Y178259D01*
X493383Y178313D01*
X493417Y178378D01*
X493432Y178398D01*
X493437Y178414D01*
X493452Y178443D01*
X494693Y181438D01*
X498266Y185011D01*
X502934Y186945D01*
X507986Y186945D01*
X512654Y185011D01*
X516227Y181438D01*
X517468Y178443D01*
X517507Y178381D01*
X517537Y178314D01*
X517571Y178278D01*
X517597Y178236D01*
X517653Y178189D01*
X517704Y178136D01*
X517747Y178113D01*
X517785Y178081D01*
X517854Y178055D01*
X517919Y178021D01*
X517967Y178013D01*
X518014Y177995D01*
X518087Y177993D01*
X518159Y177981D01*
X518208Y177989D01*
X518257Y177987D01*
X518328Y178008D01*
X518400Y178020D01*
X518444Y178044D01*
X518491Y178058D01*
X518551Y178101D01*
X518616Y178135D01*
X518649Y178171D01*
X518689Y178200D01*
X518732Y178259D01*
X518783Y178313D01*
X518817Y178378D01*
X518832Y178398D01*
X518837Y178414D01*
X518852Y178443D01*
X520093Y181438D01*
X523666Y185011D01*
X528334Y186945D01*
X533386Y186945D01*
X538054Y185011D01*
X541627Y181438D01*
X542868Y178443D01*
X542907Y178381D01*
X542937Y178314D01*
X542971Y178278D01*
X542997Y178236D01*
X543053Y178189D01*
X543104Y178136D01*
X543147Y178113D01*
X543185Y178081D01*
X543254Y178055D01*
X543319Y178021D01*
X543367Y178013D01*
X543414Y177995D01*
X543487Y177993D01*
X543559Y177981D01*
X543608Y177989D01*
X543657Y177987D01*
X543728Y178008D01*
X543800Y178020D01*
X543844Y178044D01*
X543891Y178058D01*
X543951Y178101D01*
X544016Y178135D01*
X544049Y178171D01*
X544089Y178200D01*
X544132Y178259D01*
X544183Y178313D01*
X544217Y178378D01*
X544232Y178398D01*
X544237Y178414D01*
X544252Y178443D01*
X545493Y181438D01*
X549066Y185011D01*
X553734Y186945D01*
X558786Y186945D01*
X563454Y185011D01*
X567027Y181438D01*
X568268Y178443D01*
X568307Y178381D01*
X568337Y178314D01*
X568371Y178278D01*
X568397Y178236D01*
X568453Y178189D01*
X568504Y178136D01*
X568547Y178113D01*
X568585Y178081D01*
X568654Y178055D01*
X568719Y178021D01*
X568767Y178013D01*
X568814Y177995D01*
X568887Y177993D01*
X568959Y177981D01*
X569008Y177989D01*
X569057Y177987D01*
X569128Y178008D01*
X569200Y178020D01*
X569244Y178044D01*
X569291Y178058D01*
X569351Y178101D01*
X569416Y178135D01*
X569449Y178171D01*
X569489Y178200D01*
X569532Y178259D01*
X569583Y178313D01*
X569617Y178378D01*
X569632Y178398D01*
X569637Y178414D01*
X569652Y178443D01*
X570893Y181438D01*
X574466Y185011D01*
X579134Y186945D01*
X584186Y186945D01*
X588854Y185011D01*
X592427Y181438D01*
X593668Y178443D01*
X593707Y178381D01*
X593737Y178314D01*
X593771Y178278D01*
X593797Y178236D01*
X593853Y178189D01*
X593904Y178136D01*
X593947Y178113D01*
X593985Y178081D01*
X594054Y178055D01*
X594119Y178021D01*
X594167Y178013D01*
X594214Y177995D01*
X594287Y177993D01*
X594359Y177981D01*
X594408Y177989D01*
X594457Y177987D01*
X594528Y178008D01*
X594600Y178020D01*
X594644Y178044D01*
X594691Y178058D01*
X594751Y178101D01*
X594816Y178135D01*
X594849Y178171D01*
X594889Y178200D01*
X594932Y178259D01*
X594983Y178313D01*
X595017Y178378D01*
X595032Y178398D01*
X595037Y178414D01*
X595052Y178443D01*
X596293Y181438D01*
X599866Y185011D01*
X604534Y186945D01*
X609586Y186945D01*
X614254Y185011D01*
X617827Y181438D01*
X619761Y176770D01*
X619761Y158510D01*
X617827Y153842D01*
X614254Y150269D01*
X609586Y148335D01*
X604534Y148335D01*
X599866Y150269D01*
X596293Y153842D01*
X595052Y156837D01*
X595013Y156899D01*
X594983Y156966D01*
X594949Y157002D01*
X594923Y157044D01*
X594867Y157091D01*
X594816Y157144D01*
X594773Y157167D01*
X594735Y157199D01*
X594666Y157225D01*
X594601Y157259D01*
X594553Y157267D01*
X594506Y157285D01*
X594433Y157287D01*
X594361Y157299D01*
X594312Y157291D01*
X594263Y157293D01*
X594192Y157272D01*
X594120Y157260D01*
X594076Y157237D01*
X594029Y157222D01*
X593969Y157179D01*
X593904Y157145D01*
X593871Y157109D01*
X593831Y157080D01*
X593788Y157021D01*
X593737Y156967D01*
X593703Y156902D01*
X593688Y156882D01*
X593683Y156866D01*
X593668Y156837D01*
X592427Y153842D01*
X588854Y150269D01*
X584186Y148335D01*
X579134Y148335D01*
X574466Y150269D01*
X570893Y153842D01*
X569652Y156837D01*
X569613Y156899D01*
X569583Y156966D01*
X569549Y157002D01*
X569523Y157044D01*
X569467Y157091D01*
X569416Y157144D01*
X569373Y157167D01*
X569335Y157199D01*
X569266Y157225D01*
X569201Y157259D01*
X569153Y157267D01*
X569106Y157285D01*
X569033Y157287D01*
X568961Y157299D01*
X568912Y157291D01*
X568863Y157293D01*
X568792Y157272D01*
X568720Y157260D01*
X568676Y157237D01*
X568629Y157222D01*
X568569Y157179D01*
X568504Y157145D01*
X568471Y157109D01*
X568431Y157080D01*
X568388Y157021D01*
X568337Y156967D01*
X568303Y156902D01*
X568288Y156882D01*
X568283Y156866D01*
X568268Y156837D01*
X567027Y153842D01*
X563454Y150269D01*
X558786Y148335D01*
X553734Y148335D01*
X549066Y150269D01*
X545493Y153842D01*
X544252Y156837D01*
X544213Y156899D01*
X544183Y156966D01*
X544149Y157002D01*
X544123Y157044D01*
X544067Y157091D01*
X544016Y157144D01*
X543973Y157167D01*
X543935Y157199D01*
X543866Y157225D01*
X543801Y157259D01*
X543753Y157267D01*
X543706Y157285D01*
X543633Y157287D01*
X543561Y157299D01*
X543512Y157291D01*
X543463Y157293D01*
X543392Y157272D01*
X543320Y157260D01*
X543276Y157237D01*
X543229Y157222D01*
X543169Y157179D01*
X543104Y157145D01*
X543071Y157109D01*
X543031Y157080D01*
X542988Y157021D01*
X542937Y156967D01*
X542903Y156902D01*
X542888Y156882D01*
X542883Y156866D01*
X542868Y156837D01*
X541627Y153842D01*
X538054Y150269D01*
X533386Y148335D01*
X528334Y148335D01*
X523666Y150269D01*
X520093Y153842D01*
X518852Y156837D01*
X518813Y156899D01*
X518783Y156966D01*
X518749Y157002D01*
X518723Y157044D01*
X518667Y157091D01*
X518616Y157144D01*
X518573Y157167D01*
X518535Y157199D01*
X518466Y157225D01*
X518401Y157259D01*
X518353Y157267D01*
X518306Y157285D01*
X518233Y157287D01*
X518161Y157299D01*
X518112Y157291D01*
X518063Y157293D01*
X517992Y157272D01*
X517920Y157260D01*
X517876Y157237D01*
X517829Y157222D01*
X517769Y157179D01*
X517704Y157145D01*
X517671Y157109D01*
X517631Y157080D01*
X517588Y157021D01*
X517537Y156967D01*
X517503Y156902D01*
X517488Y156882D01*
X517483Y156866D01*
X517468Y156837D01*
X516227Y153842D01*
X512654Y150269D01*
X507986Y148335D01*
X502934Y148335D01*
X498266Y150269D01*
X494693Y153842D01*
X493452Y156837D01*
X493413Y156899D01*
X493383Y156966D01*
X493349Y157002D01*
X493323Y157044D01*
X493267Y157091D01*
X493216Y157144D01*
X493173Y157167D01*
X493135Y157199D01*
X493066Y157225D01*
X493001Y157259D01*
X492953Y157267D01*
X492906Y157285D01*
X492833Y157287D01*
X492761Y157299D01*
X492712Y157291D01*
X492663Y157293D01*
X492592Y157272D01*
X492520Y157260D01*
X492476Y157237D01*
X492429Y157222D01*
X492369Y157179D01*
X492304Y157145D01*
X492271Y157109D01*
X492231Y157080D01*
X492188Y157021D01*
X492137Y156967D01*
X492103Y156902D01*
X492088Y156882D01*
X492083Y156866D01*
X492068Y156837D01*
X490827Y153842D01*
X487254Y150269D01*
X482586Y148335D01*
X477534Y148335D01*
X472866Y150269D01*
X469293Y153842D01*
X468548Y155639D01*
X468497Y155722D01*
X468451Y155809D01*
X468432Y155826D01*
X468419Y155847D01*
X468344Y155909D01*
X468272Y155975D01*
X468250Y155986D01*
X468231Y156001D01*
X468139Y156036D01*
X468050Y156076D01*
X468026Y156079D01*
X468002Y156087D01*
X467905Y156091D01*
X467807Y156100D01*
X467783Y156095D01*
X467759Y156095D01*
X467665Y156067D01*
X467570Y156045D01*
X467549Y156032D01*
X467525Y156025D01*
X467446Y155968D01*
X467362Y155916D01*
X467347Y155897D01*
X467327Y155883D01*
X467270Y155803D01*
X467207Y155728D01*
X467199Y155705D01*
X467184Y155685D01*
X467156Y155591D01*
X467121Y155500D01*
X467118Y155467D01*
X467113Y155451D01*
X467114Y155426D01*
X467107Y155353D01*
X467107Y149924D01*
X465212Y145350D01*
X456630Y136768D01*
X452056Y134873D01*
X409326Y134873D01*
X409230Y134857D01*
X409133Y134848D01*
X409110Y134838D01*
X409085Y134834D01*
X408999Y134788D01*
X408910Y134747D01*
X408885Y134726D01*
X408870Y134719D01*
X408853Y134700D01*
X408796Y134654D01*
X399825Y125683D01*
X399811Y125663D01*
X399792Y125647D01*
X399740Y125564D01*
X399683Y125484D01*
X399676Y125461D01*
X399663Y125440D01*
X399640Y125345D01*
X399612Y125251D01*
X399613Y125226D01*
X399607Y125203D01*
X399617Y125105D01*
X399620Y125007D01*
X399629Y124984D01*
X399631Y124960D01*
X399671Y124870D01*
X399706Y124779D01*
X399721Y124760D01*
X399731Y124737D01*
X399825Y124623D01*
X400559Y123889D01*
X400559Y109791D01*
X390589Y99821D01*
X376491Y99821D01*
X372138Y104174D01*
X372059Y104231D01*
X371984Y104293D01*
X371960Y104301D01*
X371940Y104316D01*
X371846Y104344D01*
X371755Y104379D01*
X371722Y104382D01*
X371706Y104387D01*
X371681Y104386D01*
X371608Y104393D01*
X358636Y104393D01*
X358612Y104389D01*
X358587Y104392D01*
X358492Y104370D01*
X358395Y104354D01*
X358374Y104342D01*
X358350Y104336D01*
X358266Y104285D01*
X358180Y104239D01*
X358163Y104221D01*
X358142Y104208D01*
X358080Y104132D01*
X358013Y104061D01*
X358003Y104038D01*
X357987Y104019D01*
X357953Y103928D01*
X357912Y103838D01*
X357910Y103814D01*
X357901Y103791D01*
X357887Y103644D01*
X357887Y84206D01*
X357903Y84110D01*
X357912Y84013D01*
X357922Y83990D01*
X357926Y83965D01*
X357972Y83879D01*
X358013Y83790D01*
X358034Y83765D01*
X358041Y83750D01*
X358060Y83733D01*
X358106Y83676D01*
X377126Y64656D01*
X377206Y64599D01*
X377281Y64537D01*
X377304Y64529D01*
X377324Y64514D01*
X377418Y64486D01*
X377509Y64451D01*
X377542Y64448D01*
X377558Y64443D01*
X377583Y64444D01*
X377656Y64437D01*
X396333Y64437D01*
X401345Y62361D01*
X405181Y58525D01*
X407257Y53513D01*
X407257Y48087D01*
X405181Y43075D01*
X401345Y39239D01*
X396333Y37163D01*
X375827Y37163D01*
X373092Y38296D01*
X373021Y38313D01*
X372952Y38339D01*
X372879Y38346D01*
X372855Y38352D01*
X372838Y38350D01*
X372806Y38353D01*
X370904Y38353D01*
X366330Y40248D01*
X340504Y66074D01*
X340424Y66131D01*
X340349Y66193D01*
X340326Y66201D01*
X340306Y66216D01*
X340212Y66244D01*
X340121Y66279D01*
X340088Y66282D01*
X340072Y66287D01*
X340047Y66286D01*
X339974Y66293D01*
X288766Y66293D01*
X288670Y66277D01*
X288573Y66268D01*
X288550Y66258D01*
X288525Y66254D01*
X288439Y66208D01*
X288351Y66167D01*
X288325Y66146D01*
X288310Y66139D01*
X288293Y66120D01*
X288236Y66074D01*
X284967Y62805D01*
X278059Y59943D01*
X270581Y59943D01*
X263673Y62805D01*
X258385Y68093D01*
X255523Y75001D01*
X255523Y82479D01*
X258385Y89387D01*
X263673Y94675D01*
X270581Y97537D01*
X278059Y97537D01*
X280987Y96324D01*
X281059Y96307D01*
X281127Y96281D01*
X281201Y96274D01*
X281225Y96268D01*
X281241Y96270D01*
X281274Y96267D01*
X281876Y96267D01*
X286450Y94372D01*
X289416Y91406D01*
X289496Y91349D01*
X289571Y91287D01*
X289594Y91279D01*
X289614Y91264D01*
X289708Y91236D01*
X289799Y91201D01*
X289832Y91198D01*
X289848Y91193D01*
X289873Y91194D01*
X289946Y91187D01*
X332244Y91187D01*
X332268Y91191D01*
X332293Y91188D01*
X332388Y91210D01*
X332485Y91226D01*
X332506Y91238D01*
X332530Y91244D01*
X332614Y91295D01*
X332700Y91341D01*
X332717Y91359D01*
X332738Y91372D01*
X332800Y91448D01*
X332867Y91519D01*
X332877Y91542D01*
X332893Y91561D01*
X332927Y91652D01*
X332968Y91742D01*
X332970Y91766D01*
X332979Y91789D01*
X332993Y91936D01*
X332993Y116900D01*
X332977Y116997D01*
X332968Y117094D01*
X332958Y117117D01*
X332954Y117141D01*
X332907Y117227D01*
X332867Y117316D01*
X332850Y117334D01*
X332839Y117356D01*
X332767Y117423D01*
X332700Y117495D01*
X332679Y117506D01*
X332661Y117523D01*
X332572Y117564D01*
X332485Y117610D01*
X332461Y117614D01*
X332438Y117624D01*
X332341Y117634D01*
X332245Y117650D01*
X332220Y117646D01*
X332195Y117648D01*
X332100Y117626D01*
X332004Y117610D01*
X331982Y117598D01*
X331958Y117593D01*
X331875Y117541D01*
X331788Y117495D01*
X331772Y117477D01*
X331750Y117464D01*
X331688Y117389D01*
X331621Y117317D01*
X331606Y117288D01*
X331596Y117276D01*
X331587Y117252D01*
X331552Y117187D01*
X330592Y114870D01*
X326985Y111263D01*
X322010Y106288D01*
X317436Y104393D01*
X293872Y104393D01*
X293775Y104377D01*
X293679Y104368D01*
X293656Y104358D01*
X293631Y104354D01*
X293545Y104308D01*
X293456Y104267D01*
X293431Y104246D01*
X293416Y104239D01*
X293399Y104220D01*
X293342Y104174D01*
X288989Y99821D01*
X274891Y99821D01*
X270538Y104174D01*
X270459Y104231D01*
X270384Y104293D01*
X270360Y104301D01*
X270340Y104316D01*
X270246Y104344D01*
X270155Y104379D01*
X270122Y104382D01*
X270106Y104387D01*
X270081Y104386D01*
X270008Y104393D01*
X264224Y104393D01*
X259650Y106288D01*
X243448Y122490D01*
X241553Y127064D01*
X241553Y148996D01*
X241541Y149069D01*
X241539Y149142D01*
X241518Y149213D01*
X241514Y149237D01*
X241506Y149252D01*
X241496Y149283D01*
X240283Y152212D01*
X240283Y172908D01*
X240386Y173157D01*
X240409Y173253D01*
X240442Y173394D01*
X240442Y173395D01*
X240430Y173513D01*
X240418Y173637D01*
X240418Y173638D01*
X240368Y173749D01*
X240318Y173860D01*
X240317Y173860D01*
X240224Y173974D01*
X238904Y175294D01*
X238825Y175351D01*
X238749Y175413D01*
X238726Y175421D01*
X238706Y175436D01*
X238612Y175464D01*
X238521Y175499D01*
X238488Y175502D01*
X238472Y175507D01*
X238447Y175506D01*
X238374Y175513D01*
X216764Y175513D01*
X216691Y175501D01*
X216618Y175499D01*
X216547Y175478D01*
X216523Y175474D01*
X216508Y175466D01*
X216477Y175456D01*
X213548Y174243D01*
X192852Y174243D01*
X187810Y176331D01*
X183951Y180190D01*
X181863Y185232D01*
X181863Y187852D01*
X181851Y187925D01*
X181849Y187998D01*
X181832Y188044D01*
X181824Y188093D01*
X181789Y188158D01*
X181763Y188226D01*
X181732Y188265D01*
X181709Y188308D01*
X181655Y188358D01*
X181608Y188415D01*
X181567Y188441D01*
X181531Y188475D01*
X181464Y188505D01*
X181401Y188544D01*
X181353Y188555D01*
X181308Y188576D01*
X181235Y188583D01*
X181164Y188600D01*
X181115Y188595D01*
X181065Y188600D01*
X180994Y188583D01*
X180921Y188576D01*
X180876Y188556D01*
X180828Y188545D01*
X180765Y188506D01*
X180698Y188476D01*
X180642Y188429D01*
X180620Y188416D01*
X180610Y188403D01*
X180584Y188382D01*
X172686Y180484D01*
X172629Y180404D01*
X172567Y180329D01*
X172559Y180306D01*
X172544Y180286D01*
X172516Y180192D01*
X172481Y180101D01*
X172478Y180068D01*
X172473Y180052D01*
X172474Y180027D01*
X172467Y179954D01*
X172467Y90646D01*
X172483Y90550D01*
X172492Y90453D01*
X172502Y90430D01*
X172506Y90405D01*
X172552Y90319D01*
X172593Y90231D01*
X172614Y90205D01*
X172621Y90190D01*
X172640Y90173D01*
X172686Y90116D01*
X175955Y86847D01*
X178817Y79939D01*
X178817Y72461D01*
X175955Y65553D01*
X170667Y60265D01*
X163759Y57403D01*
X156281Y57403D01*
X149373Y60265D01*
X144085Y65553D01*
X141223Y72461D01*
X141223Y79939D01*
X144085Y86847D01*
X147354Y90116D01*
X147411Y90196D01*
X147473Y90271D01*
X147481Y90294D01*
X147496Y90315D01*
X147524Y90408D01*
X147559Y90499D01*
X147562Y90532D01*
X147567Y90548D01*
X147566Y90573D01*
X147573Y90646D01*
X147573Y156984D01*
X147569Y157008D01*
X147572Y157033D01*
X147550Y157128D01*
X147534Y157225D01*
X147522Y157246D01*
X147516Y157270D01*
X147465Y157354D01*
X147419Y157440D01*
X147401Y157457D01*
X147388Y157478D01*
X147312Y157540D01*
X147241Y157607D01*
X147218Y157617D01*
X147199Y157633D01*
X147108Y157667D01*
X147018Y157708D01*
X146994Y157710D01*
X146971Y157719D01*
X146824Y157733D01*
X135194Y157733D01*
X135122Y157721D01*
X135049Y157719D01*
X134978Y157698D01*
X134954Y157694D01*
X134939Y157686D01*
X134908Y157676D01*
X132173Y156543D01*
X111667Y156543D01*
X106655Y158619D01*
X102819Y162455D01*
X100743Y167467D01*
X100743Y172893D01*
X102819Y177905D01*
X106655Y181741D01*
X111667Y183817D01*
X132173Y183817D01*
X134908Y182684D01*
X134979Y182667D01*
X135047Y182641D01*
X135121Y182634D01*
X135145Y182628D01*
X135162Y182630D01*
X135194Y182627D01*
X146824Y182627D01*
X146848Y182631D01*
X146873Y182628D01*
X146968Y182650D01*
X147065Y182666D01*
X147086Y182678D01*
X147110Y182684D01*
X147194Y182735D01*
X147280Y182781D01*
X147297Y182799D01*
X147318Y182812D01*
X147380Y182888D01*
X147447Y182959D01*
X147457Y182982D01*
X147473Y183001D01*
X147507Y183092D01*
X147548Y183182D01*
X147550Y183206D01*
X147559Y183229D01*
X147573Y183376D01*
X147573Y187896D01*
X149468Y192470D01*
X179988Y222990D01*
X180031Y223050D01*
X180081Y223104D01*
X180101Y223148D01*
X180130Y223189D01*
X180151Y223259D01*
X180182Y223326D01*
X180187Y223375D01*
X180201Y223422D01*
X180199Y223495D01*
X180206Y223569D01*
X180195Y223617D01*
X180193Y223666D01*
X180167Y223735D01*
X180151Y223806D01*
X180124Y223848D01*
X180107Y223894D01*
X180061Y223951D01*
X180022Y224014D01*
X179984Y224045D01*
X179952Y224083D01*
X179890Y224122D01*
X179833Y224169D01*
X179787Y224186D01*
X179745Y224212D01*
X179674Y224229D01*
X179605Y224255D01*
X179532Y224262D01*
X179508Y224268D01*
X179491Y224266D01*
X179458Y224269D01*
X83820Y224269D01*
X83796Y224265D01*
X83771Y224268D01*
X83676Y224246D01*
X83579Y224230D01*
X83558Y224218D01*
X83534Y224212D01*
X83450Y224161D01*
X83364Y224115D01*
X83347Y224097D01*
X83326Y224084D01*
X83264Y224008D01*
X83197Y223937D01*
X83187Y223914D01*
X83172Y223895D01*
X83137Y223804D01*
X83096Y223714D01*
X83094Y223690D01*
X83085Y223667D01*
X83071Y223520D01*
X83071Y10910D01*
X83075Y10886D01*
X83072Y10861D01*
X83095Y10766D01*
X83110Y10669D01*
X83122Y10648D01*
X83128Y10624D01*
X83179Y10540D01*
X83225Y10454D01*
X83243Y10437D01*
X83256Y10416D01*
X83332Y10354D01*
X83404Y10287D01*
X83426Y10277D01*
X83445Y10261D01*
X83536Y10227D01*
X83626Y10186D01*
X83650Y10184D01*
X83673Y10175D01*
X83820Y10161D01*
X151897Y10161D01*
X151969Y10173D01*
G37*
%LPC*%
G36*
X451932Y24383D02*
X451932Y24383D01*
X446890Y26471D01*
X443031Y30330D01*
X440943Y35372D01*
X440943Y56068D01*
X442156Y58997D01*
X442173Y59068D01*
X442199Y59137D01*
X442206Y59210D01*
X442212Y59234D01*
X442210Y59251D01*
X442213Y59284D01*
X442213Y81547D01*
X442201Y81620D01*
X442199Y81693D01*
X442178Y81764D01*
X442174Y81788D01*
X442166Y81803D01*
X442156Y81834D01*
X441959Y82310D01*
X441959Y100570D01*
X443893Y105238D01*
X447466Y108811D01*
X452134Y110745D01*
X457186Y110745D01*
X461854Y108811D01*
X465427Y105238D01*
X466668Y102243D01*
X466707Y102181D01*
X466737Y102114D01*
X466771Y102078D01*
X466797Y102036D01*
X466853Y101989D01*
X466904Y101936D01*
X466947Y101913D01*
X466985Y101881D01*
X467054Y101855D01*
X467119Y101821D01*
X467167Y101813D01*
X467214Y101795D01*
X467287Y101793D01*
X467359Y101781D01*
X467408Y101789D01*
X467457Y101787D01*
X467528Y101808D01*
X467600Y101820D01*
X467644Y101843D01*
X467691Y101858D01*
X467751Y101901D01*
X467816Y101935D01*
X467849Y101971D01*
X467889Y102000D01*
X467932Y102059D01*
X467983Y102113D01*
X468017Y102178D01*
X468032Y102198D01*
X468037Y102214D01*
X468052Y102243D01*
X469293Y105238D01*
X472866Y108811D01*
X477534Y110745D01*
X482586Y110745D01*
X487254Y108811D01*
X490827Y105238D01*
X492068Y102243D01*
X492107Y102181D01*
X492137Y102114D01*
X492171Y102078D01*
X492197Y102036D01*
X492253Y101989D01*
X492304Y101936D01*
X492347Y101913D01*
X492385Y101881D01*
X492454Y101855D01*
X492519Y101821D01*
X492567Y101813D01*
X492614Y101795D01*
X492687Y101793D01*
X492759Y101781D01*
X492808Y101789D01*
X492857Y101787D01*
X492928Y101808D01*
X493000Y101820D01*
X493044Y101843D01*
X493091Y101858D01*
X493151Y101901D01*
X493216Y101935D01*
X493249Y101971D01*
X493289Y102000D01*
X493332Y102059D01*
X493383Y102113D01*
X493417Y102178D01*
X493432Y102198D01*
X493437Y102214D01*
X493452Y102243D01*
X494693Y105238D01*
X498266Y108811D01*
X502934Y110745D01*
X507986Y110745D01*
X512654Y108811D01*
X516227Y105238D01*
X517468Y102243D01*
X517507Y102181D01*
X517537Y102114D01*
X517571Y102078D01*
X517597Y102036D01*
X517653Y101989D01*
X517704Y101936D01*
X517747Y101913D01*
X517785Y101881D01*
X517854Y101855D01*
X517919Y101821D01*
X517967Y101813D01*
X518014Y101795D01*
X518087Y101793D01*
X518159Y101781D01*
X518208Y101789D01*
X518257Y101787D01*
X518328Y101808D01*
X518400Y101820D01*
X518444Y101843D01*
X518491Y101858D01*
X518551Y101901D01*
X518616Y101935D01*
X518649Y101971D01*
X518689Y102000D01*
X518732Y102059D01*
X518783Y102113D01*
X518817Y102178D01*
X518832Y102198D01*
X518837Y102214D01*
X518852Y102243D01*
X520093Y105238D01*
X523666Y108811D01*
X528334Y110745D01*
X533386Y110745D01*
X538054Y108811D01*
X541627Y105238D01*
X542868Y102243D01*
X542907Y102181D01*
X542937Y102114D01*
X542971Y102078D01*
X542997Y102036D01*
X543053Y101989D01*
X543104Y101936D01*
X543147Y101913D01*
X543185Y101881D01*
X543254Y101855D01*
X543319Y101821D01*
X543367Y101813D01*
X543414Y101795D01*
X543487Y101793D01*
X543559Y101781D01*
X543608Y101789D01*
X543657Y101787D01*
X543728Y101808D01*
X543800Y101820D01*
X543844Y101843D01*
X543891Y101858D01*
X543951Y101901D01*
X544016Y101935D01*
X544049Y101971D01*
X544089Y102000D01*
X544132Y102059D01*
X544183Y102113D01*
X544217Y102178D01*
X544232Y102198D01*
X544237Y102214D01*
X544252Y102243D01*
X545493Y105238D01*
X549066Y108811D01*
X553734Y110745D01*
X558786Y110745D01*
X563454Y108811D01*
X567027Y105238D01*
X568268Y102243D01*
X568307Y102181D01*
X568337Y102114D01*
X568371Y102078D01*
X568397Y102036D01*
X568453Y101989D01*
X568504Y101936D01*
X568547Y101913D01*
X568585Y101881D01*
X568654Y101855D01*
X568719Y101821D01*
X568767Y101813D01*
X568814Y101795D01*
X568887Y101793D01*
X568959Y101781D01*
X569008Y101789D01*
X569057Y101787D01*
X569128Y101808D01*
X569200Y101820D01*
X569244Y101844D01*
X569291Y101858D01*
X569351Y101901D01*
X569416Y101935D01*
X569449Y101971D01*
X569489Y102000D01*
X569532Y102059D01*
X569583Y102113D01*
X569617Y102178D01*
X569632Y102198D01*
X569637Y102214D01*
X569652Y102243D01*
X570893Y105238D01*
X574466Y108811D01*
X579134Y110745D01*
X584186Y110745D01*
X588854Y108811D01*
X592427Y105238D01*
X594361Y100570D01*
X594361Y82310D01*
X592427Y77642D01*
X588854Y74069D01*
X584186Y72135D01*
X579134Y72135D01*
X574466Y74069D01*
X570893Y77642D01*
X570148Y79439D01*
X570097Y79522D01*
X570051Y79609D01*
X570032Y79626D01*
X570019Y79647D01*
X569944Y79709D01*
X569872Y79775D01*
X569850Y79786D01*
X569831Y79801D01*
X569739Y79836D01*
X569650Y79876D01*
X569626Y79879D01*
X569602Y79887D01*
X569505Y79891D01*
X569407Y79900D01*
X569383Y79895D01*
X569359Y79895D01*
X569265Y79867D01*
X569170Y79845D01*
X569149Y79832D01*
X569125Y79825D01*
X569046Y79768D01*
X568962Y79716D01*
X568947Y79697D01*
X568927Y79683D01*
X568870Y79603D01*
X568807Y79528D01*
X568799Y79505D01*
X568784Y79485D01*
X568756Y79391D01*
X568721Y79300D01*
X568718Y79267D01*
X568713Y79251D01*
X568714Y79226D01*
X568707Y79153D01*
X568707Y59284D01*
X568719Y59211D01*
X568721Y59138D01*
X568742Y59067D01*
X568746Y59043D01*
X568754Y59028D01*
X568764Y58997D01*
X569977Y56068D01*
X569977Y35372D01*
X567889Y30330D01*
X564030Y26471D01*
X558988Y24383D01*
X553532Y24383D01*
X548490Y26471D01*
X544632Y30330D01*
X544252Y31246D01*
X544213Y31308D01*
X544183Y31375D01*
X544150Y31411D01*
X544123Y31453D01*
X544067Y31500D01*
X544016Y31553D01*
X543973Y31577D01*
X543935Y31608D01*
X543866Y31634D01*
X543801Y31668D01*
X543753Y31677D01*
X543706Y31694D01*
X543633Y31696D01*
X543561Y31708D01*
X543512Y31700D01*
X543463Y31702D01*
X543392Y31681D01*
X543320Y31669D01*
X543276Y31646D01*
X543229Y31631D01*
X543169Y31589D01*
X543104Y31554D01*
X543071Y31518D01*
X543031Y31489D01*
X542988Y31430D01*
X542937Y31376D01*
X542903Y31311D01*
X542888Y31291D01*
X542883Y31275D01*
X542868Y31246D01*
X542489Y30330D01*
X538630Y26471D01*
X533588Y24383D01*
X528132Y24383D01*
X523090Y26471D01*
X519232Y30330D01*
X518852Y31246D01*
X518813Y31308D01*
X518783Y31375D01*
X518750Y31411D01*
X518723Y31453D01*
X518667Y31500D01*
X518616Y31553D01*
X518573Y31577D01*
X518535Y31608D01*
X518466Y31634D01*
X518401Y31668D01*
X518353Y31677D01*
X518306Y31694D01*
X518233Y31696D01*
X518161Y31708D01*
X518112Y31700D01*
X518063Y31702D01*
X517992Y31681D01*
X517920Y31669D01*
X517876Y31646D01*
X517829Y31631D01*
X517769Y31589D01*
X517704Y31554D01*
X517671Y31518D01*
X517631Y31489D01*
X517588Y31430D01*
X517537Y31376D01*
X517503Y31311D01*
X517488Y31291D01*
X517483Y31275D01*
X517468Y31246D01*
X517089Y30330D01*
X513230Y26471D01*
X508188Y24383D01*
X502732Y24383D01*
X497690Y26471D01*
X493832Y30330D01*
X493452Y31246D01*
X493413Y31308D01*
X493383Y31375D01*
X493350Y31411D01*
X493323Y31453D01*
X493267Y31500D01*
X493216Y31553D01*
X493173Y31577D01*
X493135Y31608D01*
X493066Y31634D01*
X493001Y31668D01*
X492953Y31677D01*
X492906Y31694D01*
X492833Y31696D01*
X492761Y31708D01*
X492712Y31700D01*
X492663Y31702D01*
X492592Y31681D01*
X492520Y31669D01*
X492476Y31646D01*
X492429Y31631D01*
X492369Y31589D01*
X492304Y31554D01*
X492271Y31518D01*
X492231Y31489D01*
X492188Y31430D01*
X492137Y31376D01*
X492103Y31311D01*
X492088Y31291D01*
X492083Y31275D01*
X492068Y31246D01*
X491689Y30330D01*
X487830Y26471D01*
X482788Y24383D01*
X477332Y24383D01*
X472290Y26471D01*
X468432Y30330D01*
X468052Y31246D01*
X468013Y31308D01*
X467983Y31375D01*
X467950Y31411D01*
X467923Y31453D01*
X467867Y31500D01*
X467816Y31553D01*
X467773Y31577D01*
X467735Y31608D01*
X467666Y31634D01*
X467601Y31668D01*
X467553Y31677D01*
X467506Y31694D01*
X467433Y31696D01*
X467361Y31708D01*
X467312Y31700D01*
X467263Y31702D01*
X467192Y31681D01*
X467120Y31669D01*
X467076Y31646D01*
X467029Y31631D01*
X466969Y31589D01*
X466904Y31554D01*
X466871Y31518D01*
X466831Y31489D01*
X466788Y31430D01*
X466737Y31376D01*
X466703Y31311D01*
X466688Y31291D01*
X466683Y31275D01*
X466668Y31246D01*
X466289Y30330D01*
X462430Y26471D01*
X457388Y24383D01*
X451932Y24383D01*
G37*
%LPD*%
%LPC*%
G36*
X275819Y29439D02*
X275819Y29439D01*
X275819Y43181D01*
X280633Y43181D01*
X289561Y34253D01*
X289561Y29439D01*
X275819Y29439D01*
G37*
%LPD*%
%LPC*%
G36*
X161519Y26899D02*
X161519Y26899D01*
X161519Y40641D01*
X166333Y40641D01*
X175261Y31713D01*
X175261Y26899D01*
X161519Y26899D01*
G37*
%LPD*%
%LPC*%
G36*
X259079Y29439D02*
X259079Y29439D01*
X259079Y34253D01*
X268007Y43181D01*
X272821Y43181D01*
X272821Y29439D01*
X259079Y29439D01*
G37*
%LPD*%
%LPC*%
G36*
X144779Y26899D02*
X144779Y26899D01*
X144779Y31713D01*
X153707Y40641D01*
X158521Y40641D01*
X158521Y26899D01*
X144779Y26899D01*
G37*
%LPD*%
%LPC*%
G36*
X275819Y12699D02*
X275819Y12699D01*
X275819Y26441D01*
X289561Y26441D01*
X289561Y21627D01*
X280633Y12699D01*
X275819Y12699D01*
G37*
%LPD*%
%LPC*%
G36*
X268007Y12699D02*
X268007Y12699D01*
X259079Y21627D01*
X259079Y26441D01*
X272821Y26441D01*
X272821Y12699D01*
X268007Y12699D01*
G37*
%LPD*%
%LPC*%
G36*
X204699Y138659D02*
X204699Y138659D01*
X204699Y147321D01*
X211620Y147321D01*
X213199Y147071D01*
X214720Y146576D01*
X216145Y145850D01*
X217439Y144910D01*
X218570Y143779D01*
X219510Y142485D01*
X220236Y141060D01*
X220731Y139539D01*
X220870Y138659D01*
X204699Y138659D01*
G37*
%LPD*%
%LPC*%
G36*
X185530Y138659D02*
X185530Y138659D01*
X185669Y139539D01*
X186164Y141060D01*
X186890Y142485D01*
X187830Y143779D01*
X188961Y144910D01*
X190255Y145850D01*
X191680Y146576D01*
X193201Y147071D01*
X194780Y147321D01*
X201701Y147321D01*
X201701Y138659D01*
X185530Y138659D01*
G37*
%LPD*%
%LPC*%
G36*
X204699Y126999D02*
X204699Y126999D01*
X204699Y135661D01*
X220870Y135661D01*
X220731Y134781D01*
X220236Y133260D01*
X219510Y131835D01*
X218570Y130541D01*
X217439Y129410D01*
X216145Y128470D01*
X214720Y127744D01*
X213199Y127249D01*
X211620Y126999D01*
X204699Y126999D01*
G37*
%LPD*%
%LPC*%
G36*
X194780Y126999D02*
X194780Y126999D01*
X193201Y127249D01*
X191680Y127744D01*
X190255Y128470D01*
X188961Y129410D01*
X187830Y130541D01*
X186890Y131835D01*
X186164Y133260D01*
X185669Y134781D01*
X185530Y135661D01*
X201701Y135661D01*
X201701Y126999D01*
X194780Y126999D01*
G37*
%LPD*%
%LPC*%
G36*
X123419Y146279D02*
X123419Y146279D01*
X123419Y154861D01*
X130253Y154861D01*
X131821Y154613D01*
X133330Y154122D01*
X134743Y153402D01*
X136027Y152469D01*
X137149Y151347D01*
X138082Y150063D01*
X138802Y148650D01*
X139293Y147141D01*
X139429Y146279D01*
X123419Y146279D01*
G37*
%LPD*%
%LPC*%
G36*
X387579Y26899D02*
X387579Y26899D01*
X387579Y35481D01*
X394413Y35481D01*
X395981Y35233D01*
X397490Y34742D01*
X398903Y34022D01*
X400187Y33089D01*
X401309Y31967D01*
X402242Y30683D01*
X402962Y29270D01*
X403453Y27761D01*
X403589Y26899D01*
X387579Y26899D01*
G37*
%LPD*%
%LPC*%
G36*
X104411Y146279D02*
X104411Y146279D01*
X104547Y147141D01*
X105038Y148650D01*
X105758Y150063D01*
X106691Y151347D01*
X107813Y152469D01*
X109097Y153402D01*
X110510Y154122D01*
X112019Y154613D01*
X113587Y154861D01*
X120421Y154861D01*
X120421Y146279D01*
X104411Y146279D01*
G37*
%LPD*%
%LPC*%
G36*
X368571Y26899D02*
X368571Y26899D01*
X368707Y27761D01*
X369198Y29270D01*
X369918Y30683D01*
X370851Y31967D01*
X371973Y33089D01*
X373257Y34022D01*
X374670Y34742D01*
X376179Y35233D01*
X377747Y35481D01*
X384581Y35481D01*
X384581Y26899D01*
X368571Y26899D01*
G37*
%LPD*%
%LPC*%
G36*
X123419Y134699D02*
X123419Y134699D01*
X123419Y143281D01*
X139429Y143281D01*
X139293Y142419D01*
X138802Y140910D01*
X138082Y139497D01*
X137149Y138213D01*
X136027Y137091D01*
X134743Y136158D01*
X133330Y135438D01*
X131821Y134947D01*
X130253Y134699D01*
X123419Y134699D01*
G37*
%LPD*%
%LPC*%
G36*
X387579Y15319D02*
X387579Y15319D01*
X387579Y23901D01*
X403589Y23901D01*
X403453Y23039D01*
X402962Y21530D01*
X402242Y20117D01*
X401309Y18833D01*
X400187Y17711D01*
X398903Y16778D01*
X397490Y16058D01*
X395981Y15567D01*
X394413Y15319D01*
X387579Y15319D01*
G37*
%LPD*%
%LPC*%
G36*
X113587Y134699D02*
X113587Y134699D01*
X112019Y134947D01*
X110510Y135438D01*
X109097Y136158D01*
X107813Y137091D01*
X106691Y138213D01*
X105758Y139497D01*
X105038Y140910D01*
X104547Y142419D01*
X104411Y143281D01*
X120421Y143281D01*
X120421Y134699D01*
X113587Y134699D01*
G37*
%LPD*%
%LPC*%
G36*
X377747Y15319D02*
X377747Y15319D01*
X376179Y15567D01*
X374670Y16058D01*
X373257Y16778D01*
X371973Y17711D01*
X370851Y18833D01*
X369918Y20117D01*
X369198Y21530D01*
X368707Y23039D01*
X368571Y23901D01*
X384581Y23901D01*
X384581Y15319D01*
X377747Y15319D01*
G37*
%LPD*%
%LPC*%
G36*
X608559Y92939D02*
X608559Y92939D01*
X608559Y107070D01*
X609727Y106837D01*
X611392Y106148D01*
X612889Y105147D01*
X614163Y103873D01*
X615164Y102376D01*
X615853Y100711D01*
X616205Y98945D01*
X616205Y92939D01*
X608559Y92939D01*
G37*
%LPD*%
%LPC*%
G36*
X608559Y89941D02*
X608559Y89941D01*
X616205Y89941D01*
X616205Y83935D01*
X615853Y82169D01*
X615164Y80504D01*
X614163Y79007D01*
X612889Y77733D01*
X611392Y76732D01*
X609727Y76043D01*
X608559Y75810D01*
X608559Y89941D01*
G37*
%LPD*%
%LPC*%
G36*
X597915Y92939D02*
X597915Y92939D01*
X597915Y98945D01*
X598267Y100711D01*
X598956Y102376D01*
X599957Y103873D01*
X601231Y105147D01*
X602728Y106148D01*
X604393Y106837D01*
X605561Y107070D01*
X605561Y92939D01*
X597915Y92939D01*
G37*
%LPD*%
%LPC*%
G36*
X604393Y76043D02*
X604393Y76043D01*
X602728Y76732D01*
X601231Y77733D01*
X599957Y79007D01*
X598956Y80504D01*
X598267Y82169D01*
X597915Y83935D01*
X597915Y89941D01*
X605561Y89941D01*
X605561Y75810D01*
X604393Y76043D01*
G37*
%LPD*%
%LPC*%
G36*
X121919Y144779D02*
X121919Y144779D01*
X121919Y144781D01*
X121921Y144781D01*
X121921Y144779D01*
X121919Y144779D01*
G37*
%LPD*%
%LPC*%
G36*
X203199Y137159D02*
X203199Y137159D01*
X203199Y137161D01*
X203201Y137161D01*
X203201Y137159D01*
X203199Y137159D01*
G37*
%LPD*%
%LPC*%
G36*
X607059Y91439D02*
X607059Y91439D01*
X607059Y91441D01*
X607061Y91441D01*
X607061Y91439D01*
X607059Y91439D01*
G37*
%LPD*%
%LPC*%
G36*
X274319Y27939D02*
X274319Y27939D01*
X274319Y27941D01*
X274321Y27941D01*
X274321Y27939D01*
X274319Y27939D01*
G37*
%LPD*%
%LPC*%
G36*
X386079Y25399D02*
X386079Y25399D01*
X386079Y25401D01*
X386081Y25401D01*
X386081Y25399D01*
X386079Y25399D01*
G37*
%LPD*%
D10*
X160020Y76200D03*
D11*
X160020Y25400D03*
D10*
X274320Y78740D03*
D11*
X274320Y27940D03*
D12*
X320040Y154940D02*
X320040Y170180D01*
X345440Y170180D02*
X345440Y154940D01*
X370840Y154940D02*
X370840Y170180D01*
D13*
X454660Y98044D02*
X454660Y84836D01*
X480060Y84836D02*
X480060Y98044D01*
X607060Y98044D02*
X607060Y84836D01*
X607060Y161036D02*
X607060Y174244D01*
X505460Y98044D02*
X505460Y84836D01*
X530860Y84836D02*
X530860Y98044D01*
X581660Y98044D02*
X581660Y84836D01*
X556260Y84836D02*
X556260Y98044D01*
X581660Y161036D02*
X581660Y174244D01*
X556260Y174244D02*
X556260Y161036D01*
X530860Y161036D02*
X530860Y174244D01*
X505460Y174244D02*
X505460Y161036D01*
X480060Y161036D02*
X480060Y174244D01*
X454660Y174244D02*
X454660Y161036D01*
D14*
X129460Y144780D02*
X114380Y144780D01*
X114380Y170180D02*
X129460Y170180D01*
D12*
X556260Y53340D02*
X556260Y38100D01*
X530860Y38100D02*
X530860Y53340D01*
X505460Y53340D02*
X505460Y38100D01*
X480060Y38100D02*
X480060Y53340D01*
X454660Y53340D02*
X454660Y38100D01*
D14*
X393620Y50800D02*
X378540Y50800D01*
X378540Y25400D02*
X393620Y25400D01*
D15*
X281940Y116840D03*
X383540Y116840D03*
D12*
X254000Y154940D02*
X254000Y170180D01*
X210820Y187960D02*
X195580Y187960D01*
X195580Y137160D02*
X210820Y137160D01*
D16*
X193040Y218440D02*
X353060Y218440D01*
X370840Y200660D02*
X370840Y162560D01*
X370840Y200660D02*
X353060Y218440D01*
X193040Y218440D02*
X160020Y185420D01*
X160020Y170180D01*
X160020Y76200D01*
X160020Y170180D02*
X121920Y170180D01*
X101600Y33020D02*
X109220Y25400D01*
X111760Y144780D02*
X121920Y144780D01*
X111760Y144780D02*
X101600Y134620D01*
X101600Y33020D01*
X109220Y25400D02*
X160020Y25400D01*
X271780Y25400D02*
X274320Y27940D01*
X271780Y25400D02*
X200660Y25400D01*
X160020Y25400D01*
X386080Y27940D02*
X414020Y27940D01*
X386080Y27940D02*
X274320Y27940D01*
X203200Y137160D02*
X196850Y137160D01*
X203200Y137160D02*
X203200Y27940D01*
X200660Y25400D01*
X386080Y25400D02*
X386080Y27940D01*
X414020Y27940D02*
X424180Y38100D01*
X424180Y111760D01*
X435864Y123444D01*
X595376Y123444D01*
X607060Y111760D02*
X607060Y91440D01*
X607060Y111760D02*
X595376Y123444D01*
X254000Y129540D02*
X254000Y162560D01*
X254000Y129540D02*
X266700Y116840D01*
X281940Y116840D01*
X314960Y116840D01*
X320040Y121920D01*
X320040Y162560D01*
X243840Y187960D02*
X203200Y187960D01*
X243840Y187960D02*
X254000Y177800D01*
X254000Y162560D01*
X279400Y83820D02*
X274320Y78740D01*
X345440Y78740D01*
X373380Y50800D02*
X386080Y50800D01*
X373380Y50800D02*
X345440Y78740D01*
X345440Y116840D02*
X345440Y162560D01*
X345440Y116840D02*
X345440Y78740D01*
X345440Y116840D02*
X383540Y116840D01*
X383540Y127000D01*
X403860Y147320D01*
X449580Y147320D01*
X454660Y152400D01*
X454660Y167640D01*
X454660Y91440D02*
X454660Y45720D01*
X480060Y45720D02*
X480060Y91440D01*
X505460Y91440D02*
X505460Y45720D01*
X530860Y45720D02*
X530860Y91440D01*
X556260Y91440D02*
X556260Y45720D01*
M02*
