G04 EAGLE Gerber RS-274X export*
G75*
%MOMM*%
%FSLAX34Y34*%
%LPD*%
%INBottom Copper*%
%IPPOS*%
%AMOC8*
5,1,8,0,0,1.08239X$1,22.5*%
G01*
%ADD10C,3.530600*%
%ADD11C,1.524000*%
%ADD12P,2.364373X8X22.500000*%
%ADD13C,1.270000*%
%ADD14C,2.540000*%


D10*
X313020Y222951D02*
X313020Y258257D01*
X374867Y253620D02*
X410173Y253620D01*
X313020Y324551D02*
X313020Y359857D01*
X374867Y355220D02*
X410173Y355220D01*
X313020Y426151D02*
X313020Y461457D01*
X374867Y456820D02*
X410173Y456820D01*
X313020Y527751D02*
X313020Y563057D01*
X374867Y558420D02*
X410173Y558420D01*
D11*
X568960Y330200D02*
X568960Y314960D01*
X543560Y314960D02*
X543560Y330200D01*
X518160Y330200D02*
X518160Y314960D01*
X492760Y500380D02*
X492760Y515620D01*
X518160Y515620D02*
X518160Y500380D01*
X543560Y500380D02*
X543560Y515620D01*
D12*
X459740Y391160D03*
X612140Y391160D03*
X459740Y444500D03*
X612140Y444500D03*
D13*
X462280Y388620D02*
X459740Y391160D01*
X462280Y441960D02*
X459740Y444500D01*
X462280Y441960D02*
X462280Y388620D01*
X459740Y444500D02*
X492760Y477520D01*
X492760Y508000D01*
X393700Y256540D02*
X393700Y252440D01*
X395060Y256160D02*
X518160Y256160D01*
X395060Y256160D02*
X392520Y253620D01*
X518160Y256160D02*
X553340Y256160D01*
X568960Y271780D02*
X568960Y322580D01*
X568960Y271780D02*
X553340Y256160D01*
X518160Y256160D02*
X518160Y322580D01*
X586740Y444500D02*
X612140Y444500D01*
X568960Y426720D02*
X568960Y322580D01*
X568960Y426720D02*
X586740Y444500D01*
X487300Y357760D02*
X395060Y357760D01*
X392520Y355220D01*
X487300Y357760D02*
X518160Y388620D01*
X518160Y508000D01*
D14*
X313020Y333340D02*
X313020Y240604D01*
X313020Y333340D02*
X317500Y337820D01*
X313116Y342204D01*
X313020Y342204D01*
X313020Y416560D02*
X313020Y443804D01*
X313020Y416560D02*
X313020Y342300D01*
X313116Y342204D01*
D13*
X313020Y416560D02*
X307940Y421640D01*
X313020Y240604D02*
X313020Y205140D01*
X317500Y200660D01*
X543560Y200660D01*
X612140Y269240D01*
X612140Y391160D01*
D14*
X350424Y508000D02*
X313020Y545404D01*
X350424Y508000D02*
X370840Y508000D01*
X396240Y482600D01*
X396240Y460540D02*
X392520Y456820D01*
X396240Y460540D02*
X396240Y482600D01*
D13*
X392520Y558420D02*
X378840Y558420D01*
X392520Y558420D02*
X435700Y558420D01*
X456020Y578740D01*
X526160Y578740D01*
X543560Y561340D02*
X543560Y508000D01*
X543560Y561340D02*
X526160Y578740D01*
X543560Y508000D02*
X543560Y322580D01*
M02*
