G04 EAGLE Gerber RS-274X export*
G75*
%MOMM*%
%FSLAX34Y34*%
%LPD*%
%INSilkscreen Top*%
%IPPOS*%
%AMOC8*
5,1,8,0,0,1.08239X$1,22.5*%
G01*
%ADD10C,0.127000*%
%ADD11C,0.152400*%
%ADD12C,0.203200*%
%ADD13R,10.160000X1.016000*%
%ADD14R,1.397000X0.762000*%


D10*
X287020Y198120D02*
X342020Y198120D01*
X428020Y213120D02*
X428020Y268120D01*
X287020Y283120D02*
X287020Y198120D01*
X342020Y198120D02*
X352020Y208120D01*
X423020Y208120D01*
X342020Y283120D02*
X287020Y283120D01*
X342020Y283120D02*
X352020Y273120D01*
X423020Y273120D01*
X428020Y268120D01*
X428020Y213120D02*
X423020Y208120D01*
D11*
X273558Y198882D02*
X257302Y204301D01*
X273558Y209719D01*
X269494Y208365D02*
X269494Y200237D01*
X273558Y215937D02*
X257302Y215937D01*
X257302Y220453D01*
X257304Y220584D01*
X257310Y220716D01*
X257319Y220847D01*
X257333Y220977D01*
X257350Y221108D01*
X257371Y221237D01*
X257395Y221366D01*
X257424Y221494D01*
X257456Y221622D01*
X257492Y221748D01*
X257531Y221873D01*
X257574Y221998D01*
X257621Y222120D01*
X257671Y222242D01*
X257725Y222362D01*
X257782Y222480D01*
X257843Y222596D01*
X257907Y222711D01*
X257974Y222824D01*
X258045Y222935D01*
X258119Y223043D01*
X258196Y223150D01*
X258276Y223254D01*
X258359Y223356D01*
X258444Y223455D01*
X258533Y223552D01*
X258625Y223646D01*
X258719Y223738D01*
X258816Y223827D01*
X258915Y223912D01*
X259017Y223995D01*
X259121Y224075D01*
X259228Y224152D01*
X259336Y224226D01*
X259447Y224297D01*
X259560Y224364D01*
X259675Y224428D01*
X259791Y224489D01*
X259909Y224546D01*
X260029Y224600D01*
X260151Y224650D01*
X260273Y224697D01*
X260398Y224740D01*
X260523Y224779D01*
X260649Y224815D01*
X260777Y224847D01*
X260905Y224876D01*
X261034Y224900D01*
X261163Y224921D01*
X261294Y224938D01*
X261424Y224952D01*
X261555Y224961D01*
X261687Y224967D01*
X261818Y224969D01*
X269042Y224969D01*
X269173Y224967D01*
X269305Y224961D01*
X269436Y224952D01*
X269566Y224938D01*
X269697Y224921D01*
X269826Y224900D01*
X269955Y224876D01*
X270083Y224847D01*
X270211Y224815D01*
X270337Y224779D01*
X270462Y224740D01*
X270587Y224697D01*
X270709Y224650D01*
X270831Y224600D01*
X270951Y224546D01*
X271069Y224489D01*
X271185Y224428D01*
X271300Y224364D01*
X271413Y224297D01*
X271524Y224226D01*
X271632Y224152D01*
X271739Y224075D01*
X271843Y223995D01*
X271945Y223912D01*
X272044Y223827D01*
X272141Y223738D01*
X272235Y223646D01*
X272327Y223552D01*
X272416Y223455D01*
X272501Y223356D01*
X272584Y223254D01*
X272664Y223150D01*
X272741Y223043D01*
X272815Y222935D01*
X272886Y222824D01*
X272953Y222711D01*
X273017Y222596D01*
X273078Y222480D01*
X273135Y222362D01*
X273189Y222242D01*
X273239Y222120D01*
X273286Y221998D01*
X273329Y221873D01*
X273368Y221748D01*
X273404Y221622D01*
X273436Y221494D01*
X273465Y221366D01*
X273489Y221237D01*
X273510Y221107D01*
X273527Y220977D01*
X273541Y220847D01*
X273550Y220716D01*
X273556Y220584D01*
X273558Y220453D01*
X273558Y215937D01*
X273558Y232822D02*
X257302Y232822D01*
X257302Y237337D01*
X257304Y237470D01*
X257310Y237602D01*
X257320Y237734D01*
X257333Y237866D01*
X257351Y237998D01*
X257372Y238128D01*
X257397Y238259D01*
X257426Y238388D01*
X257459Y238516D01*
X257495Y238644D01*
X257535Y238770D01*
X257579Y238895D01*
X257627Y239019D01*
X257678Y239141D01*
X257733Y239262D01*
X257791Y239381D01*
X257853Y239499D01*
X257918Y239614D01*
X257987Y239728D01*
X258058Y239839D01*
X258134Y239948D01*
X258212Y240055D01*
X258293Y240160D01*
X258378Y240262D01*
X258465Y240362D01*
X258555Y240459D01*
X258648Y240554D01*
X258744Y240645D01*
X258842Y240734D01*
X258943Y240820D01*
X259047Y240903D01*
X259153Y240983D01*
X259261Y241059D01*
X259371Y241133D01*
X259484Y241203D01*
X259598Y241270D01*
X259715Y241333D01*
X259833Y241393D01*
X259953Y241450D01*
X260075Y241503D01*
X260198Y241552D01*
X260322Y241598D01*
X260448Y241640D01*
X260575Y241678D01*
X260703Y241713D01*
X260832Y241744D01*
X260961Y241771D01*
X261092Y241794D01*
X261223Y241814D01*
X261355Y241829D01*
X261487Y241841D01*
X261619Y241849D01*
X261752Y241853D01*
X261884Y241853D01*
X262017Y241849D01*
X262149Y241841D01*
X262281Y241829D01*
X262413Y241814D01*
X262544Y241794D01*
X262675Y241771D01*
X262804Y241744D01*
X262933Y241713D01*
X263061Y241678D01*
X263188Y241640D01*
X263314Y241598D01*
X263438Y241552D01*
X263561Y241503D01*
X263683Y241450D01*
X263803Y241393D01*
X263921Y241333D01*
X264038Y241270D01*
X264152Y241203D01*
X264265Y241133D01*
X264375Y241059D01*
X264483Y240983D01*
X264589Y240903D01*
X264693Y240820D01*
X264794Y240734D01*
X264892Y240645D01*
X264988Y240554D01*
X265081Y240459D01*
X265171Y240362D01*
X265258Y240262D01*
X265343Y240160D01*
X265424Y240055D01*
X265502Y239948D01*
X265578Y239839D01*
X265649Y239728D01*
X265718Y239614D01*
X265783Y239499D01*
X265845Y239381D01*
X265903Y239262D01*
X265958Y239141D01*
X266009Y239019D01*
X266057Y238895D01*
X266101Y238770D01*
X266141Y238644D01*
X266177Y238516D01*
X266210Y238388D01*
X266239Y238259D01*
X266264Y238128D01*
X266285Y237998D01*
X266303Y237866D01*
X266316Y237734D01*
X266326Y237602D01*
X266332Y237470D01*
X266334Y237337D01*
X266333Y237337D02*
X266333Y232822D01*
X273558Y251194D02*
X257302Y251194D01*
X257302Y246679D02*
X257302Y255710D01*
D10*
X287020Y299720D02*
X342020Y299720D01*
X428020Y314720D02*
X428020Y369720D01*
X287020Y384720D02*
X287020Y299720D01*
X342020Y299720D02*
X352020Y309720D01*
X423020Y309720D01*
X342020Y384720D02*
X287020Y384720D01*
X342020Y384720D02*
X352020Y374720D01*
X423020Y374720D01*
X428020Y369720D01*
X428020Y314720D02*
X423020Y309720D01*
D11*
X264527Y304998D02*
X264527Y300482D01*
X264526Y304998D02*
X264528Y305131D01*
X264534Y305263D01*
X264544Y305395D01*
X264557Y305527D01*
X264575Y305659D01*
X264596Y305789D01*
X264621Y305920D01*
X264650Y306049D01*
X264683Y306177D01*
X264719Y306305D01*
X264759Y306431D01*
X264803Y306556D01*
X264851Y306680D01*
X264902Y306802D01*
X264957Y306923D01*
X265015Y307042D01*
X265077Y307160D01*
X265142Y307275D01*
X265211Y307389D01*
X265282Y307500D01*
X265358Y307609D01*
X265436Y307716D01*
X265517Y307821D01*
X265602Y307923D01*
X265689Y308023D01*
X265779Y308120D01*
X265872Y308215D01*
X265968Y308306D01*
X266066Y308395D01*
X266167Y308481D01*
X266271Y308564D01*
X266377Y308644D01*
X266485Y308720D01*
X266595Y308794D01*
X266708Y308864D01*
X266822Y308931D01*
X266939Y308994D01*
X267057Y309054D01*
X267177Y309111D01*
X267299Y309164D01*
X267422Y309213D01*
X267546Y309259D01*
X267672Y309301D01*
X267799Y309339D01*
X267927Y309374D01*
X268056Y309405D01*
X268185Y309432D01*
X268316Y309455D01*
X268447Y309475D01*
X268579Y309490D01*
X268711Y309502D01*
X268843Y309510D01*
X268976Y309514D01*
X269108Y309514D01*
X269241Y309510D01*
X269373Y309502D01*
X269505Y309490D01*
X269637Y309475D01*
X269768Y309455D01*
X269899Y309432D01*
X270028Y309405D01*
X270157Y309374D01*
X270285Y309339D01*
X270412Y309301D01*
X270538Y309259D01*
X270662Y309213D01*
X270785Y309164D01*
X270907Y309111D01*
X271027Y309054D01*
X271145Y308994D01*
X271262Y308931D01*
X271376Y308864D01*
X271489Y308794D01*
X271599Y308720D01*
X271707Y308644D01*
X271813Y308564D01*
X271917Y308481D01*
X272018Y308395D01*
X272116Y308306D01*
X272212Y308215D01*
X272305Y308120D01*
X272395Y308023D01*
X272482Y307923D01*
X272567Y307821D01*
X272648Y307716D01*
X272726Y307609D01*
X272802Y307500D01*
X272873Y307389D01*
X272942Y307275D01*
X273007Y307160D01*
X273069Y307042D01*
X273127Y306923D01*
X273182Y306802D01*
X273233Y306680D01*
X273281Y306556D01*
X273325Y306431D01*
X273365Y306305D01*
X273401Y306177D01*
X273434Y306049D01*
X273463Y305920D01*
X273488Y305789D01*
X273509Y305659D01*
X273527Y305527D01*
X273540Y305395D01*
X273550Y305263D01*
X273556Y305131D01*
X273558Y304998D01*
X273558Y300482D01*
X257302Y300482D01*
X257302Y304998D01*
X257304Y305117D01*
X257310Y305237D01*
X257320Y305356D01*
X257334Y305474D01*
X257351Y305593D01*
X257373Y305710D01*
X257398Y305827D01*
X257428Y305942D01*
X257461Y306057D01*
X257498Y306171D01*
X257538Y306283D01*
X257583Y306394D01*
X257631Y306503D01*
X257682Y306611D01*
X257737Y306717D01*
X257796Y306821D01*
X257858Y306923D01*
X257923Y307023D01*
X257992Y307121D01*
X258064Y307217D01*
X258139Y307310D01*
X258216Y307400D01*
X258297Y307488D01*
X258381Y307573D01*
X258468Y307655D01*
X258557Y307735D01*
X258649Y307811D01*
X258743Y307885D01*
X258840Y307955D01*
X258938Y308022D01*
X259039Y308086D01*
X259143Y308146D01*
X259248Y308203D01*
X259355Y308256D01*
X259463Y308306D01*
X259573Y308352D01*
X259685Y308394D01*
X259798Y308433D01*
X259912Y308468D01*
X260027Y308499D01*
X260144Y308527D01*
X260261Y308550D01*
X260378Y308570D01*
X260497Y308586D01*
X260616Y308598D01*
X260735Y308606D01*
X260854Y308610D01*
X260974Y308610D01*
X261093Y308606D01*
X261212Y308598D01*
X261331Y308586D01*
X261450Y308570D01*
X261567Y308550D01*
X261684Y308527D01*
X261801Y308499D01*
X261916Y308468D01*
X262030Y308433D01*
X262143Y308394D01*
X262255Y308352D01*
X262365Y308306D01*
X262473Y308256D01*
X262580Y308203D01*
X262685Y308146D01*
X262789Y308086D01*
X262890Y308022D01*
X262988Y307955D01*
X263085Y307885D01*
X263179Y307811D01*
X263271Y307735D01*
X263360Y307655D01*
X263447Y307573D01*
X263531Y307488D01*
X263612Y307400D01*
X263689Y307310D01*
X263764Y307217D01*
X263836Y307121D01*
X263905Y307023D01*
X263970Y306923D01*
X264032Y306821D01*
X264091Y306717D01*
X264146Y306611D01*
X264197Y306503D01*
X264245Y306394D01*
X264290Y306283D01*
X264330Y306171D01*
X264367Y306057D01*
X264400Y305942D01*
X264430Y305827D01*
X264455Y305710D01*
X264477Y305593D01*
X264494Y305474D01*
X264508Y305356D01*
X264518Y305237D01*
X264524Y305117D01*
X264526Y304998D01*
X273558Y314478D02*
X257302Y319897D01*
X273558Y325315D01*
X269494Y323961D02*
X269494Y315833D01*
X273558Y334486D02*
X257302Y334486D01*
X257302Y329970D02*
X257302Y339002D01*
X257302Y348033D02*
X273558Y348033D01*
X257302Y343518D02*
X257302Y352549D01*
D10*
X287020Y401320D02*
X342020Y401320D01*
X428020Y416320D02*
X428020Y471320D01*
X287020Y486320D02*
X287020Y401320D01*
X342020Y401320D02*
X352020Y411320D01*
X423020Y411320D01*
X342020Y486320D02*
X287020Y486320D01*
X342020Y486320D02*
X352020Y476320D01*
X423020Y476320D01*
X428020Y471320D01*
X428020Y416320D02*
X423020Y411320D01*
D11*
X273558Y402082D02*
X257302Y402082D01*
X257302Y409307D01*
X264527Y409307D02*
X264527Y402082D01*
X273558Y419976D02*
X273556Y420094D01*
X273550Y420212D01*
X273541Y420330D01*
X273527Y420447D01*
X273510Y420564D01*
X273489Y420681D01*
X273464Y420796D01*
X273435Y420911D01*
X273402Y421025D01*
X273366Y421137D01*
X273326Y421248D01*
X273283Y421358D01*
X273236Y421467D01*
X273186Y421574D01*
X273131Y421679D01*
X273074Y421782D01*
X273013Y421883D01*
X272949Y421983D01*
X272882Y422080D01*
X272812Y422175D01*
X272738Y422267D01*
X272662Y422358D01*
X272582Y422445D01*
X272500Y422530D01*
X272415Y422612D01*
X272328Y422692D01*
X272237Y422768D01*
X272145Y422842D01*
X272050Y422912D01*
X271953Y422979D01*
X271853Y423043D01*
X271752Y423104D01*
X271649Y423161D01*
X271544Y423216D01*
X271437Y423266D01*
X271328Y423313D01*
X271218Y423356D01*
X271107Y423396D01*
X270995Y423432D01*
X270881Y423465D01*
X270766Y423494D01*
X270651Y423519D01*
X270534Y423540D01*
X270417Y423557D01*
X270300Y423571D01*
X270182Y423580D01*
X270064Y423586D01*
X269946Y423588D01*
X273558Y419976D02*
X273556Y419793D01*
X273549Y419611D01*
X273538Y419429D01*
X273523Y419247D01*
X273503Y419065D01*
X273480Y418884D01*
X273451Y418704D01*
X273419Y418524D01*
X273382Y418345D01*
X273341Y418168D01*
X273295Y417991D01*
X273246Y417815D01*
X273192Y417641D01*
X273134Y417467D01*
X273072Y417296D01*
X273006Y417126D01*
X272935Y416957D01*
X272861Y416790D01*
X272783Y416625D01*
X272701Y416462D01*
X272615Y416301D01*
X272525Y416142D01*
X272431Y415985D01*
X272334Y415831D01*
X272233Y415679D01*
X272128Y415529D01*
X272020Y415382D01*
X271909Y415238D01*
X271794Y415096D01*
X271675Y414957D01*
X271553Y414821D01*
X271428Y414688D01*
X271300Y414558D01*
X260914Y415009D02*
X260796Y415011D01*
X260678Y415017D01*
X260560Y415026D01*
X260443Y415040D01*
X260326Y415057D01*
X260209Y415078D01*
X260094Y415103D01*
X259979Y415132D01*
X259865Y415165D01*
X259753Y415201D01*
X259642Y415241D01*
X259532Y415284D01*
X259423Y415331D01*
X259316Y415381D01*
X259211Y415436D01*
X259108Y415493D01*
X259007Y415554D01*
X258907Y415618D01*
X258810Y415685D01*
X258715Y415755D01*
X258623Y415829D01*
X258532Y415905D01*
X258445Y415985D01*
X258360Y416067D01*
X258278Y416152D01*
X258198Y416239D01*
X258122Y416330D01*
X258048Y416422D01*
X257978Y416517D01*
X257911Y416614D01*
X257847Y416714D01*
X257786Y416815D01*
X257729Y416918D01*
X257674Y417023D01*
X257624Y417130D01*
X257577Y417239D01*
X257534Y417349D01*
X257494Y417460D01*
X257458Y417572D01*
X257425Y417686D01*
X257396Y417801D01*
X257371Y417916D01*
X257350Y418033D01*
X257333Y418150D01*
X257319Y418267D01*
X257310Y418385D01*
X257304Y418503D01*
X257302Y418621D01*
X257304Y418782D01*
X257310Y418944D01*
X257319Y419105D01*
X257333Y419266D01*
X257350Y419426D01*
X257371Y419586D01*
X257396Y419746D01*
X257425Y419905D01*
X257457Y420063D01*
X257493Y420220D01*
X257533Y420376D01*
X257577Y420532D01*
X257625Y420686D01*
X257676Y420839D01*
X257730Y420991D01*
X257789Y421142D01*
X257850Y421291D01*
X257916Y421438D01*
X257985Y421584D01*
X258057Y421729D01*
X258133Y421871D01*
X258212Y422012D01*
X258294Y422151D01*
X258380Y422287D01*
X258469Y422422D01*
X258561Y422555D01*
X258657Y422685D01*
X264075Y416815D02*
X264013Y416714D01*
X263948Y416614D01*
X263879Y416517D01*
X263807Y416422D01*
X263733Y416329D01*
X263655Y416239D01*
X263574Y416151D01*
X263491Y416066D01*
X263405Y415984D01*
X263316Y415905D01*
X263225Y415828D01*
X263131Y415755D01*
X263035Y415684D01*
X262937Y415617D01*
X262837Y415553D01*
X262734Y415492D01*
X262630Y415435D01*
X262524Y415381D01*
X262416Y415331D01*
X262307Y415284D01*
X262196Y415240D01*
X262084Y415200D01*
X261970Y415164D01*
X261856Y415132D01*
X261740Y415103D01*
X261624Y415078D01*
X261507Y415057D01*
X261389Y415040D01*
X261271Y415026D01*
X261152Y415017D01*
X261033Y415011D01*
X260914Y415009D01*
X266785Y421782D02*
X266847Y421883D01*
X266912Y421983D01*
X266981Y422080D01*
X267053Y422175D01*
X267127Y422268D01*
X267205Y422358D01*
X267286Y422446D01*
X267369Y422531D01*
X267455Y422613D01*
X267544Y422692D01*
X267635Y422769D01*
X267729Y422842D01*
X267825Y422913D01*
X267923Y422980D01*
X268023Y423044D01*
X268126Y423105D01*
X268230Y423162D01*
X268336Y423216D01*
X268444Y423266D01*
X268553Y423313D01*
X268664Y423357D01*
X268776Y423397D01*
X268890Y423433D01*
X269004Y423465D01*
X269120Y423494D01*
X269236Y423519D01*
X269353Y423540D01*
X269471Y423557D01*
X269589Y423571D01*
X269708Y423580D01*
X269827Y423586D01*
X269946Y423588D01*
X266785Y421782D02*
X264075Y416815D01*
D10*
X287020Y502920D02*
X342020Y502920D01*
X428020Y517920D02*
X428020Y572920D01*
X287020Y587920D02*
X287020Y502920D01*
X342020Y502920D02*
X352020Y512920D01*
X423020Y512920D01*
X342020Y587920D02*
X287020Y587920D01*
X342020Y587920D02*
X352020Y577920D01*
X423020Y577920D01*
X428020Y572920D01*
X428020Y517920D02*
X423020Y512920D01*
D11*
X273558Y503682D02*
X257302Y503682D01*
X257302Y508198D01*
X257304Y508331D01*
X257310Y508463D01*
X257320Y508595D01*
X257333Y508727D01*
X257351Y508859D01*
X257372Y508989D01*
X257397Y509120D01*
X257426Y509249D01*
X257459Y509377D01*
X257495Y509505D01*
X257535Y509631D01*
X257579Y509756D01*
X257627Y509880D01*
X257678Y510002D01*
X257733Y510123D01*
X257791Y510242D01*
X257853Y510360D01*
X257918Y510475D01*
X257987Y510589D01*
X258058Y510700D01*
X258134Y510809D01*
X258212Y510916D01*
X258293Y511021D01*
X258378Y511123D01*
X258465Y511223D01*
X258555Y511320D01*
X258648Y511415D01*
X258744Y511506D01*
X258842Y511595D01*
X258943Y511681D01*
X259047Y511764D01*
X259153Y511844D01*
X259261Y511920D01*
X259371Y511994D01*
X259484Y512064D01*
X259598Y512131D01*
X259715Y512194D01*
X259833Y512254D01*
X259953Y512311D01*
X260075Y512364D01*
X260198Y512413D01*
X260322Y512459D01*
X260448Y512501D01*
X260575Y512539D01*
X260703Y512574D01*
X260832Y512605D01*
X260961Y512632D01*
X261092Y512655D01*
X261223Y512675D01*
X261355Y512690D01*
X261487Y512702D01*
X261619Y512710D01*
X261752Y512714D01*
X261884Y512714D01*
X262017Y512710D01*
X262149Y512702D01*
X262281Y512690D01*
X262413Y512675D01*
X262544Y512655D01*
X262675Y512632D01*
X262804Y512605D01*
X262933Y512574D01*
X263061Y512539D01*
X263188Y512501D01*
X263314Y512459D01*
X263438Y512413D01*
X263561Y512364D01*
X263683Y512311D01*
X263803Y512254D01*
X263921Y512194D01*
X264038Y512131D01*
X264152Y512064D01*
X264265Y511994D01*
X264375Y511920D01*
X264483Y511844D01*
X264589Y511764D01*
X264693Y511681D01*
X264794Y511595D01*
X264892Y511506D01*
X264988Y511415D01*
X265081Y511320D01*
X265171Y511223D01*
X265258Y511123D01*
X265343Y511021D01*
X265424Y510916D01*
X265502Y510809D01*
X265578Y510700D01*
X265649Y510589D01*
X265718Y510475D01*
X265783Y510360D01*
X265845Y510242D01*
X265903Y510123D01*
X265958Y510002D01*
X266009Y509880D01*
X266057Y509756D01*
X266101Y509631D01*
X266141Y509505D01*
X266177Y509377D01*
X266210Y509249D01*
X266239Y509120D01*
X266264Y508989D01*
X266285Y508859D01*
X266303Y508727D01*
X266316Y508595D01*
X266326Y508463D01*
X266332Y508331D01*
X266334Y508198D01*
X266333Y508198D02*
X266333Y503682D01*
X273558Y522154D02*
X273558Y525767D01*
X273558Y522154D02*
X273556Y522036D01*
X273550Y521918D01*
X273541Y521800D01*
X273527Y521683D01*
X273510Y521566D01*
X273489Y521449D01*
X273464Y521334D01*
X273435Y521219D01*
X273402Y521105D01*
X273366Y520993D01*
X273326Y520882D01*
X273283Y520772D01*
X273236Y520663D01*
X273186Y520556D01*
X273131Y520451D01*
X273074Y520348D01*
X273013Y520247D01*
X272949Y520147D01*
X272882Y520050D01*
X272812Y519955D01*
X272738Y519863D01*
X272662Y519772D01*
X272582Y519685D01*
X272500Y519600D01*
X272415Y519518D01*
X272328Y519438D01*
X272237Y519362D01*
X272145Y519288D01*
X272050Y519218D01*
X271953Y519151D01*
X271853Y519087D01*
X271752Y519026D01*
X271649Y518969D01*
X271544Y518914D01*
X271437Y518864D01*
X271328Y518817D01*
X271218Y518774D01*
X271107Y518734D01*
X270995Y518698D01*
X270881Y518665D01*
X270766Y518636D01*
X270651Y518611D01*
X270534Y518590D01*
X270417Y518573D01*
X270300Y518559D01*
X270182Y518550D01*
X270064Y518544D01*
X269946Y518542D01*
X260914Y518542D01*
X260914Y518541D02*
X260796Y518543D01*
X260678Y518549D01*
X260560Y518558D01*
X260442Y518572D01*
X260325Y518589D01*
X260209Y518610D01*
X260094Y518635D01*
X259979Y518664D01*
X259865Y518697D01*
X259753Y518733D01*
X259641Y518773D01*
X259531Y518816D01*
X259423Y518863D01*
X259316Y518914D01*
X259211Y518968D01*
X259108Y519025D01*
X259006Y519086D01*
X258907Y519150D01*
X258810Y519217D01*
X258715Y519288D01*
X258622Y519361D01*
X258532Y519438D01*
X258444Y519517D01*
X258359Y519599D01*
X258277Y519684D01*
X258198Y519772D01*
X258121Y519862D01*
X258048Y519955D01*
X257977Y520049D01*
X257910Y520147D01*
X257846Y520246D01*
X257785Y520347D01*
X257728Y520451D01*
X257674Y520556D01*
X257623Y520663D01*
X257576Y520771D01*
X257533Y520881D01*
X257493Y520993D01*
X257457Y521105D01*
X257424Y521219D01*
X257395Y521334D01*
X257370Y521449D01*
X257349Y521565D01*
X257332Y521682D01*
X257318Y521800D01*
X257309Y521918D01*
X257303Y522036D01*
X257301Y522154D01*
X257302Y522154D02*
X257302Y525767D01*
D12*
X594360Y326390D02*
X594360Y302260D01*
X492760Y302260D02*
X492760Y326390D01*
X492760Y302260D02*
X594360Y302260D01*
X594360Y292100D01*
X492760Y292100D01*
X492760Y302260D01*
X585470Y335280D02*
X585683Y335283D01*
X585896Y335280D01*
X586109Y335272D01*
X586322Y335259D01*
X586534Y335241D01*
X586745Y335218D01*
X586957Y335189D01*
X587167Y335155D01*
X587376Y335116D01*
X587585Y335072D01*
X587792Y335023D01*
X587998Y334968D01*
X588203Y334909D01*
X588406Y334845D01*
X588607Y334775D01*
X588807Y334701D01*
X589005Y334622D01*
X589200Y334538D01*
X589394Y334449D01*
X589585Y334356D01*
X589775Y334258D01*
X589961Y334155D01*
X590145Y334048D01*
X590327Y333936D01*
X590505Y333820D01*
X590681Y333699D01*
X590853Y333575D01*
X591023Y333446D01*
X591189Y333312D01*
X591352Y333175D01*
X591512Y333034D01*
X591668Y332889D01*
X591820Y332740D01*
X591969Y332588D01*
X592114Y332432D01*
X592255Y332272D01*
X592392Y332109D01*
X592526Y331943D01*
X592655Y331773D01*
X592779Y331601D01*
X592900Y331425D01*
X593016Y331247D01*
X593128Y331065D01*
X593235Y330881D01*
X593338Y330695D01*
X593436Y330505D01*
X593529Y330314D01*
X593618Y330120D01*
X593702Y329925D01*
X593781Y329727D01*
X593855Y329527D01*
X593925Y329326D01*
X593989Y329123D01*
X594048Y328918D01*
X594103Y328712D01*
X594152Y328505D01*
X594196Y328296D01*
X594235Y328087D01*
X594269Y327877D01*
X594298Y327665D01*
X594321Y327454D01*
X594339Y327242D01*
X594352Y327029D01*
X594360Y326816D01*
X594363Y326603D01*
X594360Y326390D01*
X501650Y335280D02*
X501437Y335283D01*
X501224Y335280D01*
X501011Y335272D01*
X500798Y335259D01*
X500586Y335241D01*
X500375Y335218D01*
X500163Y335189D01*
X499953Y335155D01*
X499744Y335116D01*
X499535Y335072D01*
X499328Y335023D01*
X499122Y334968D01*
X498917Y334909D01*
X498714Y334845D01*
X498513Y334775D01*
X498313Y334701D01*
X498115Y334622D01*
X497920Y334538D01*
X497726Y334449D01*
X497535Y334356D01*
X497345Y334258D01*
X497159Y334155D01*
X496975Y334048D01*
X496793Y333936D01*
X496615Y333820D01*
X496439Y333699D01*
X496267Y333575D01*
X496097Y333446D01*
X495931Y333312D01*
X495768Y333175D01*
X495608Y333034D01*
X495452Y332889D01*
X495300Y332740D01*
X495151Y332588D01*
X495006Y332432D01*
X494865Y332272D01*
X494728Y332109D01*
X494594Y331943D01*
X494465Y331773D01*
X494341Y331601D01*
X494220Y331425D01*
X494104Y331247D01*
X493992Y331065D01*
X493885Y330881D01*
X493782Y330695D01*
X493684Y330505D01*
X493591Y330314D01*
X493502Y330120D01*
X493418Y329925D01*
X493339Y329727D01*
X493265Y329527D01*
X493195Y329326D01*
X493131Y329123D01*
X493072Y328918D01*
X493017Y328712D01*
X492968Y328505D01*
X492924Y328296D01*
X492885Y328087D01*
X492851Y327877D01*
X492822Y327665D01*
X492799Y327454D01*
X492781Y327242D01*
X492768Y327029D01*
X492760Y326816D01*
X492757Y326603D01*
X492760Y326390D01*
X581660Y335280D02*
X585470Y335280D01*
X505460Y335280D02*
X501650Y335280D01*
D13*
X543560Y297180D03*
D10*
X598876Y316153D02*
X601020Y316153D01*
X598876Y316153D02*
X598805Y316155D01*
X598733Y316161D01*
X598663Y316170D01*
X598593Y316183D01*
X598523Y316200D01*
X598455Y316221D01*
X598388Y316245D01*
X598322Y316273D01*
X598258Y316304D01*
X598195Y316339D01*
X598135Y316377D01*
X598076Y316418D01*
X598020Y316462D01*
X597966Y316509D01*
X597915Y316558D01*
X597867Y316611D01*
X597821Y316666D01*
X597779Y316723D01*
X597739Y316783D01*
X597703Y316844D01*
X597670Y316908D01*
X597641Y316973D01*
X597615Y317039D01*
X597592Y317107D01*
X597573Y317176D01*
X597558Y317246D01*
X597547Y317316D01*
X597539Y317387D01*
X597535Y317458D01*
X597535Y317530D01*
X597539Y317601D01*
X597547Y317672D01*
X597558Y317742D01*
X597573Y317812D01*
X597592Y317881D01*
X597615Y317949D01*
X597641Y318015D01*
X597670Y318080D01*
X597703Y318144D01*
X597739Y318205D01*
X597779Y318265D01*
X597821Y318322D01*
X597867Y318377D01*
X597915Y318430D01*
X597966Y318479D01*
X598020Y318526D01*
X598076Y318570D01*
X598135Y318611D01*
X598195Y318649D01*
X598258Y318684D01*
X598322Y318715D01*
X598388Y318743D01*
X598455Y318767D01*
X598523Y318788D01*
X598593Y318805D01*
X598663Y318818D01*
X598733Y318827D01*
X598805Y318833D01*
X598876Y318835D01*
X598876Y318834D02*
X601020Y318834D01*
X601020Y318835D02*
X601091Y318833D01*
X601163Y318827D01*
X601233Y318818D01*
X601303Y318805D01*
X601373Y318788D01*
X601441Y318767D01*
X601508Y318743D01*
X601574Y318715D01*
X601638Y318684D01*
X601701Y318649D01*
X601761Y318611D01*
X601820Y318570D01*
X601876Y318526D01*
X601930Y318479D01*
X601981Y318430D01*
X602029Y318377D01*
X602075Y318322D01*
X602117Y318265D01*
X602157Y318205D01*
X602193Y318144D01*
X602226Y318080D01*
X602255Y318015D01*
X602281Y317949D01*
X602304Y317881D01*
X602323Y317812D01*
X602338Y317742D01*
X602349Y317672D01*
X602357Y317601D01*
X602361Y317530D01*
X602361Y317458D01*
X602357Y317387D01*
X602349Y317316D01*
X602338Y317246D01*
X602323Y317176D01*
X602304Y317107D01*
X602281Y317039D01*
X602255Y316973D01*
X602226Y316908D01*
X602193Y316844D01*
X602157Y316783D01*
X602117Y316723D01*
X602075Y316666D01*
X602029Y316611D01*
X601981Y316558D01*
X601930Y316509D01*
X601876Y316462D01*
X601820Y316418D01*
X601761Y316377D01*
X601701Y316339D01*
X601638Y316304D01*
X601574Y316273D01*
X601508Y316245D01*
X601441Y316221D01*
X601373Y316200D01*
X601303Y316183D01*
X601233Y316170D01*
X601163Y316161D01*
X601091Y316155D01*
X601020Y316153D01*
X601289Y318298D02*
X602361Y319371D01*
X598607Y321246D02*
X597535Y322586D01*
X602361Y322586D01*
X602361Y321246D02*
X602361Y323927D01*
D12*
X467360Y504190D02*
X467360Y528320D01*
X568960Y528320D02*
X568960Y504190D01*
X568960Y528320D02*
X467360Y528320D01*
X467360Y538480D01*
X568960Y538480D01*
X568960Y528320D01*
X476250Y495300D02*
X476037Y495297D01*
X475824Y495300D01*
X475611Y495308D01*
X475398Y495321D01*
X475186Y495339D01*
X474975Y495362D01*
X474763Y495391D01*
X474553Y495425D01*
X474344Y495464D01*
X474135Y495508D01*
X473928Y495557D01*
X473722Y495612D01*
X473517Y495671D01*
X473314Y495735D01*
X473113Y495805D01*
X472913Y495879D01*
X472715Y495958D01*
X472520Y496042D01*
X472326Y496131D01*
X472135Y496224D01*
X471945Y496322D01*
X471759Y496425D01*
X471575Y496532D01*
X471393Y496644D01*
X471215Y496760D01*
X471039Y496881D01*
X470867Y497005D01*
X470697Y497134D01*
X470531Y497268D01*
X470368Y497405D01*
X470208Y497546D01*
X470052Y497691D01*
X469900Y497840D01*
X469751Y497992D01*
X469606Y498148D01*
X469465Y498308D01*
X469328Y498471D01*
X469194Y498637D01*
X469065Y498807D01*
X468941Y498979D01*
X468820Y499155D01*
X468704Y499333D01*
X468592Y499515D01*
X468485Y499699D01*
X468382Y499885D01*
X468284Y500075D01*
X468191Y500266D01*
X468102Y500460D01*
X468018Y500655D01*
X467939Y500853D01*
X467865Y501053D01*
X467795Y501254D01*
X467731Y501457D01*
X467672Y501662D01*
X467617Y501868D01*
X467568Y502075D01*
X467524Y502284D01*
X467485Y502493D01*
X467451Y502703D01*
X467422Y502915D01*
X467399Y503126D01*
X467381Y503338D01*
X467368Y503551D01*
X467360Y503764D01*
X467357Y503977D01*
X467360Y504190D01*
X560070Y495300D02*
X560283Y495297D01*
X560496Y495300D01*
X560709Y495308D01*
X560922Y495321D01*
X561134Y495339D01*
X561345Y495362D01*
X561557Y495391D01*
X561767Y495425D01*
X561976Y495464D01*
X562185Y495508D01*
X562392Y495557D01*
X562598Y495612D01*
X562803Y495671D01*
X563006Y495735D01*
X563207Y495805D01*
X563407Y495879D01*
X563605Y495958D01*
X563800Y496042D01*
X563994Y496131D01*
X564185Y496224D01*
X564375Y496322D01*
X564561Y496425D01*
X564745Y496532D01*
X564927Y496644D01*
X565105Y496760D01*
X565281Y496881D01*
X565453Y497005D01*
X565623Y497134D01*
X565789Y497268D01*
X565952Y497405D01*
X566112Y497546D01*
X566268Y497691D01*
X566420Y497840D01*
X566569Y497992D01*
X566714Y498148D01*
X566855Y498308D01*
X566992Y498471D01*
X567126Y498637D01*
X567255Y498807D01*
X567379Y498979D01*
X567500Y499155D01*
X567616Y499333D01*
X567728Y499515D01*
X567835Y499699D01*
X567938Y499885D01*
X568036Y500075D01*
X568129Y500266D01*
X568218Y500460D01*
X568302Y500655D01*
X568381Y500853D01*
X568455Y501053D01*
X568525Y501254D01*
X568589Y501457D01*
X568648Y501662D01*
X568703Y501868D01*
X568752Y502075D01*
X568796Y502284D01*
X568835Y502493D01*
X568869Y502703D01*
X568898Y502915D01*
X568921Y503126D01*
X568939Y503338D01*
X568952Y503551D01*
X568960Y503764D01*
X568963Y503977D01*
X568960Y504190D01*
X480060Y495300D02*
X476250Y495300D01*
X556260Y495300D02*
X560070Y495300D01*
D13*
X518160Y533400D03*
D10*
X462844Y506653D02*
X460700Y506653D01*
X460629Y506655D01*
X460557Y506661D01*
X460487Y506670D01*
X460417Y506683D01*
X460347Y506700D01*
X460279Y506721D01*
X460212Y506745D01*
X460146Y506773D01*
X460082Y506804D01*
X460019Y506839D01*
X459959Y506877D01*
X459900Y506918D01*
X459844Y506962D01*
X459790Y507009D01*
X459739Y507058D01*
X459691Y507111D01*
X459645Y507166D01*
X459603Y507223D01*
X459563Y507283D01*
X459527Y507344D01*
X459494Y507408D01*
X459465Y507473D01*
X459439Y507539D01*
X459416Y507607D01*
X459397Y507676D01*
X459382Y507746D01*
X459371Y507816D01*
X459363Y507887D01*
X459359Y507958D01*
X459359Y508030D01*
X459363Y508101D01*
X459371Y508172D01*
X459382Y508242D01*
X459397Y508312D01*
X459416Y508381D01*
X459439Y508449D01*
X459465Y508515D01*
X459494Y508580D01*
X459527Y508644D01*
X459563Y508705D01*
X459603Y508765D01*
X459645Y508822D01*
X459691Y508877D01*
X459739Y508930D01*
X459790Y508979D01*
X459844Y509026D01*
X459900Y509070D01*
X459959Y509111D01*
X460019Y509149D01*
X460082Y509184D01*
X460146Y509215D01*
X460212Y509243D01*
X460279Y509267D01*
X460347Y509288D01*
X460417Y509305D01*
X460487Y509318D01*
X460557Y509327D01*
X460629Y509333D01*
X460700Y509335D01*
X460700Y509334D02*
X462844Y509334D01*
X462844Y509335D02*
X462915Y509333D01*
X462987Y509327D01*
X463057Y509318D01*
X463127Y509305D01*
X463197Y509288D01*
X463265Y509267D01*
X463332Y509243D01*
X463398Y509215D01*
X463462Y509184D01*
X463525Y509149D01*
X463585Y509111D01*
X463644Y509070D01*
X463700Y509026D01*
X463754Y508979D01*
X463805Y508930D01*
X463853Y508877D01*
X463899Y508822D01*
X463941Y508765D01*
X463981Y508705D01*
X464017Y508644D01*
X464050Y508580D01*
X464079Y508515D01*
X464105Y508449D01*
X464128Y508381D01*
X464147Y508312D01*
X464162Y508242D01*
X464173Y508172D01*
X464181Y508101D01*
X464185Y508030D01*
X464185Y507958D01*
X464181Y507887D01*
X464173Y507816D01*
X464162Y507746D01*
X464147Y507676D01*
X464128Y507607D01*
X464105Y507539D01*
X464079Y507473D01*
X464050Y507408D01*
X464017Y507344D01*
X463981Y507283D01*
X463941Y507223D01*
X463899Y507166D01*
X463853Y507111D01*
X463805Y507058D01*
X463754Y507009D01*
X463700Y506962D01*
X463644Y506918D01*
X463585Y506877D01*
X463525Y506839D01*
X463462Y506804D01*
X463398Y506773D01*
X463332Y506745D01*
X463265Y506721D01*
X463197Y506700D01*
X463127Y506683D01*
X463057Y506670D01*
X462987Y506661D01*
X462915Y506655D01*
X462844Y506653D01*
X463113Y508798D02*
X464185Y509871D01*
X460566Y514427D02*
X460498Y514425D01*
X460431Y514419D01*
X460364Y514410D01*
X460297Y514397D01*
X460232Y514380D01*
X460167Y514359D01*
X460104Y514335D01*
X460042Y514307D01*
X459982Y514276D01*
X459924Y514242D01*
X459868Y514204D01*
X459813Y514164D01*
X459762Y514120D01*
X459713Y514073D01*
X459666Y514024D01*
X459622Y513973D01*
X459582Y513918D01*
X459544Y513862D01*
X459510Y513804D01*
X459479Y513744D01*
X459451Y513682D01*
X459427Y513619D01*
X459406Y513554D01*
X459389Y513489D01*
X459376Y513422D01*
X459367Y513355D01*
X459361Y513288D01*
X459359Y513220D01*
X459361Y513142D01*
X459367Y513064D01*
X459377Y512987D01*
X459390Y512910D01*
X459408Y512834D01*
X459429Y512759D01*
X459454Y512685D01*
X459483Y512613D01*
X459515Y512542D01*
X459551Y512473D01*
X459590Y512405D01*
X459633Y512340D01*
X459679Y512277D01*
X459728Y512216D01*
X459780Y512158D01*
X459835Y512103D01*
X459892Y512050D01*
X459952Y512001D01*
X460015Y511954D01*
X460080Y511911D01*
X460146Y511871D01*
X460215Y511834D01*
X460286Y511801D01*
X460358Y511771D01*
X460432Y511745D01*
X461504Y514025D02*
X461455Y514074D01*
X461403Y514121D01*
X461348Y514164D01*
X461291Y514205D01*
X461232Y514243D01*
X461171Y514277D01*
X461108Y514308D01*
X461044Y514336D01*
X460978Y514360D01*
X460912Y514380D01*
X460844Y514397D01*
X460775Y514410D01*
X460706Y514419D01*
X460636Y514425D01*
X460566Y514427D01*
X461504Y514025D02*
X464185Y511746D01*
X464185Y514427D01*
D11*
X586740Y407670D02*
X586740Y374650D01*
X586740Y407670D02*
X586738Y407792D01*
X586732Y407914D01*
X586722Y408036D01*
X586709Y408157D01*
X586691Y408278D01*
X586670Y408398D01*
X586644Y408518D01*
X586615Y408636D01*
X586583Y408754D01*
X586546Y408871D01*
X586506Y408986D01*
X586462Y409100D01*
X586414Y409212D01*
X586363Y409323D01*
X586308Y409432D01*
X586250Y409540D01*
X586188Y409645D01*
X586123Y409748D01*
X586055Y409850D01*
X585983Y409949D01*
X585909Y410045D01*
X585831Y410140D01*
X585750Y410231D01*
X585667Y410321D01*
X585581Y410407D01*
X585491Y410490D01*
X585400Y410571D01*
X585305Y410649D01*
X585209Y410723D01*
X585110Y410795D01*
X585008Y410863D01*
X584905Y410928D01*
X584800Y410990D01*
X584692Y411048D01*
X584583Y411103D01*
X584472Y411154D01*
X584360Y411202D01*
X584246Y411246D01*
X584131Y411286D01*
X584014Y411323D01*
X583896Y411355D01*
X583778Y411384D01*
X583658Y411410D01*
X583538Y411431D01*
X583417Y411449D01*
X583296Y411462D01*
X583174Y411472D01*
X583052Y411478D01*
X582930Y411480D01*
X488950Y370840D02*
X488828Y370842D01*
X488706Y370848D01*
X488584Y370858D01*
X488463Y370871D01*
X488342Y370889D01*
X488222Y370910D01*
X488102Y370936D01*
X487984Y370965D01*
X487866Y370997D01*
X487749Y371034D01*
X487634Y371074D01*
X487520Y371118D01*
X487408Y371166D01*
X487297Y371217D01*
X487188Y371272D01*
X487080Y371330D01*
X486975Y371392D01*
X486872Y371457D01*
X486770Y371525D01*
X486671Y371597D01*
X486575Y371671D01*
X486480Y371749D01*
X486389Y371830D01*
X486299Y371913D01*
X486213Y371999D01*
X486130Y372089D01*
X486049Y372180D01*
X485971Y372275D01*
X485897Y372371D01*
X485825Y372470D01*
X485757Y372572D01*
X485692Y372675D01*
X485630Y372780D01*
X485572Y372888D01*
X485517Y372997D01*
X485466Y373108D01*
X485418Y373220D01*
X485374Y373334D01*
X485334Y373449D01*
X485297Y373566D01*
X485265Y373684D01*
X485236Y373802D01*
X485210Y373922D01*
X485189Y374042D01*
X485171Y374163D01*
X485158Y374284D01*
X485148Y374406D01*
X485142Y374528D01*
X485140Y374650D01*
X582930Y370840D02*
X583052Y370842D01*
X583174Y370848D01*
X583296Y370858D01*
X583417Y370871D01*
X583538Y370889D01*
X583658Y370910D01*
X583778Y370936D01*
X583896Y370965D01*
X584014Y370997D01*
X584131Y371034D01*
X584246Y371074D01*
X584360Y371118D01*
X584472Y371166D01*
X584583Y371217D01*
X584692Y371272D01*
X584800Y371330D01*
X584905Y371392D01*
X585008Y371457D01*
X585110Y371525D01*
X585209Y371597D01*
X585305Y371671D01*
X585400Y371749D01*
X585491Y371830D01*
X585581Y371913D01*
X585667Y371999D01*
X585750Y372089D01*
X585831Y372180D01*
X585909Y372275D01*
X585983Y372371D01*
X586055Y372470D01*
X586123Y372572D01*
X586188Y372675D01*
X586250Y372780D01*
X586308Y372888D01*
X586363Y372997D01*
X586414Y373108D01*
X586462Y373220D01*
X586506Y373334D01*
X586546Y373449D01*
X586583Y373566D01*
X586615Y373684D01*
X586644Y373802D01*
X586670Y373922D01*
X586691Y374042D01*
X586709Y374163D01*
X586722Y374284D01*
X586732Y374406D01*
X586738Y374528D01*
X586740Y374650D01*
X488950Y411480D02*
X488828Y411478D01*
X488706Y411472D01*
X488584Y411462D01*
X488463Y411449D01*
X488342Y411431D01*
X488222Y411410D01*
X488102Y411384D01*
X487984Y411355D01*
X487866Y411323D01*
X487749Y411286D01*
X487634Y411246D01*
X487520Y411202D01*
X487408Y411154D01*
X487297Y411103D01*
X487188Y411048D01*
X487080Y410990D01*
X486975Y410928D01*
X486872Y410863D01*
X486770Y410795D01*
X486671Y410723D01*
X486575Y410649D01*
X486480Y410571D01*
X486389Y410490D01*
X486299Y410407D01*
X486213Y410321D01*
X486130Y410231D01*
X486049Y410140D01*
X485971Y410045D01*
X485897Y409949D01*
X485825Y409850D01*
X485757Y409748D01*
X485692Y409645D01*
X485630Y409540D01*
X485572Y409432D01*
X485517Y409323D01*
X485466Y409212D01*
X485418Y409100D01*
X485374Y408986D01*
X485334Y408871D01*
X485297Y408754D01*
X485265Y408636D01*
X485236Y408518D01*
X485210Y408398D01*
X485189Y408278D01*
X485171Y408157D01*
X485158Y408036D01*
X485148Y407914D01*
X485142Y407792D01*
X485140Y407670D01*
X576580Y411480D02*
X582930Y411480D01*
X576580Y411480D02*
X575310Y410210D01*
X576580Y370840D02*
X582930Y370840D01*
X576580Y370840D02*
X575310Y372110D01*
X496570Y410210D02*
X495300Y411480D01*
X496570Y410210D02*
X575310Y410210D01*
X496570Y372110D02*
X495300Y370840D01*
X496570Y372110D02*
X575310Y372110D01*
X485140Y374650D02*
X485140Y407670D01*
X488950Y411480D02*
X495300Y411480D01*
X495300Y370840D02*
X488950Y370840D01*
D14*
X593725Y391160D03*
X478155Y391160D03*
D10*
X485775Y415925D02*
X485775Y427355D01*
X488950Y427355D01*
X489061Y427353D01*
X489171Y427347D01*
X489282Y427338D01*
X489392Y427324D01*
X489501Y427307D01*
X489610Y427286D01*
X489718Y427261D01*
X489825Y427232D01*
X489931Y427200D01*
X490036Y427164D01*
X490139Y427124D01*
X490241Y427081D01*
X490342Y427034D01*
X490441Y426983D01*
X490538Y426930D01*
X490632Y426873D01*
X490725Y426812D01*
X490816Y426749D01*
X490905Y426682D01*
X490991Y426612D01*
X491074Y426539D01*
X491156Y426464D01*
X491234Y426386D01*
X491309Y426304D01*
X491382Y426221D01*
X491452Y426135D01*
X491519Y426046D01*
X491582Y425955D01*
X491643Y425862D01*
X491700Y425767D01*
X491753Y425671D01*
X491804Y425572D01*
X491851Y425471D01*
X491894Y425369D01*
X491934Y425266D01*
X491970Y425161D01*
X492002Y425055D01*
X492031Y424948D01*
X492056Y424840D01*
X492077Y424731D01*
X492094Y424622D01*
X492108Y424512D01*
X492117Y424401D01*
X492123Y424291D01*
X492125Y424180D01*
X492123Y424069D01*
X492117Y423959D01*
X492108Y423848D01*
X492094Y423738D01*
X492077Y423629D01*
X492056Y423520D01*
X492031Y423412D01*
X492002Y423305D01*
X491970Y423199D01*
X491934Y423094D01*
X491894Y422991D01*
X491851Y422889D01*
X491804Y422788D01*
X491753Y422689D01*
X491700Y422592D01*
X491643Y422498D01*
X491582Y422405D01*
X491519Y422314D01*
X491452Y422225D01*
X491382Y422139D01*
X491309Y422056D01*
X491234Y421974D01*
X491156Y421896D01*
X491074Y421821D01*
X490991Y421748D01*
X490905Y421678D01*
X490816Y421611D01*
X490725Y421548D01*
X490632Y421487D01*
X490538Y421430D01*
X490441Y421377D01*
X490342Y421326D01*
X490241Y421279D01*
X490139Y421236D01*
X490036Y421196D01*
X489931Y421160D01*
X489825Y421128D01*
X489718Y421099D01*
X489610Y421074D01*
X489501Y421053D01*
X489392Y421036D01*
X489282Y421022D01*
X489171Y421013D01*
X489061Y421007D01*
X488950Y421005D01*
X485775Y421005D01*
X489585Y421005D02*
X492125Y415925D01*
X497122Y424815D02*
X500297Y427355D01*
X500297Y415925D01*
X497122Y415925D02*
X503472Y415925D01*
D11*
X586740Y427990D02*
X586740Y461010D01*
X586738Y461132D01*
X586732Y461254D01*
X586722Y461376D01*
X586709Y461497D01*
X586691Y461618D01*
X586670Y461738D01*
X586644Y461858D01*
X586615Y461976D01*
X586583Y462094D01*
X586546Y462211D01*
X586506Y462326D01*
X586462Y462440D01*
X586414Y462552D01*
X586363Y462663D01*
X586308Y462772D01*
X586250Y462880D01*
X586188Y462985D01*
X586123Y463088D01*
X586055Y463190D01*
X585983Y463289D01*
X585909Y463385D01*
X585831Y463480D01*
X585750Y463571D01*
X585667Y463661D01*
X585581Y463747D01*
X585491Y463830D01*
X585400Y463911D01*
X585305Y463989D01*
X585209Y464063D01*
X585110Y464135D01*
X585008Y464203D01*
X584905Y464268D01*
X584800Y464330D01*
X584692Y464388D01*
X584583Y464443D01*
X584472Y464494D01*
X584360Y464542D01*
X584246Y464586D01*
X584131Y464626D01*
X584014Y464663D01*
X583896Y464695D01*
X583778Y464724D01*
X583658Y464750D01*
X583538Y464771D01*
X583417Y464789D01*
X583296Y464802D01*
X583174Y464812D01*
X583052Y464818D01*
X582930Y464820D01*
X488950Y424180D02*
X488828Y424182D01*
X488706Y424188D01*
X488584Y424198D01*
X488463Y424211D01*
X488342Y424229D01*
X488222Y424250D01*
X488102Y424276D01*
X487984Y424305D01*
X487866Y424337D01*
X487749Y424374D01*
X487634Y424414D01*
X487520Y424458D01*
X487408Y424506D01*
X487297Y424557D01*
X487188Y424612D01*
X487080Y424670D01*
X486975Y424732D01*
X486872Y424797D01*
X486770Y424865D01*
X486671Y424937D01*
X486575Y425011D01*
X486480Y425089D01*
X486389Y425170D01*
X486299Y425253D01*
X486213Y425339D01*
X486130Y425429D01*
X486049Y425520D01*
X485971Y425615D01*
X485897Y425711D01*
X485825Y425810D01*
X485757Y425912D01*
X485692Y426015D01*
X485630Y426120D01*
X485572Y426228D01*
X485517Y426337D01*
X485466Y426448D01*
X485418Y426560D01*
X485374Y426674D01*
X485334Y426789D01*
X485297Y426906D01*
X485265Y427024D01*
X485236Y427142D01*
X485210Y427262D01*
X485189Y427382D01*
X485171Y427503D01*
X485158Y427624D01*
X485148Y427746D01*
X485142Y427868D01*
X485140Y427990D01*
X582930Y424180D02*
X583052Y424182D01*
X583174Y424188D01*
X583296Y424198D01*
X583417Y424211D01*
X583538Y424229D01*
X583658Y424250D01*
X583778Y424276D01*
X583896Y424305D01*
X584014Y424337D01*
X584131Y424374D01*
X584246Y424414D01*
X584360Y424458D01*
X584472Y424506D01*
X584583Y424557D01*
X584692Y424612D01*
X584800Y424670D01*
X584905Y424732D01*
X585008Y424797D01*
X585110Y424865D01*
X585209Y424937D01*
X585305Y425011D01*
X585400Y425089D01*
X585491Y425170D01*
X585581Y425253D01*
X585667Y425339D01*
X585750Y425429D01*
X585831Y425520D01*
X585909Y425615D01*
X585983Y425711D01*
X586055Y425810D01*
X586123Y425912D01*
X586188Y426015D01*
X586250Y426120D01*
X586308Y426228D01*
X586363Y426337D01*
X586414Y426448D01*
X586462Y426560D01*
X586506Y426674D01*
X586546Y426789D01*
X586583Y426906D01*
X586615Y427024D01*
X586644Y427142D01*
X586670Y427262D01*
X586691Y427382D01*
X586709Y427503D01*
X586722Y427624D01*
X586732Y427746D01*
X586738Y427868D01*
X586740Y427990D01*
X488950Y464820D02*
X488828Y464818D01*
X488706Y464812D01*
X488584Y464802D01*
X488463Y464789D01*
X488342Y464771D01*
X488222Y464750D01*
X488102Y464724D01*
X487984Y464695D01*
X487866Y464663D01*
X487749Y464626D01*
X487634Y464586D01*
X487520Y464542D01*
X487408Y464494D01*
X487297Y464443D01*
X487188Y464388D01*
X487080Y464330D01*
X486975Y464268D01*
X486872Y464203D01*
X486770Y464135D01*
X486671Y464063D01*
X486575Y463989D01*
X486480Y463911D01*
X486389Y463830D01*
X486299Y463747D01*
X486213Y463661D01*
X486130Y463571D01*
X486049Y463480D01*
X485971Y463385D01*
X485897Y463289D01*
X485825Y463190D01*
X485757Y463088D01*
X485692Y462985D01*
X485630Y462880D01*
X485572Y462772D01*
X485517Y462663D01*
X485466Y462552D01*
X485418Y462440D01*
X485374Y462326D01*
X485334Y462211D01*
X485297Y462094D01*
X485265Y461976D01*
X485236Y461858D01*
X485210Y461738D01*
X485189Y461618D01*
X485171Y461497D01*
X485158Y461376D01*
X485148Y461254D01*
X485142Y461132D01*
X485140Y461010D01*
X576580Y464820D02*
X582930Y464820D01*
X576580Y464820D02*
X575310Y463550D01*
X576580Y424180D02*
X582930Y424180D01*
X576580Y424180D02*
X575310Y425450D01*
X496570Y463550D02*
X495300Y464820D01*
X496570Y463550D02*
X575310Y463550D01*
X496570Y425450D02*
X495300Y424180D01*
X496570Y425450D02*
X575310Y425450D01*
X485140Y427990D02*
X485140Y461010D01*
X488950Y464820D02*
X495300Y464820D01*
X495300Y424180D02*
X488950Y424180D01*
D14*
X593725Y444500D03*
X478155Y444500D03*
D10*
X485775Y469265D02*
X485775Y480695D01*
X488950Y480695D01*
X489061Y480693D01*
X489171Y480687D01*
X489282Y480678D01*
X489392Y480664D01*
X489501Y480647D01*
X489610Y480626D01*
X489718Y480601D01*
X489825Y480572D01*
X489931Y480540D01*
X490036Y480504D01*
X490139Y480464D01*
X490241Y480421D01*
X490342Y480374D01*
X490441Y480323D01*
X490538Y480270D01*
X490632Y480213D01*
X490725Y480152D01*
X490816Y480089D01*
X490905Y480022D01*
X490991Y479952D01*
X491074Y479879D01*
X491156Y479804D01*
X491234Y479726D01*
X491309Y479644D01*
X491382Y479561D01*
X491452Y479475D01*
X491519Y479386D01*
X491582Y479295D01*
X491643Y479202D01*
X491700Y479107D01*
X491753Y479011D01*
X491804Y478912D01*
X491851Y478811D01*
X491894Y478709D01*
X491934Y478606D01*
X491970Y478501D01*
X492002Y478395D01*
X492031Y478288D01*
X492056Y478180D01*
X492077Y478071D01*
X492094Y477962D01*
X492108Y477852D01*
X492117Y477741D01*
X492123Y477631D01*
X492125Y477520D01*
X492123Y477409D01*
X492117Y477299D01*
X492108Y477188D01*
X492094Y477078D01*
X492077Y476969D01*
X492056Y476860D01*
X492031Y476752D01*
X492002Y476645D01*
X491970Y476539D01*
X491934Y476434D01*
X491894Y476331D01*
X491851Y476229D01*
X491804Y476128D01*
X491753Y476029D01*
X491700Y475932D01*
X491643Y475838D01*
X491582Y475745D01*
X491519Y475654D01*
X491452Y475565D01*
X491382Y475479D01*
X491309Y475396D01*
X491234Y475314D01*
X491156Y475236D01*
X491074Y475161D01*
X490991Y475088D01*
X490905Y475018D01*
X490816Y474951D01*
X490725Y474888D01*
X490632Y474827D01*
X490538Y474770D01*
X490441Y474717D01*
X490342Y474666D01*
X490241Y474619D01*
X490139Y474576D01*
X490036Y474536D01*
X489931Y474500D01*
X489825Y474468D01*
X489718Y474439D01*
X489610Y474414D01*
X489501Y474393D01*
X489392Y474376D01*
X489282Y474362D01*
X489171Y474353D01*
X489061Y474347D01*
X488950Y474345D01*
X485775Y474345D01*
X489585Y474345D02*
X492125Y469265D01*
X503473Y477838D02*
X503471Y477942D01*
X503465Y478047D01*
X503456Y478151D01*
X503443Y478254D01*
X503425Y478357D01*
X503405Y478459D01*
X503380Y478561D01*
X503352Y478661D01*
X503320Y478761D01*
X503284Y478859D01*
X503245Y478956D01*
X503203Y479051D01*
X503157Y479145D01*
X503107Y479237D01*
X503055Y479327D01*
X502999Y479415D01*
X502939Y479501D01*
X502877Y479585D01*
X502812Y479666D01*
X502744Y479745D01*
X502672Y479822D01*
X502599Y479895D01*
X502522Y479967D01*
X502443Y480035D01*
X502362Y480100D01*
X502278Y480162D01*
X502192Y480222D01*
X502104Y480278D01*
X502014Y480330D01*
X501922Y480380D01*
X501828Y480426D01*
X501733Y480468D01*
X501636Y480507D01*
X501538Y480543D01*
X501438Y480575D01*
X501338Y480603D01*
X501236Y480628D01*
X501134Y480648D01*
X501031Y480666D01*
X500928Y480679D01*
X500824Y480688D01*
X500719Y480694D01*
X500615Y480696D01*
X500615Y480695D02*
X500497Y480693D01*
X500378Y480687D01*
X500260Y480678D01*
X500143Y480665D01*
X500026Y480647D01*
X499909Y480627D01*
X499793Y480602D01*
X499678Y480574D01*
X499565Y480541D01*
X499452Y480506D01*
X499340Y480466D01*
X499230Y480424D01*
X499121Y480377D01*
X499013Y480327D01*
X498908Y480274D01*
X498804Y480217D01*
X498702Y480157D01*
X498602Y480094D01*
X498504Y480027D01*
X498408Y479958D01*
X498315Y479885D01*
X498224Y479809D01*
X498135Y479731D01*
X498049Y479649D01*
X497966Y479565D01*
X497885Y479479D01*
X497808Y479389D01*
X497733Y479298D01*
X497661Y479204D01*
X497592Y479107D01*
X497527Y479009D01*
X497464Y478908D01*
X497405Y478805D01*
X497349Y478701D01*
X497297Y478595D01*
X497248Y478487D01*
X497203Y478378D01*
X497161Y478267D01*
X497123Y478155D01*
X502520Y475616D02*
X502596Y475691D01*
X502671Y475770D01*
X502742Y475851D01*
X502811Y475935D01*
X502876Y476021D01*
X502938Y476109D01*
X502998Y476199D01*
X503054Y476291D01*
X503107Y476386D01*
X503156Y476482D01*
X503202Y476580D01*
X503245Y476679D01*
X503284Y476780D01*
X503319Y476882D01*
X503351Y476985D01*
X503379Y477089D01*
X503404Y477194D01*
X503425Y477301D01*
X503442Y477407D01*
X503455Y477514D01*
X503464Y477622D01*
X503470Y477730D01*
X503472Y477838D01*
X502520Y475615D02*
X497122Y469265D01*
X503472Y469265D01*
M02*
